<?xml version="1.0" encoding="utf-8"?>
<!-- Generator: Adobe Illustrator 26.2.1, SVG Export Plug-In . SVG Version: 6.00 Build 0)  -->
<svg version="1.1" id="圖層_1" xmlns="http://www.w3.org/2000/svg" xmlns:xlink="http://www.w3.org/1999/xlink" x="0px" y="0px"
	 viewBox="0 0 1280 1280" style="enable-background:new 0 0 1280 1280;" xml:space="preserve">
<style type="text/css">
	.st0{fill:#FEFEFE;}
	.st1{fill:#010101;}
	.st2{fill:#231815;}
</style>
<path class="st0" d="M987.7,113.8h157.2l6.4,3.6l7.1,6.4l4.3,5l3.6,6.4v155l-3.6,7.8l-7.8,8.5l-4.3,3.6l-4.3,2.1l-3.6,0.7h-155
	l-2.8-2.1l-3.6-2.1l-7.1-6.4l-5-6.4l-2.1-4.3V135.1l4.3-7.8l9.2-9.2l6.4-3.6L987.7,113.8z"/>
<path class="st0" d="M134.4,967.1h157.9l2.8,2.1l5,2.8l7.8,7.8l2.8,5l2.1,3.6V1142l-2.1,2.8l-0.7,5.7l-7.8,8.5l-5.7,4.3l-6.4,2.8
	h-155l-7.1-4.3l-2.8-2.1v-1.4l-2.8-1.4l-5.7-6.4l-2.8-5.7V987.7l2.1-2.8l2.1-4.3l9.2-9.2l6.4-3.6L134.4,967.1z"/>
<path class="st0" d="M134.4,113.8h157.9l3.6,2.1l6.4,5l5.7,5.7l2.8,5l2.1,3.6v153.6l-2.1,2.8l-0.7,5.7l-7.8,8.5l-5,4.3l-7.1,2.8
	h-155l-7.1-4.3l-7.1-6.4l-5-6.4l-2.1-4.3V135.1l4.3-7.8l9.2-9.2l6.4-3.6L134.4,113.8z"/>
<path d="M987.7,113.8h157.2l6.4,3.6l7.1,6.4l4.3,5l3.6,6.4v155l-3.6,7.8l-7.8,8.5l-4.3,3.6l-4.3,2.1l-3.6,0.7h-155l-2.8-2.1
	l-3.6-2.1l-7.1-6.4l-5-6.4l-2.1-4.3V135.1l4.3-7.8l9.2-9.2l6.4-3.6L987.7,113.8z M1016.9,142.2l-6.4,3.6l-6.4,5.7v1.4l-2.8,1.4
	l-2.8,3.6l-2.8,5.7v98.8l4.3,7.8l5,5.7l5.7,5l4.3,2.1l1.4,1.4h98.1l3.6-1.4l5-2.1l11.4-11.4l1.4-7.1l2.1-2.1v-96l-4.3-7.8l-2.8-3.6
	h-1.4v-1.4h-1.4V150l-6.4-5l-5-2.8H1016.9z"/>
<path d="M134.4,967.1h157.9l2.8,2.1l5,2.8l7.8,7.8l2.8,5l2.1,3.6V1142l-2.1,2.8l-0.7,5.7l-7.8,8.5l-5.7,4.3l-6.4,2.8h-155l-7.1-4.3
	l-2.8-2.1v-1.4l-2.8-1.4l-5.7-6.4l-2.8-5.7V987.7l2.1-2.8l2.1-4.3l9.2-9.2l6.4-3.6L134.4,967.1z M163.6,995.6l-6.4,3.6l-6.4,5.7v1.4
	l-2.1,0.7l-3.6,4.3l-2.8,5.7v98.8l4.3,7.8l5,5.7l7.1,5.7l3.6,2.1l0.7,0.7H261l3.6-1.4l5-2.1l12.1-12.1l0.7-6.4l2.1-2.1v-96.7l-2.8-5
	l-4.3-5.7h-1.4v-1.4l-5.7-5l-7.1-4.3H163.6z"/>
<path d="M134.4,113.8h157.9l3.6,2.1l6.4,5l5.7,5.7l2.8,5l2.1,3.6v153.6l-2.1,2.8l-0.7,5.7l-7.8,8.5l-5,4.3l-7.1,2.8h-155l-7.1-4.3
	l-7.1-6.4l-5-6.4l-2.1-4.3V135.1l4.3-7.8l9.2-9.2l6.4-3.6L134.4,113.8z M163.6,142.2l-6.4,3.6l-6.4,5.7v1.4l-2.1,0.7l-3.6,4.3
	l-2.8,5.7v98.8l4.3,7.8l5,5.7l7.1,5.7l3.6,2.1l0.7,0.7H261l3.6-0.7l0.7-1.4l4.3-1.4l12.1-12.1l0.7-6.4l2.1-1.4v-96.7l-4.3-7.8
	l-2.8-3.6h-1.4v-1.4l-5.7-5l-7.1-4.3H163.6z"/>
<path d="M191.3,1024h44.1l2.8,2.1l5,2.8l7.8,7.8l2.8,5l2.1,3.6v42l-3.6,7.1l-6.4,7.1l-5.7,5l-6.4,2.8h-42l-7.1-4.3l-7.1-6.4l-5-6.4
	l-2.1-4.3v-43.4l2.1-2.8l2.1-4.3l10-10l5.7-2.8L191.3,1024z"/>
<path d="M191.3,170.7h43.4l6.4,3.6l7.1,6.4l5,5.7l2.8,5.7v42l-3.6,7.1l-6.4,7.1l-5.7,5L234,256h-42l-7.1-4.3l-7.1-6.4l-5-6.4
	l-2.1-4.3v-43.4l2.1-2.8l2.1-4.3l10-10l5.7-2.8L191.3,170.7z"/>
<path d="M1044.6,170.7h43.4l6.4,3.6l7.1,6.4l5,5.7l2.8,5.7v39.8l-2.1,3.6l-0.7,5l-7.8,8.5l-5,4.3l-6.4,2.8h-42l-7.1-4.3l-7.1-6.4
	l-5-6.4l-2.1-4.3v-43.4l2.1-2.8l2.1-4.3l10-10l5.7-2.8L1044.6,170.7z"/>
<path d="M352.7,343.5h6.4l5.7,5l2.1,2.8v9.2l-5,5l-5,2.1l-5.7-0.7l-5.7-5l-2.1-5v-5l4.3-5.7L352.7,343.5z"/>
<path d="M1035.4,798.6h5.7l4.3,2.8l4.3,5v8.5l-2.8,4.3l-4.3,2.8l-6.4,0.7l-4.3-2.1l-5-5.7l-0.7-7.1l2.1-3.6l3.6-3.6L1035.4,798.6z"
	/>
<path d="M438,798.6h5.7l3.6,2.1l5,5.7v8.5l-2.8,4.3l-4.3,2.8l-6.4,0.7l-4.3-2.1l-5-5.7l-0.7-6.4l1.4-3.6l5.7-5.7L438,798.6z"/>
<path d="M1006.9,770.1h5.7l3.6,2.1l5,5.7v8.5l-5,5.7l-5,2.1l-5.7-0.7l-5.7-5l-2.1-5v-5l3.6-5l3.6-2.8L1006.9,770.1z"/>
<path d="M1035.4,514.1h5.7l3.6,2.1l5,5.7l0.7,5l-1.4,5l-5.7,5l-5.7,1.4l-5-1.4l-5.7-6.4l-0.7-7.1l2.8-5l4.3-3.6L1035.4,514.1z"/>
<path d="M864.7,485.7h5.7l3.6,2.1l5,5.7v8.5l-2.8,4.3l-4.3,2.8l-6.4,0.7l-4.3-2.1l-5-5.7l-0.7-6.4l1.4-3.6l5.7-5.7L864.7,485.7z"/>
<path d="M352.7,371.9h5.7l3.6,2.1l5,5.7l0.7,5.7l-2.1,5l-5,4.3l-5.7,1.4l-5-1.4l-5.7-6.4l-0.7-2.8v-5l3.6-5L352.7,371.9z"/>
<path d="M978.5,770.1h6.4l5.7,5l2.1,2.8v8.5l-2.8,4.3l-4.3,2.8l-5.7,0.7l-5-2.1l-5-5.7l-0.7-6.4l1.4-3.6l5.7-5.7L978.5,770.1z"/>
<path d="M182,571h5.7l3.6,2.1l5,5.7l0.7,5l-1.4,5l-5.7,5l-3.6,1.4l-5.7-0.7l-5.7-5l-2.1-5l0.7-6.4l2.8-3.6L182,571z"/>
<path d="M324.3,371.9h5.7l3.6,2.1l5,5.7v8.5l-5,5.7l-5,2.1l-7.1-1.4l-5.7-6.4l-0.7-7.1l2.1-3.6l3.6-3.6L324.3,371.9z"/>
<path d="M352.7,315h6.4l5.7,5l2.1,2.8v9.2l-5,5l-5,2.1l-7.1-1.4l-5.7-6.4l-0.7-2.8v-5l3.6-5L352.7,315z"/>
<path d="M1006.9,741.7h5.7l3.6,2.1l5,5.7v9.2l-5,5l-5.7,2.1l-6.4-1.4l-5.7-6.4l-0.7-7.1l2.8-5l4.3-3.6L1006.9,741.7z"/>
<path d="M352.7,457.2h5l3.6,1.4l5,5l1.4,6.4l-1.4,5l-5.7,5l-5.7,1.4l-5-1.4l-5.7-6.4l-0.7-2.8v-5l3.6-5l3.6-2.8L352.7,457.2z"/>
<path d="M950,1054.6h5.7l3.6,2.1l5,5.7v8.5l-5,5.7l-5,2.1l-7.1-1.4l-5.7-6.4l-0.7-7.1l2.8-5L950,1054.6z"/>
<path d="M921.6,1026.1h6.4l5.7,5l2.1,2.8v8.5l-2.8,4.3l-4.3,2.8l-4.3,0.7l-5.7-1.4l-3.6-3.6l-2.1-2.8l-0.7-6.4l2.1-4.3l3.6-3.6
	L921.6,1026.1z"/>
<path d="M893.2,485.7l7.8,0.7l5.7,5.7l1.4,6.4l-1.4,5l-5.7,5l-5,1.4l-5.7-1.4l-5.7-6.4l-0.7-2.8v-5l3.6-5l3.6-2.8L893.2,485.7z"/>
<path d="M182.8,457.2l7.1,0.7l5.7,5.7l0.7,1.4v8.5l-2.8,4.3l-4.3,2.8l-5,0.7l-5-1.4l-5.7-6.4l-0.7-6.4l1.4-3.6l2.8-3.6L182.8,457.2z
	"/>
<path d="M494.9,1026.1h5.7l3.6,2.1l5,5.7l0.7,5l-1.4,5l-5.7,5l-1.4,0.7h-7.8l-5.7-5l-1.4-2.1l-0.7-7.1l2.8-5l4.3-3.6L494.9,1026.1z"
	/>
<path d="M154.3,571l7.1,0.7l5.7,5.7l0.7,1.4v8.5l-2.8,4.3l-4.3,2.8l-5,0.7l-5-1.4l-5.7-6.4l-0.7-5.7l1.4-4.3l2.8-3.6L154.3,571z"/>
<path d="M1035.4,542.6h5.7l3.6,2.1l5,5.7l0.7,4.3l-1.4,5.7l-5.7,5l-1.4,0.7h-7.8l-5.7-5l-2.1-5v-5l3.6-5l3.6-2.8L1035.4,542.6z"/>
<path d="M1007.6,514.1h5l3.6,2.1l5,5.7v9.2l-5,5l-5,2.1l-5.7-0.7l-5.7-5l-1.4-2.1l-0.7-6.4l2.8-5.7l5-3.6L1007.6,514.1z"/>
<path d="M210.5,457.2h5.7l3.6,2.1l5,5.7l0.7,5l-1.4,5l-5.7,5l-5,1.4l-5.7-1.4l-5.7-6.4l-0.7-7.1l2.8-5l4.3-3.6L210.5,457.2z"/>
<path d="M352.7,286.6h6.4l5.7,5l2.1,2.8l0.7,4.3l-1.4,5.7l-5.7,5l-5.7,1.4l-5-1.4l-5.7-6.4l-0.7-7.1l2.1-3.6l5.7-5L352.7,286.6z"/>
<path d="M466.5,798.6h5l3.6,1.4l5.7,6.4v8.5l-5,5.7l-5.7,2.1l-6.4-1.4l-5.7-6.4l-0.7-2.8v-5l3.6-5l3.6-2.8L466.5,798.6z"/>
<path d="M1006.9,711.1h5.7l3.6,2.1l5,5.7v9.2l-5,5l-2.8,1.4h-7.8l-5.7-5l-2.1-5v-5l3.6-5L1006.9,711.1z"/>
<path d="M1006.9,542.6h6.4l5.7,5l2.1,2.8v8.5l-2.8,4.3l-4.3,2.8l-4.3,0.7l-5.7-1.4l-5.7-6.4l-0.7-6.4l2.1-4.3l3.6-3.6L1006.9,542.6z
	"/>
<path d="M438,542.6h5.7l3.6,2.1l5,5.7l0.7,5l-1.4,5l-5.7,5l-3.6,1.4l-6.4-1.4l-5-4.3l-2.1-5l0.7-6.4l2.8-3.6L438,542.6z"/>
<path d="M324.3,457.2h5.7l3.6,2.1l5,5.7v8.5l-5,5.7l-2.1,1.4l-4.3,0.7l-5.7-1.4l-5.7-6.4l-0.7-6.4l1.4-3.6l5.7-5.7L324.3,457.2z"/>
<path d="M978.5,400.4h5.7l3.6,2.1l5,5.7l0.7,4.3l-1.4,5.7l-5.7,5l-1.4,0.7h-7.8l-5.7-5l-2.1-5l0.7-6.4l2.8-3.6l3.6-2.8L978.5,400.4z
	"/>
<path d="M950.8,400.4l7.1,0.7l5.7,5.7l0.7,1.4v9.2l-5,5l-6.4,2.1l-5.7-1.4l-5.7-6.4l-0.7-7.1l2.8-5l5-3.6L950.8,400.4z"/>
<path d="M381.2,343.5h5l4.3,2.1l5,5.7v8.5l-5,5.7l-6.4,2.1l-5.7-1.4l-5.7-6.4l-0.7-7.1l2.8-5l4.3-3.6L381.2,343.5z"/>
<path d="M381.9,315h5l3.6,2.1l5,5.7v9.2l-5,5l-2.8,1.4h-7.8l-5.7-5l-2.1-5l0.7-6.4l3.6-4.3L381.9,315z"/>
<path d="M581,229.7h5.7l5.7,5l2.1,2.8v8.5l-2.8,4.3l-4.3,2.8l-4.3,0.7l-5.7-1.4l-5-5l-1.4-5l0.7-5.7l2.8-3.6l4.3-2.8L581,229.7z"/>
<path d="M1006.9,912.4h5.7l3.6,2.1l5,5.7v8.5l-5,5.7l-2.1,1.4h-8.5l-5.7-5l-1.4-2.1l-0.7-6.4l1.4-3.6l5.7-5.7L1006.9,912.4z"/>
<path d="M836.3,827h5.7l3.6,2.1l5,5.7v9.2l-5,5l-6.4,2.1l-6.4-2.1l-5-5.7l-0.7-7.1l2.1-3.6l3.6-3.6L836.3,827z"/>
<path d="M1064.5,798.6l7.1,0.7l5.7,5.7l0.7,1.4v8.5l-5,5.7l-6.4,2.1l-5.7-1.4l-5.7-6.4l-0.7-7.1l2.8-5l5-3.6L1064.5,798.6z"/>
<path d="M1006.9,798.6l7.8,0.7l5.7,5.7l0.7,1.4v8.5l-5,5.7l-2.1,1.4l-4.3,0.7l-5.7-1.4l-5.7-6.4l-0.7-7.1l2.1-3.6l3.6-3.6
	L1006.9,798.6z"/>
<path d="M182,627.9h5l4.3,2.1l5,5.7v9.2l-5,5l-6.4,2.1l-5.7-1.4l-5.7-6.4l-0.7-7.1l2.8-5l4.3-3.6L182,627.9z"/>
<path d="M1063.8,514.1l7.1,0.7l5.7,5l1.4,2.1v8.5l-5,5.7l-5,2.1l-7.1-1.4l-5.7-6.4l-0.7-7.1l2.1-3.6l3.6-3.6L1063.8,514.1z"/>
<path d="M352.7,428.8l7.1,0.7l5.7,5l1.4,2.1v9.2l-5,5l-5.7,2.1l-6.4-1.4l-5.7-6.4l-0.7-7.1l2.8-5l4.3-3.6L352.7,428.8z"/>
<path d="M238.9,428.8h5.7l3.6,2.1l5,5.7v9.2l-5,5l-2.8,1.4h-7.1l-3.6-2.1l-4.3-5l-0.7-7.1l2.8-5l4.3-3.6L238.9,428.8z"/>
<path d="M325,343.5h5l3.6,2.1l5,5.7v9.2l-5,5l-5.7,2.1l-6.4-1.4l-5.7-6.4l-0.7-5.7l1.4-4.3l2.8-3.6L325,343.5z"/>
<path d="M494.9,940.8l7.8,0.7l5.7,5.7l0.7,1.4v8.5l-5,5.7l-2.1,1.4l-4.3,0.7l-5.7-1.4l-5.7-6.4l-0.7-6.4l1.4-3.6l5.7-5.7
	L494.9,940.8z"/>
<path d="M352.7,912.4h6.4l5.7,5l2.1,2.8v8.5l-5,5.7l-5,2.1l-6.4-1.4l-5-4.3l-2.1-5v-4.3l2.8-4.3l5-4.3L352.7,912.4z"/>
<path d="M807.8,855.5l7.8,0.7l5.7,5.7l0.7,1.4v8.5l-5,5.7l-2.1,1.4l-4.3,0.7l-5.7-1.4l-5.7-6.4l-0.7-6.4l1.4-3.6l5.7-5.7
	L807.8,855.5z"/>
<path d="M466.5,855.5l7.1,0.7l5.7,5l1.4,2.1l0.7,5l-1.4,5l-5.7,5l-5,1.4l-6.4-2.1l-5-5.7l-0.7-7.1l2.8-5l4.3-3.6L466.5,855.5z"/>
<path d="M1035.4,770.1l7.1,0.7l5.7,5l1.4,2.1l0.7,4.3l-1.4,5.7l-5.7,5l-1.4,0.7h-7.8l-5.7-5l-2.1-5l0.7-6.4l2.8-3.6l3.6-2.8
	L1035.4,770.1z"/>
<path d="M1035.4,741.7l7.1,0.7l5.7,5l1.4,2.1l0.7,5l-1.4,5l-5.7,5l-5,1.4l-5.7-1.4l-5.7-6.4l-0.7-7.1l2.8-5l4.3-3.6L1035.4,741.7z"
	/>
<path d="M922.3,400.4h5l3.6,2.1l5,5.7v8.5L933,421l-4.3,2.8l-4.3,0.7l-5.7-1.4l-5.7-6.4l-0.7-6.4l2.1-4.3l3.6-3.6L922.3,400.4z"/>
<path d="M950.8,1026.1l6.4,0.7l5.7,5l1.4,2.1v9.2l-5,5l-5.7,2.1l-6.4-1.4l-5.7-6.4l-0.7-6.4l1.4-3.6l2.8-3.6L950.8,1026.1z"/>
<path d="M467.2,1026.1l7.1,0.7l5.7,5.7l0.7,1.4v8.5l-5,5.7l-2.1,1.4h-8.5l-5.7-5l-1.4-2.1l-0.7-6.4l1.4-3.6l3.6-3.6l2.8-2.1
	L467.2,1026.1z"/>
<path d="M923,912.4l6.4,0.7l5.7,5.7l1.4,6.4l-1.4,5l-5.7,5l-5.7,1.4l-5.7-2.1l-5-5.7l-0.7-6.4l1.4-3.6l2.8-3.6l3.6-2.1L923,912.4z"
	/>
<path d="M836.3,855.5l7.1,0.7l5.7,5l1.4,2.1v8.5l-5,5.7l-2.1,1.4h-8.5l-5.7-5l-1.4-2.1l-0.7-7.1l2.1-3.6l3.6-3.6L836.3,855.5z"/>
<path d="M466.5,827h5l3.6,1.4l5.7,6.4v9.2l-6.4,5.7l-1.4,0.7h-7.1l-3.6-2.1l-4.3-5l-0.7-2.8v-5l3.6-5L466.5,827z"/>
<path d="M381.2,457.2l7.1,0.7l5.7,5l1.4,2.1v8.5l-5,5.7l-6.4,2.1l-5.7-1.4l-5.7-6.4l-0.7-7.1l2.8-5l4.3-3.6L381.2,457.2z"/>
<path d="M807.8,400.4l7.8,0.7l5,5l1.4,2.1v8.5l-5,5.7l-2.1,1.4l-4.3,0.7l-5.7-1.4l-5.7-6.4l-0.7-6.4l1.4-3.6l5.7-5.7L807.8,400.4z"
	/>
<path d="M722.5,400.4h5.7l3.6,2.1l5,5.7l0.7,5l-1.4,5l-5.7,5l-1.4,0.7h-7.1l-3.6-2.1l-4.3-5l-0.7-7.1l2.1-3.6l3.6-3.6L722.5,400.4z"
	/>
<path d="M637.2,400.4l7.8,0.7l5,5l1.4,2.1v8.5l-5,5.7l-2.1,1.4l-4.3,0.7l-5.7-1.4l-5.7-6.4l-0.7-6.4l1.4-3.6l5.7-5.7L637.2,400.4z"
	/>
<path d="M352.7,400.4h5l4.3,2.1l5,5.7v8.5l-5,5.7l-2.8,1.4h-7.8l-5-4.3l-2.1-2.8l-0.7-2.8v-5l3.6-5l3.6-2.8L352.7,400.4z"/>
<path d="M238.9,400.4h6.4l5.7,5l2.1,2.8v8.5l-5,5.7l-2.8,1.4h-7.8l-5.7-5l-2.1-5l0.7-6.4l2.8-3.6L238.9,400.4z"/>
<path d="M523.4,343.5l7.8,0.7l5.7,5.7l0.7,1.4v8.5l-5,5.7l-2.1,1.4H522l-5.7-5l-1.4-2.1l-0.7-7.1l2.1-3.6l3.6-3.6L523.4,343.5z"/>
<path d="M950,1083h5.7l3.6,2.1l5,5.7v8.5l-4.3,5l-3.6,2.1h-7.1l-4.3-2.8l-3.6-4.3l-0.7-7.1l2.8-5L950,1083z"/>
<path d="M950,912.4l7.8,0.7l5,5l1.4,2.1v8.5l-5,5.7l-2.1,1.4l-4.3,0.7l-5.7-1.4l-5.7-6.4l-0.7-5.7l1.4-4.3l5.7-5.7L950,912.4z"/>
<path d="M381.2,912.4h5l4.3,2.1l5,5.7v8.5l-5,5.7l-2.8,1.4h-7.8l-5.7-5l-2.1-5v-5l3.6-5l3.6-2.8L381.2,912.4z"/>
<path d="M438.8,855.5l7.1,0.7l5.7,5.7l0.7,1.4v8.5l-5,5.7l-6.4,2.1l-5.7-1.4l-5.7-6.4l-0.7-5.7l1.4-4.3l2.8-3.6L438.8,855.5z"/>
<path d="M808.5,827l7.1,0.7l5.7,5.7l0.7,1.4v9.2l-5,5l-2.8,1.4h-7.1l-3.6-2.1l-4.3-5.7l-0.7-6.4l2.8-5l5-3.6L808.5,827z"/>
<path d="M1007.6,684.8l6.4,0.7l5.7,5l1.4,2.1v8.5l-5,5.7l-5.7,2.1l-6.4-1.4l-5.7-6.4l-0.7-6.4l1.4-3.6l3.6-3.6l2.8-2.1L1007.6,684.8
	z"/>
<path d="M154.3,627.9l6.4,0.7l5.7,5l1.4,2.1v9.2l-5,5l-6.4,2.1l-5.7-1.4l-5.7-6.4l-0.7-6.4l1.4-3.6l2.8-3.6L154.3,627.9z"/>
<path d="M182,599.5h5l4.3,2.1l5,5.7v8.5l-5,5.7l-2.8,1.4h-7.8l-5-4.3l-2.8-5v-5l2.1-3.6l3.6-3.6L182,599.5z"/>
<path d="M950,457.2l7.1,0.7l5.7,5l1.4,2.1v8.5l-5,5.7l-2.1,1.4l-4.3,0.7l-5.7-1.4l-5.7-6.4l-0.7-6.4l1.4-3.6l5.7-5.7L950,457.2z"/>
<path d="M922.3,457.2l7.1,0.7l5.7,5.7l0.7,1.4v8.5l-5,5.7l-2.8,1.4h-7.1l-3.6-2.1l-4.3-5l-0.7-6.4l1.4-3.6l2.8-3.6L922.3,457.2z"/>
<path d="M893.9,457.2l7.1,0.7l5,5l1.4,2.1v9.2l-5,5l-6.4,2.1l-5.7-1.4l-5.7-6.4l-0.7-5.7l1.4-4.3l2.8-3.6L893.9,457.2z"/>
<path d="M950,428.8h5.7l3.6,2.1l5,5.7v8.5l-4.3,5l-3.6,2.1h-7.1l-3.6-2.1l-4.3-5l-0.7-7.1l2.1-3.6l3.6-3.6L950,428.8z"/>
<path d="M325,428.8l7.1,0.7l5.7,5.7l0.7,1.4v9.2l-5,5l-2.8,1.4h-7.1l-3.6-2.1l-4.3-5.7L315,438l2.8-5l5-3.6L325,428.8z"/>
<path d="M750.9,400.4l7.1,0.7l5.7,5l1.4,2.1v8.5l-5,5.7l-2.1,1.4l-4.3,0.7l-5.7-1.4l-5.7-6.4l-0.7-6.4l1.4-3.6l5.7-5.7L750.9,400.4z
	"/>
<path d="M381.2,371.9l7.1,0.7l5.7,5l1.4,2.1v8.5l-5,5.7l-2.1,1.4h-8.5l-5.7-5l-1.4-2.1l-0.7-7.1l2.8-5l4.3-3.6L381.2,371.9z"/>
<path d="M409.6,315h5l4.3,2.1l5,5.7v8.5l-5,5.7l-2.8,1.4h-7.8l-5.7-5l-2.1-5l0.7-6.4l2.8-3.6l3.6-2.8L409.6,315z"/>
<path d="M610.1,229.7l6.4,0.7l5.7,5.7l0.7,1.4v8.5l-5,5.7l-2.8,1.4h-7.8l-5.7-5l-2.1-5l0.7-6.4l3.6-4.3l3.6-2.1L610.1,229.7z"/>
<path d="M979.2,1026.1l6.4,0.7l5.7,5l1.4,2.8v8.5l-5,5l-6.4,2.1l-5.7-1.4l-5.7-6.4l-0.7-6.4l1.4-3.6l2.8-3.6L979.2,1026.1z"/>
<path d="M523.4,1026.1l7.1,0.7l5.7,5l1.4,2.1v8.5l-5,5.7l-2.1,1.4H522l-5.7-5l-1.4-2.1l-0.7-6.4l1.4-3.6l5.7-5.7L523.4,1026.1z"/>
<path d="M1036.1,997.7h5.7l5.7,5l2.1,2.8v8.5l-4.3,5l-3.6,2.1h-7.1l-3.6-2.1l-4.3-5l-0.7-7.1l2.8-5l5-3.6L1036.1,997.7z"/>
<path d="M1065.2,741.7l7.1,1.4l5,5.7l0.7,1.4v7.8l-2.8,4.3l-4.3,2.8l-5,0.7l-5-1.4l-5.7-6.4l-0.7-5.7l1.4-4.3l2.8-3.6l3.6-2.1
	L1065.2,741.7z"/>
<path d="M864.7,741.7l7.8,0.7l5,5l1.4,2.1v8.5l-5,5.7l-2.1,1.4h-8.5l-5.7-5l-1.4-2.1l-0.7-5.7l1.4-4.3l5.7-5.7L864.7,741.7z"/>
<path d="M324.3,741.7l7.1,0.7l5.7,5l1.4,2.1v8.5l-5,5.7l-2.1,1.4h-8.5l-5.7-5l-1.4-2.1l-0.7-6.4l1.4-3.6l5.7-5.7L324.3,741.7z"/>
<path d="M153.6,656.4l7.1,0.7l5.7,5l1.4,2.1v8.5l-5,5.7l-6.4,2.1l-5.7-1.4l-5-5.7l-1.4-4.3l0.7-5.7l2.8-3.6l3.6-2.8L153.6,656.4z"/>
<path d="M1035.4,571h5l3.6,1.4l5.7,6.4v8.5l-4.3,5l-3.6,2.1h-7.1l-3.6-2.1l-4.3-5l-0.7-7.1l2.8-5l4.3-3.6L1035.4,571z"/>
<path d="M438.8,485.7l7.1,0.7l5.7,5.7l0.7,1.4v8.5l-4.3,5l-3.6,2.1l-3.6,0.7l-6.4-2.1l-5-5.7l-0.7-7.1l2.8-5l5-3.6L438.8,485.7z"/>
<path d="M238.9,457.2l7.1,0.7l5.7,5l1.4,2.1v8.5l-5,5.7l-2.1,1.4h-8.5l-5.7-5l-1.4-2.1l-0.7-6.4l1.4-3.6l5.7-5.7L238.9,457.2z"/>
<path d="M665.6,400.4h5l4.3,2.1l5,5.7v8.5l-5,5.7l-2.8,1.4h-7.8l-5.7-5l-1.4-2.1l-0.7-7.1l2.1-3.6l3.6-3.6L665.6,400.4z"/>
<path d="M409.6,343.5l7.1,0.7l5.7,5l1.4,2.1l0.7,5l-1.4,5l-5.7,5l-1.4,0.7h-7.1l-3.6-2.1l-4.3-5l-0.7-7.1l2.8-5l4.3-3.6L409.6,343.5
	z"/>
<path d="M523.4,315l7.8,0.7l5,5l1.4,2.1v8.5l-5,5.7l-2.8,1.4H522l-5.7-5l-2.1-5l0.7-6.4l2.8-3.6L523.4,315z"/>
<path d="M495.6,315l7.1,0.7l5.7,5.7l0.7,1.4v8.5l-5,5.7l-2.1,1.4h-8.5l-5-4.3l-2.1-2.8l-0.7-6.4l2.8-5.7l5-3.6L495.6,315z"/>
<path d="M893.2,229.7l7.1,0.7l5.7,5l1.4,2.1v8.5l-5,5.7l-2.1,1.4h-8.5l-5.7-5l-1.4-2.1l-0.7-6.4l1.4-3.6l5.7-5.7L893.2,229.7z"/>
<path d="M864.7,201.2h5.7l4.3,2.8l4.3,5v8.5l-5,5.7l-6.4,2.1l-5.7-1.4l-5-5.7l-1.4-4.3l0.7-5.7l2.8-3.6L864.7,201.2z"/>
<path d="M1035.4,1026.1l7.8,0.7l5.7,5.7l0.7,1.4v8.5l-5,5.7l-2.1,1.4h-7.8l-3.6-2.1l-4.3-5l-0.7-5.7l1.4-4.3l5.7-5.7L1035.4,1026.1z
	"/>
<path d="M1036.1,969.2h5l3.6,2.1l4.3,5l0.7,1.4v7.8l-5,5.7l-6.4,2.1l-5.7-1.4l-5.7-6.4l-0.7-7.1l3.6-5.7l4.3-2.8L1036.1,969.2z"/>
<path d="M353.4,940.8h5.7l5.7,5l2.1,2.8v8.5l-5,5.7l-2.8,1.4H352l-4.3-2.8l-3.6-4.3l-0.7-7.1l2.1-3.6l5.7-5L353.4,940.8z"/>
<path d="M354.1,883.9l6.4,0.7l5.7,5.7l0.7,1.4v9.2l-5,5l-5,2.1l-6.4-1.4l-5-4.3l-1.4-2.1l-0.7-6.4l2.1-4.3l3.6-3.6L354.1,883.9z"/>
<path d="M780.1,855.5l7.1,0.7l5.7,5.7l1.4,6.4l-1.4,5l-5.7,5l-1.4,0.7h-7.1l-4.3-2.8l-3.6-4.3l-0.7-6.4l1.4-3.6l3.6-3.6l2.8-2.1
	L780.1,855.5z"/>
<path d="M836.3,798.6h5.7l3.6,2.1l5,5.7v8.5l-5,5.7l-2.8,1.4h-7.1l-3.6-2.1l-4.3-5l-0.7-7.1l2.1-3.6l3.6-3.6L836.3,798.6z"/>
<path d="M411,798.6l6.4,0.7l5.7,5.7l0.7,1.4v8.5l-5,5.7l-2.1,1.4l-4.3,0.7l-5.7-1.4l-5-5.7l-1.4-6.4l1.4-4.3l3.6-3.6l2.8-2.1
	L411,798.6z"/>
<path d="M836.3,770.1h5.7l3.6,2.1l5,5.7v8.5l-5,5.7l-6.4,2.1l-6.4-2.1l-5-5.7l-0.7-7.1l2.8-4.3l5-4.3L836.3,770.1z"/>
<path d="M297.2,741.7l6.4,0.7l5.7,5.7l0.7,1.4v8.5l-5,5.7l-2.1,1.4h-8.5l-5.7-5l-1.4-2.1l-0.7-5.7l1.4-4.3l3.6-3.6l2.8-2.1
	L297.2,741.7z"/>
<path d="M182,656.4l7.1,0.7l5.7,5l1.4,2.1l0.7,5l-1.4,5l-5.7,5l-1.4,0.7h-7.1l-3.6-2.1l-4.3-5l-0.7-7.1l2.8-5l4.3-3.6L182,656.4z"/>
<path d="M893.2,542.6l7.8,0.7l5,5l1.4,2.8v7.8l-5,5.7l-2.1,1.4h-8.5l-5.7-5l-1.4-2.1l-0.7-6.4l1.4-3.6l5.7-5.7L893.2,542.6z"/>
<path d="M211.2,428.8l7.1,0.7l5.7,5.7l0.7,1.4v9.2l-6.4,5.7l-1.4,0.7h-7.1l-3.6-2.1l-4.3-5.7l-0.7-6.4l2.8-5l5-3.6L211.2,428.8z"/>
<path d="M780.1,400.4l7.1,0.7l5.7,5.7l1.4,6.4l-1.4,5l-5.7,5l-1.4,0.7h-7.1l-3.6-2.1l-4.3-5l-0.7-6.4l1.4-3.6l2.8-3.6L780.1,400.4z"
	/>
<path d="M551.8,343.5l7.1,0.7l5.7,5l1.4,2.1v8.5l-5,5.7l-2.1,1.4h-8.5l-5.7-5l-1.4-2.1l-0.7-7.1l2.1-3.6l3.6-3.6L551.8,343.5z"/>
<path d="M438,343.5l7.1,0.7l5.7,5l1.4,2.1v8.5l-5,5.7l-2.1,1.4h-8.5l-5.7-5l-1.4-2.1l-0.7-6.4l1.4-3.6l5.7-5.7L438,343.5z"/>
<path d="M581,201.2h5l3.6,2.1l5,5.7v8.5l-5,5.7l-5.7,2.1l-6.4-1.4l-5.7-6.4l-0.7-6.4l2.1-4.3l5.7-5L581,201.2z"/>
<path d="M1007.6,1026.1l7.1,0.7l5.7,5.7l0.7,1.4v8.5l-4.3,5l-3.6,2.1h-7.1l-3.6-2.1l-4.3-5l-0.7-5.7l1.4-4.3l2.8-3.6L1007.6,1026.1z
	"/>
<path d="M353.4,969.2h5l3.6,2.1l5,5.7v8.5l-5,5.7l-2.1,1.4H352l-3.6-2.1l-4.3-5l-0.7-5.7l1.4-4.3l5-5L353.4,969.2z"/>
<path d="M381.2,940.8l7.1,0.7l5.7,5l1.4,2.1l0.7,5l-1.4,5l-5.7,5l-1.4,0.7h-7.1l-4.3-2.8l-3.6-4.3l-0.7-7.1l2.8-5l4.3-3.6
	L381.2,940.8z"/>
<path d="M524.1,883.9l6.4,0.7l5.7,5l1.4,2.1l0.7,5l-1.4,5l-5.7,5l-1.4,0.7h-7.1l-4.3-2.8l-3.6-5l-0.7-6.4l2.8-5l5-3.6L524.1,883.9z"
	/>
<path d="M381.2,883.9h5l3.6,1.4l5.7,6.4v8.5l-5,5.7l-2.8,1.4h-7.1l-4.3-2.8l-3.6-4.3l-0.7-6.4l1.4-3.6l5.7-5.7L381.2,883.9z"/>
<path d="M410.3,855.5l6.4,0.7l5.7,5l1.4,2.1v8.5l-5,5.7l-2.1,1.4h-8.5l-5.7-5l-1.4-2.1l-0.7-5.7l1.4-4.3l3.6-3.6l2.8-2.1
	L410.3,855.5z"/>
<path d="M1092.3,798.6l7.1,0.7l5.7,5l1.4,2.1v8.5l-4.3,5l-3.6,2.1h-7.1l-3.6-2.1l-4.3-5l-0.7-6.4l1.4-3.6l5.7-5.7L1092.3,798.6z"/>
<path d="M438,514.1l7.8,0.7l5,5l1.4,2.1v8.5l-5,5.7l-2.8,1.4h-7.8l-5.7-5l-2.1-5l0.7-6.4l5.7-5.7L438,514.1z"/>
<path d="M837,485.7l7.1,0.7l5.7,5.7l0.7,1.4v8.5l-5,5.7l-2.1,1.4h-8.5l-5-4.3l-2.1-3.6l-0.7-5l2.1-5l3.6-3.6L837,485.7z"/>
<path d="M352.7,485.7l7.8,0.7l5.7,5.7l0.7,1.4v8.5l-5,5.7l-2.8,1.4H352l-3.6-2.1l-4.3-5l-0.7-6.4l1.4-3.6l3.6-3.6L352.7,485.7z"/>
<path d="M267.4,457.2l7.1,0.7l5.7,5l1.4,2.1v8.5l-5,5.7l-2.1,1.4h-7.8l-3.6-2.1l-4.3-5l-0.7-5.7l1.4-4.3l5.7-5.7L267.4,457.2z"/>
<path d="M978.5,428.8h5l4.3,2.1l5,5.7v8.5l-5,5.7l-2.8,1.4h-7.1l-3.6-2.1l-4.3-5l-0.7-7.1l2.1-3.6l3.6-3.6L978.5,428.8z"/>
<path d="M381.2,258.1l7.1,0.7l5.7,5l1.4,2.1v8.5l-5,5.7l-2.8,1.4h-7.8l-5.7-5l-1.4-2.1l-0.7-7.1l2.1-3.6l5-5L381.2,258.1z"/>
<path d="M353.4,258.1l7.1,0.7l5.7,5.7l1.4,6.4l-1.4,5l-5.7,5l-5,1.4l-6.4-2.1l-5-5.7l-0.7-7.1l2.1-3.6l5.7-5L353.4,258.1z"/>
<path d="M893.2,201.2l7.1,0.7l5.7,5l1.4,2.1v8.5l-5,5.7l-2.8,1.4h-7.8l-5-4.3l-2.1-2.8l-0.7-6.4l1.4-3.6l5.7-5.7L893.2,201.2z"/>
<path d="M978.5,1054.6l7.1,0.7l5.7,5l1.4,2.1v8.5l-4.3,5l-3.6,2.1h-7.1l-3.6-2.1l-4.3-5l-0.7-7.1l2.1-3.6l3.6-3.6L978.5,1054.6z"/>
<path d="M637.9,1026.1l7.1,0.7l5.7,5.7l0.7,1.4v8.5l-5,5.7l-2.8,1.4h-7.1l-3.6-2.1l-4.3-5l-0.7-6.4l1.4-3.6l3.6-3.6l2.8-2.1
	L637.9,1026.1z"/>
<path d="M779.4,997.7l7.8,0.7l5,5l1.4,2.8v7.8l-5,5.7l-2.1,1.4h-7.8l-3.6-2.1l-4.3-5l-0.7-5.7l1.4-4.3l5.7-5.7L779.4,997.7z"/>
<path d="M921.6,940.8l7.1,0.7l5.7,5l1.4,2.1v8.5l-4.3,5l-3.6,2.1l-3.6,0.7l-6.4-2.1l-5-5.7l-0.7-7.1l2.1-3.6l3.6-3.6L921.6,940.8z"
	/>
<path d="M494.9,855.5l7.1,0.7l5.7,5l1.4,2.1v8.5l-5,5.7l-2.8,1.4h-7.8l-5.7-5l-1.4-2.1l-0.7-6.4l1.4-3.6l5.7-5.7L494.9,855.5z"/>
<path d="M1063.8,827l7.1,0.7l5.7,5l1.4,2.1v8.5l-4.3,5l-3.6,2.1h-7.1l-3.6-2.1l-4.3-5l-0.7-7.1l2.1-3.6l3.6-3.6L1063.8,827z"/>
<path d="M979.2,741.7h5l3.6,2.1l5,5.7v9.2l-5,5l-2.8,1.4h-7.1l-3.6-2.1l-4.3-5.7l-0.7-5.7l2.1-4.3l3.6-3.6L979.2,741.7z"/>
<path d="M268.1,741.7l7.1,0.7l5,5l1.4,2.1v8.5l-5,5.7l-2.1,1.4H266l-5.7-5l-1.4-2.1l-0.7-5l1.4-5l3.6-3.6l2.8-2.1L268.1,741.7z"/>
<path d="M979.2,684.8l7.1,0.7l5,5l1.4,2.1v8.5l-2.8,4.3l-4.3,2.8l-4.3,0.7l-5.7-1.4l-5-5.7l-0.7-1.4v-8.5l2.8-3.6l4.3-2.8
	L979.2,684.8z"/>
<path d="M864.7,571l7.1,0.7l5.7,5l1.4,2.1v8.5l-5.7,6.4l-1.4,0.7h-8.5l-5.7-5l-1.4-2.1l-0.7-5.7l1.4-4.3l5.7-5.7L864.7,571z"/>
<path d="M410.3,542.6l7.1,0.7l5.7,5.7l0.7,1.4v8.5l-5,5.7l-2.1,1.4h-8.5l-5-4.3l-2.1-3.6l-0.7-5l2.1-5l3.6-3.6L410.3,542.6z"/>
<path d="M978.5,457.2l7.1,0.7l5.7,5l1.4,2.1v8.5l-5,5.7l-2.8,1.4h-7.1l-3.6-2.1l-4.3-5l-0.7-6.4l1.4-3.6l5.7-5.7L978.5,457.2z"/>
<path d="M297.2,457.2l6.4,0.7l5.7,5.7l0.7,1.4v8.5l-5,5.7l-2.1,1.4h-7.8l-3.6-2.1l-4.3-5l-0.7-5.7l1.4-4.3l2.8-3.6l3.6-2.1
	L297.2,457.2z"/>
<path d="M837.7,400.4l6.4,0.7l5.7,5.7l0.7,1.4v8.5l-5,5.7l-2.1,1.4h-7.8l-3.6-2.1l-4.3-5L827,411l1.4-4.3l2.8-3.6l3.6-2.1
	L837.7,400.4z"/>
<path d="M864.7,229.7l7.1,0.7l5.7,5l1.4,2.1v8.5l-5,5.7l-2.8,1.4H864l-3.6-2.1l-4.3-5l-0.7-6.4l1.4-3.6l3.6-3.6L864.7,229.7z"/>
<path d="M922.3,997.7l7.1,0.7l5,5l1.4,2.1v8.5l-5,5.7l-6.4,2.1l-6.4-2.1l-5-5.7l-0.7-6.4l2.1-4.3l5.7-5L922.3,997.7z"/>
<path d="M466.5,969.2l7.1,0.7l5.7,5l1.4,2.1v8.5l-5,5.7l-2.1,1.4h-8.5l-5.7-5l-1.4-2.1l-0.7-6.4l1.4-3.6l5-5L466.5,969.2z"/>
<path d="M381.2,969.2l7.1,0.7l5.7,5l1.4,2.1l0.7,4.3l-1.4,5l-4.3,5l-2.8,1.4h-7.1l-4.3-2.8l-3.6-4.3l-0.7-7.1l2.1-3.6l5-5
	L381.2,969.2z"/>
<path d="M1035.4,940.8h5l4.3,2.1l4.3,5l0.7,1.4v7.8l-4.3,5l-3.6,2.1l-3.6,0.7l-6.4-2.1l-5-5.7l-0.7-7.1l2.1-3.6l3.6-3.6
	L1035.4,940.8z"/>
<path d="M780.1,940.8l7.1,0.7l5.7,5.7l0.7,1.4v8.5l-5,5.7l-2.8,1.4h-7.1l-4.3-2.8l-3.6-4.3l-0.7-6.4l1.4-3.6l3.6-3.6l2.8-2.1
	L780.1,940.8z"/>
<path d="M979.9,912.4l6.4,0.7l5.7,5.7l0.7,1.4v8.5l-5,5.7l-2.1,1.4h-8.5l-5.7-5l-2.1-6.4l0.7-5l2.8-3.6l4.3-2.8L979.9,912.4z"/>
<path d="M438,883.9l7.1,0.7l5.7,5l1.4,2.1v8.5l-5,5.7l-2.8,1.4h-7.1l-3.6-2.1l-4.3-5l-0.7-6.4l2.1-4.3l3.6-3.6L438,883.9z"/>
<path d="M297.2,798.6l6.4,0.7l5,5l1.4,2.1v8.5l-2.8,4.3l-4.3,2.8l-4.3,0.7l-5.7-1.4l-5.7-6.4v-9.2l2.8-3.6l4.3-2.8L297.2,798.6z"/>
<path d="M1092.3,770.1l7.1,0.7l5.7,5l1.4,2.8v7.8l-4.3,5l-3.6,2.1h-7.1l-3.6-2.1l-4.3-5l-0.7-7.1l2.8-5L1092.3,770.1z"/>
<path d="M211.9,627.9l5.7,0.7l5.7,5l1.4,2.1v8.5l-4.3,5l-3.6,2.1h-7.1l-3.6-2.1l-4.3-5l-0.7-6.4l1.4-3.6l2.8-3.6l3.6-2.1
	L211.9,627.9z"/>
<path d="M1008.4,599.5l6.4,0.7l5.7,5.7l0.7,1.4v8.5l-4.3,5l-3.6,2.1h-7.1l-4.3-2.8l-3.6-4.3l-0.7-6.4l1.4-3.6l2.8-3.6l3.6-2.1
	L1008.4,599.5z"/>
<path d="M978.5,599.5l7.8,0.7l5,5l1.4,2.1v8.5l-5,5.7l-2.1,1.4h-7.8l-3.6-2.1l-3.6-4.3l-1.4-5.7l1.4-5l5.7-5.7L978.5,599.5z"/>
<path d="M893.2,514.1h5l4.3,2.1l5,5.7v8.5l-4.3,5l-3.6,2.1h-7.1l-3.6-2.1l-4.3-5l-0.7-7.1l2.1-3.6l5-5L893.2,514.1z"/>
<path d="M921.6,485.7l7.1,0.7l5.7,5l1.4,2.1v7.8l-2.8,4.3l-3.6,2.8l-1.4,0.7h-7.8l-5.7-5l-1.4-2.1l-0.7-6.4l1.4-3.6l5.7-5.7
	L921.6,485.7z"/>
<path d="M723.9,371.9l5.7,0.7l5.7,5l1.4,2.1v8.5l-5,5.7l-6.4,2.1l-6.4-2.1l-5-5.7l-0.7-6.4l1.4-3.6l3.6-3.6l2.8-2.1L723.9,371.9z"/>
<path d="M239.6,371.9l6.4,0.7l5.7,5l1.4,2.1v8.5l-5,5.7l-5,2.1l-6.4-1.4l-5-4.3l-2.1-5l0.7-5.7l5-5.7L239.6,371.9z"/>
<path d="M608.7,258.1l7.1,0.7l5.7,5l1.4,2.8v7.8l-5,5.7l-2.8,1.4h-7.8l-5.7-5l-1.4-2.1l-0.7-6.4l1.4-3.6l5.7-5.7L608.7,258.1z"/>
<path d="M1092.3,1111.5l7.1,0.7l5.7,5l1.4,2.1v8.5l-5,5.7l-2.8,1.4h-7.1l-3.6-2.1l-4.3-5l-0.7-5.7l1.4-4.3l5.7-5.7L1092.3,1111.5z"
	/>
<path d="M922.3,969.2h5l3.6,2.1l5,5.7v8.5l-5,5.7l-6.4,2.1l-6.4-2.1l-5-5.7l-0.7-6.4l2.1-4.3l5.7-5L922.3,969.2z"/>
<path d="M523.4,940.8l7.1,0.7l5.7,5l1.4,2.8v7.1l-2.8,4.3l-3.6,2.8l-1.4,0.7H522l-5.7-5l-1.4-2.1l-0.7-7.1l2.1-3.6l5-5L523.4,940.8z
	"/>
<path d="M1008.4,883.9l6.4,0.7l5.7,5.7l0.7,1.4v8.5l-5,5.7l-2.8,1.4h-7.1l-3.6-2.1l-4.3-5.7l-0.7-5.7l2.1-4.3l3.6-3.6L1008.4,883.9z
	"/>
<path d="M779.4,883.9l7.8,0.7l5,5l1.4,2.1v8.5l-5,5.7l-2.8,1.4H778l-5.7-5l-1.4-2.1l-0.7-6.4l2.1-4.3l5.7-5L779.4,883.9z"/>
<path d="M551.8,883.9l7.1,0.7l5.7,5l1.4,2.1v8.5l-5,5.7l-2.1,1.4h-7.8l-3.6-2.1l-4.3-5l-0.7-5.7l1.4-4.3l5.7-5.7L551.8,883.9z"/>
<path d="M466.5,883.9l7.1,0.7l5.7,5l1.4,2.8v7.8l-5,5.7l-2.8,1.4h-7.8l-5.7-5l-1.4-2.1l-0.7-6.4l1.4-3.6l5.7-5.7L466.5,883.9z"/>
<path d="M864.7,855.5l7.1,0.7l5.7,5l1.4,2.8v7.8l-5,5.7l-2.8,1.4H864l-4.3-2.8l-3.6-4.3l-0.7-7.1l2.1-3.6l3.6-3.6L864.7,855.5z"/>
<path d="M325,798.6l6.4,0.7l5.7,5l1.4,2.1v8.5l-5,5.7l-2.8,1.4h-7.8l-5.7-5l-1.4-2.1l-0.7-5.7l1.4-4.3l3.6-3.6l2.8-2.1L325,798.6z"
	/>
<path d="M893.2,741.7l7.1,0.7l5.7,5l1.4,2.1v8.5l-4.3,5l-3.6,2.1h-7.1l-4.3-2.8l-3.6-4.3l-0.7-7.1l2.1-3.6l3.6-3.6L893.2,741.7z"/>
<path d="M438.8,656.4h5l3.6,2.1l5,5.7v8.5l-5,5.7l-2.1,1.4h-7.8l-3.6-2.1l-3.6-4.3l-1.4-6.4l2.1-5l5.7-5L438.8,656.4z"/>
<path d="M438,571l7.1,0.7l5.7,5l1.4,2.1v8.5l-4.3,5l-3.6,2.1l-3.6,0.7l-6.4-2.1l-5-5.7l-0.7-7.1l2.1-3.6l5.7-5L438,571z"/>
<path d="M1007.6,428.8l7.1,0.7l5,5l1.4,2.1v8.5l-4.3,5l-3.6,2.1h-7.1l-4.3-2.8l-3.6-4.3l-0.7-5.7l1.4-4.3l2.8-3.6L1007.6,428.8z"/>
<path d="M268.1,428.8l6.4,0.7l5.7,5l1.4,2.1v8.5l-5,5.7l-2.8,1.4h-7.1l-3.6-2.1l-4.3-5l-0.7-5.7l1.4-4.3l3.6-3.6l2.8-2.1
	L268.1,428.8z"/>
<path d="M610.1,400.4l6.4,0.7l5.7,5.7l0.7,1.4v9.2l-5,5l-2.8,1.4H608l-4.3-2.8l-3.6-5l-0.7-5.7l2.1-4.3l3.6-3.6L610.1,400.4z"/>
<path d="M978.5,371.9l7.1,0.7l5.7,5l1.4,2.1v8.5l-4.3,5l-3.6,2.1h-7.1l-4.3-2.8l-3.6-4.3l-0.7-7.1l2.1-3.6l5-5L978.5,371.9z"/>
<path d="M923,371.9l6.4,0.7l5.7,5.7l0.7,1.4v8.5l-5,5.7l-2.8,1.4h-7.1l-3.6-2.1l-4.3-5l-0.7-5.7l2.1-5l3.6-3.6L923,371.9z"/>
<path d="M666.3,371.9l7.1,0.7l5.7,5.7l0.7,1.4v8.5l-5,5.7l-2.8,1.4h-7.1l-4.3-2.8l-3.6-4.3l-0.7-5.7l1.4-4.3l3.6-3.6l2.8-2.1
	L666.3,371.9z"/>
<path d="M637.2,229.7l7.1,0.7l5.7,5l1.4,2.8v7.8l-5,5.7l-2.8,1.4h-7.8l-5.7-5l-1.4-2.1l-0.7-6.4l1.4-3.6l5.7-5.7L637.2,229.7z"/>
<path d="M581.7,1083l6.4,0.7l5,5l1.4,2.1v8.5l-5,5.7l-2.1,1.4h-8.5l-5.7-5l-1.4-2.1l-0.7-5.7l2.1-5l5.7-5L581.7,1083z"/>
<path d="M496.4,997.7l5.7,0.7l5.7,5l1.4,2.8v7.8l-5,5.7l-2.8,1.4h-7.1l-4.3-2.8l-3.6-4.3l-0.7-7.1l2.8-5l5-3.6L496.4,997.7z"/>
<path d="M439.5,969.2l6.4,0.7l5.7,5.7l0.7,1.4v8.5l-4.3,5l-3.6,2.1h-7.1l-4.3-2.8l-3.6-5l-0.7-5.7l2.8-5.7l5-3.6L439.5,969.2z"/>
<path d="M467.2,940.8h5l3.6,2.1l5,5.7v8.5l-4.3,5l-3.6,2.1h-7.1l-4.3-2.8l-3.6-5l-0.7-5.7l2.1-4.3l3.6-3.6L467.2,940.8z"/>
<path d="M1035.4,912.4h5l4.3,2.1l4.3,5l0.7,1.4v7.1l-2.8,4.3l-5,3.6h-7.1l-4.3-2.8l-3.6-4.3l-0.7-7.1l2.1-3.6l3.6-3.6L1035.4,912.4z
	"/>
<path d="M495.6,912.4l7.1,0.7l5,5l1.4,2.1v8.5l-4.3,5l-3.6,2.1h-7.1L490,933l-3.6-5l-0.7-5.7l1.4-3.6l3.6-3.6l2.8-2.1L495.6,912.4z"
	/>
<path d="M496.4,827l5.7,0.7l5.7,5l1.4,2.1v8.5l-4.3,5l-3.6,2.1h-7.1l-4.3-2.8l-3.6-4.3l-0.7-5.7l1.4-4.3l2.8-3.6l3.6-2.1L496.4,827z
	"/>
<path d="M382.6,798.6l6.4,0.7l5,5l1.4,2.1v8.5l-5,5.7l-2.1,1.4h-8.5l-5.7-5l-1.4-2.1v-8.5l2.8-4.3l4.3-2.8L382.6,798.6z"/>
<path d="M951.5,770.1l6.4,0.7l5.7,5.7l0.7,1.4v8.5l-5,5.7l-6.4,2.1l-6.4-2.1l-4.3-5l-1.4-6.4l2.1-5l3.6-3.6L951.5,770.1z"/>
<path d="M1035.4,599.5l7.1,0.7l5.7,5l1.4,2.1v7.8l-2.8,4.3l-3.6,2.8l-1.4,0.7h-7.8l-5.7-5l-1.4-2.1l-0.7-5.7l1.4-4.3l5.7-5.7
	L1035.4,599.5z"/>
<path d="M1065.2,571l6.4,0.7l5.7,5.7l0.7,1.4v8.5l-5,5.7l-2.8,1.4h-7.1l-3.6-2.1l-3.6-4.3l-1.4-6.4l1.4-4.3l2.8-3.6l3.6-2.1
	L1065.2,571z"/>
<path d="M1093.7,514.1l5.7,0.7l5.7,5l1.4,2.1v8.5l-4.3,5l-3.6,2.1h-7.1l-4.3-2.8l-3.6-4.3l-0.7-6.4l1.4-3.6l2.8-3.6l3.6-2.1
	L1093.7,514.1z"/>
<path d="M1121.4,485.7l7.1,0.7l5.7,5.7l0.7,1.4v8.5l-4.3,5l-3.6,2.1h-7.1l-4.3-2.8l-3.6-4.3l-0.7-7.1l2.1-3.6l5.7-5L1121.4,485.7z"
	/>
<path d="M381.2,485.7l7.1,0.7l5.7,5l1.4,2.1v8.5l-4.3,5l-3.6,2.1h-7.1l-4.3-2.8l-3.6-4.3l-0.7-7.1l2.1-3.6l5-5L381.2,485.7z"/>
<path d="M866.1,457.2l6.4,0.7l5,5l1.4,2.1v9.2l-5,5l-2.8,1.4H864l-3.6-2.1l-4.3-5.7l-0.7-5.7l2.1-4.3l3.6-3.6L866.1,457.2z"/>
<path d="M665.6,428.8l7.1,0.7l5.7,5l1.4,2.1v8.5l-5,5.7l-2.8,1.4h-7.8l-5-4.3l-2.1-3.6l-0.7-5.7l2.1-4.3l3.6-3.6L665.6,428.8z"/>
<path d="M182,400.4l7.1,0.7l5.7,5l1.4,2.8v7.8l-5,5.7l-2.1,1.4h-8.5l-5.7-5l-1.4-2.1l-0.7-6.4l1.4-3.6l5-5L182,400.4z"/>
<path d="M297.2,343.5l6.4,0.7l5,5l1.4,2.8v7.8l-5,5.7l-2.1,1.4h-8.5l-5.7-5l-1.4-2.1l-0.7-5l1.4-5l3.6-3.6l2.8-2.1L297.2,343.5z"/>
<path d="M552.5,315l6.4,0.7l5.7,5l1.4,2.1v8.5l-4.3,5l-3.6,2.1h-7.1l-3.6-2.1l-4.3-5l-0.7-6.4l1.4-3.6l3.6-3.6l2.8-2.1L552.5,315z"
	/>
<path d="M581,286.6l6.4,0.7l5.7,5l1.4,2.1v8.5l-5,5.7l-2.8,1.4h-7.8l-5-4.3l-2.1-2.8l-0.7-6.4l1.4-3.6l3.6-3.6l2.8-2.1L581,286.6z"
	/>
<path d="M524.8,286.6l6.4,0.7l5.7,5.7l0.7,1.4v8.5l-5,5.7l-2.8,1.4h-7.1l-3.6-2.1l-4.3-5l-0.7-6.4l2.1-4.3l5.7-5L524.8,286.6z"/>
<path d="M411,286.6l5.7,0.7l5.7,5l1.4,2.1v8.5l-4.3,5L416,310h-7.1l-3.6-2.1l-4.3-5l-0.7-7.1l2.8-5l5-3.6L411,286.6z"/>
<path d="M553.2,258.1l6.4,0.7l3.6,2.8l2.8,4.3v8.5l-5,5.7l-2.8,1.4h-7.8l-5.7-5l-1.4-2.1l-0.7-5l1.4-5l5-5L553.2,258.1z"/>
<path d="M921.6,229.7l7.1,0.7l5.7,5l1.4,2.8v7.8l-4.3,5l-3.6,2.1h-7.1l-4.3-2.8l-3.6-4.3l-0.7-7.1l2.1-3.6l3.6-3.6L921.6,229.7z"/>
<path d="M894.6,172.8l6.4,0.7l5,5l1.4,2.1v8.5l-5,5.7l-2.8,1.4h-7.1l-3.6-2.1l-4.3-5l-0.7-5.7l1.4-4.3l3.6-3.6l2.8-2.1L894.6,172.8z
	"/>
<path d="M581,172.8l6.4,0.7l5.7,5l1.4,2.1v8.5l-5,5.7l-5,2.1l-6.4-1.4l-4.3-3.6l-2.1-3.6l-0.7-5.7l2.1-4.3l3.6-3.6L581,172.8z"/>
<path d="M978.5,1083l7.1,0.7l5.7,5l1.4,2.8v7.1l-2.8,4.3l-3.6,2.8l-1.4,0.7h-7.8l-5.7-5l-1.4-2.1l-0.7-5.7l1.4-4.3l5.7-5.7
	L978.5,1083z"/>
<path d="M666.3,1054.6l6.4,0.7l5.7,5l1.4,2.8v7.8l-5,5.7l-2.8,1.4h-7.1l-3.6-2.1l-4.3-5l-0.7-6.4l1.4-3.6l3.6-3.6l2.8-2.1
	L666.3,1054.6z"/>
<path d="M1063.8,1026.1l7.1,0.7l5.7,5l1.4,2.1v8.5l-5,5.7l-2.8,1.4h-7.1l-3.6-2.1l-3.6-4.3l-1.4-6.4l1.4-4.3l5.7-5.7L1063.8,1026.1z
	"/>
<path d="M438,997.7l7.1,0.7l5.7,5l1.4,2.1v8.5l-5,5.7l-2.8,1.4h-7.8l-5.7-5l-1.4-2.1l-0.7-5.7l2.1-5l5.7-5L438,997.7z"/>
<path d="M1035.4,883.9l7.1,0.7l5.7,5l1.4,2.8v7.8l-5,5.7l-2.8,1.4h-7.1l-5.7-4.3l-2.1-2.8l-0.7-6.4l1.4-3.6l5.7-5.7L1035.4,883.9z"
	/>
<path d="M523.4,827l7.1,0.7l5.7,5l1.4,2.8v7.8l-5,5.7l-2.8,1.4H522l-5.7-5l-1.4-2.1l-0.7-5.7l1.4-4.3l5-5L523.4,827z"/>
<path d="M780.1,798.6l7.1,0.7l5,5l1.4,2.1v8.5l-5,5.7l-2.8,1.4H778l-5.7-5l-1.4-2.1l-0.7-5.7l2.1-5l5.7-5L780.1,798.6z"/>
<path d="M837.7,741.7l6.4,0.7l5.7,5.7l0.7,1.4v8.5l-5,5.7l-6.4,2.1l-6.4-2.1l-4.3-5l-1.4-6.4l2.1-5l3.6-3.6L837.7,741.7z"/>
<path d="M1036.8,711.1l5.7,0.7l5.7,5l1.4,2.1v8.5l-5,5.7l-2.8,1.4h-7.1l-3.6-2.1l-4.3-5l-0.7-5.7l1.4-4.3l3.6-3.6l2.8-2.1
	L1036.8,711.1z"/>
<path d="M210.5,656.4l7.1,0.7l5.7,5l1.4,2.8v7.1l-2.8,4.3l-3.6,2.8l-1.4,0.7h-7.8l-5.7-5l-1.4-2.1l-0.7-5.7l1.4-4.3l5.7-5.7
	L210.5,656.4z"/>
<path d="M125.9,656.4h5l4.3,2.8l4.3,5v8.5l-5,5.7l-2.1,1.4h-7.8l-3.6-2.1l-4.3-5.7l-0.7-5l2.1-5l5.7-5L125.9,656.4z"/>
<path d="M238.9,627.9l7.1,0.7l5.7,5l1.4,2.8v7.8l-5,5.7l-2.8,1.4h-7.8l-5.7-5l-1.4-2.1l-0.7-5.7l1.4-4.3l5.7-5.7L238.9,627.9z"/>
<path d="M1092.3,542.6l7.1,0.7l5.7,5l1.4,2.1v8.5l-4.3,5l-3.6,2.1h-7.1l-4.3-2.8l-3.6-4.3l-0.7-7.1l2.1-3.6l5.7-5L1092.3,542.6z"/>
<path d="M866.1,542.6l6.4,0.7l5.7,5.7l0.7,1.4v8.5l-4.3,5l-3.6,2.1H864l-4.3-2.8l-3.6-5l-0.7-5.7l2.1-4.3l3.6-3.6L866.1,542.6z"/>
<path d="M1120.7,514.1l7.1,0.7l5.7,5l1.4,2.8v7.1l-2.8,4.3l-3.6,2.8l-1.4,0.7h-7.8l-5.7-5l-1.4-2.1l-0.7-5.7l1.4-4.3l5.7-5.7
	L1120.7,514.1z"/>
<path d="M1006.9,457.2l7.1,0.7l5.7,5l1.4,2.8v7.1l-2.8,4.3l-3.6,2.8l-1.4,0.7h-7.8l-5.7-5l-1.4-2.1l-0.7-5.7l1.4-4.3l5.7-5.7
	L1006.9,457.2z"/>
<path d="M722.5,428.8l7.1,0.7l5.7,5l1.4,2.1v8.5l-5,5.7l-2.8,1.4h-7.1l-4.3-2.8l-3.6-4.3l-0.7-6.4l1.4-3.6l5.7-5.7L722.5,428.8z"/>
<path d="M608.7,428.8l7.1,0.7l5.7,5l1.4,2.1v8.5l-5,5.7l-2.8,1.4H608l-3.6-2.1l-4.3-5.7l-0.7-5.7l1.4-3.6l5.7-5.7L608.7,428.8z"/>
<path d="M296.5,400.4l6.4,0.7l5.7,5l1.4,2.1v8.5l-5,5.7l-2.8,1.4h-7.8l-5-4.3l-2.1-2.8l-0.7-6.4l2.1-4.3l3.6-3.6L296.5,400.4z"/>
<path d="M268.8,371.9l7.1,1.4l5,5l0.7,1.4v8.5l-5,5.7l-2.8,1.4H266l-5.7-5l-1.4-2.1l-0.7-5.7l1.4-4.3l3.6-3.6l2.8-2.1L268.8,371.9z"
	/>
<path d="M1063.8,371.9l7.1,0.7l5.7,5l1.4,2.1v8.5l-4.3,5l-3.6,2.1h-7.1l-3.6-2.1l-4.3-5l-0.7-7.1l2.1-3.6l5.7-5L1063.8,371.9z"/>
<path d="M809.2,371.9l6.4,0.7l5.7,5.7l0.7,1.4v8.5l-5,5.7l-2.8,1.4h-7.1l-4.3-2.8l-3.6-4.3l-0.7-6.4l2.1-4.3l5.7-5L809.2,371.9z"/>
<path d="M438.8,315l6.4,0.7l5.7,5l1.4,2.1v8.5l-4.3,5l-3.6,2.1h-7.1l-3.6-2.1l-4.3-5l-0.7-5.7l1.4-4.3l3.6-3.6l2.8-2.1L438.8,315z"
	/>
<path d="M809.2,229.7l6.4,0.7l3.6,2.8l2.8,4.3v8.5l-5,5.7l-2.8,1.4h-7.1l-4.3-2.8l-2.8-3.6l-1.4-6.4l1.4-4.3l3.6-3.6l2.8-2.1
	L809.2,229.7z"/>
<path d="M610.1,172.8l5.7,0.7l5.7,5l1.4,2.8v7.8l-5,5.7l-2.1,1.4h-8.5l-5.7-5l-1.4-2.1l-0.7-5l1.4-5l3.6-3.6l2.8-2.1L610.1,172.8z"
	/>
<path d="M1065.2,1111.5l6.4,0.7l5.7,5.7l0.7,1.4v8.5l-4.3,5l-3.6,2.1h-7.1l-4.3-2.8l-3.6-5l-0.7-5l1.4-4.3l3.6-3.6l2.8-2.1
	L1065.2,1111.5z"/>
<path d="M807.8,1026.1l7.1,0.7l5.7,5l1.4,2.1v8.5l-5,5.7l-2.8,1.4h-7.1l-3.6-2.1l-4.3-5l-0.7-5.7l2.1-5l3.6-3.6L807.8,1026.1z"/>
<path d="M665.6,1026.1l7.1,0.7l5.7,5l1.4,2.8v7.8l-5,5.7l-2.8,1.4h-7.1l-4.3-2.8l-3.6-4.3l-0.7-6.4l1.4-3.6l5-5L665.6,1026.1z"/>
<path d="M609.4,997.7l6.4,0.7l5.7,5l1.4,2.1v8.5l-5,5.7l-2.1,1.4H608l-3.6-2.1l-4.3-5l-0.7-5.7l2.1-5l5.7-5L609.4,997.7z"/>
<path d="M779.4,969.2l7.8,0.7l5,5l1.4,2.1v8.5l-4.3,5l-3.6,2.1h-7.1l-3.6-2.1l-4.3-5l-0.7-6.4l2.1-4.3l5.7-5L779.4,969.2z"/>
<path d="M752.4,912.4l5.7,0.7l5.7,5l1.4,2.1v8.5l-5,5.7l-2.8,1.4h-7.8l-5-4.3l-2.1-2.8l-0.7-5.7l2.1-5l3.6-3.6L752.4,912.4z"/>
<path d="M665.6,883.9l7.1,0.7l5.7,5l1.4,2.1v8.5l-5,5.7l-2.1,1.4h-7.8l-3.6-2.1l-4.3-5l-0.7-5.7l2.1-5l5.7-5L665.6,883.9z"/>
<path d="M1036.8,855.5l6.4,0.7l5,5l1.4,2.1v8.5l-4.3,5l-3.6,2.1h-7.1l-4.3-2.8l-3.6-5l-0.7-5.7l2.1-4.3l3.6-3.6L1036.8,855.5z"/>
<path d="M325,827l6.4,0.7l5.7,5l1.4,2.1v8.5l-5,5.7l-2.8,1.4h-7.8l-5.7-5l-1.4-2.1l-0.7-5.7l2.1-5l5.7-5L325,827z"/>
<path d="M950.8,798.6l7.1,0.7l5,5l1.4,2.1v8.5l-5,5.7l-2.8,1.4h-7.8l-5.7-5l-1.4-2.1l-0.7-5.7l2.1-5l5.7-5L950.8,798.6z"/>
<path d="M467.9,770.1l5.7,0.7l5.7,5l1.4,2.1v8.5l-5,5.7l-2.8,1.4h-7.1l-4.3-2.8l-3.6-4.3l-0.7-5.7l1.4-4.3l3.6-3.6l2.8-2.1
	L467.9,770.1z"/>
<path d="M238.9,770.1l7.1,0.7l5.7,5l1.4,2.1v8.5l-5,5.7l-2.8,1.4h-7.1l-4.3-2.8l-3.6-4.3l-0.7-5.7l1.4-4.3l5.7-5.7L238.9,770.1z"/>
<path d="M894.6,711.1l5.7,0.7l5.7,5l1.4,2.8v7.8l-4.3,5l-3.6,2.1h-7.1l-4.3-2.8l-3.6-4.3l-0.7-5.7l1.4-4.3l3.6-3.6l2.8-2.1
	L894.6,711.1z"/>
<path d="M153.6,684.8l7.1,0.7l5.7,5l1.4,2.1v8.5l-4.3,5l-3.6,2.1h-7.1l-4.3-2.8l-3.6-5l-0.7-6.4l2.1-3.6l5.7-5L153.6,684.8z"/>
<path d="M1092.3,656.4l7.1,0.7l5.7,5l1.4,2.1v8.5l-5,5.7l-2.8,1.4h-7.1l-3.6-2.1l-3.6-4.3l-1.4-5.7l1.4-5l3.6-3.6L1092.3,656.4z"/>
<path d="M438.8,627.9h5l3.6,2.1l4.3,5l0.7,1.4v7.8l-5,5.7l-2.8,1.4h-7.1l-4.3-2.8l-2.8-3.6l-1.4-6.4l2.1-5l5.7-5L438.8,627.9z"/>
<path d="M125.9,627.9l6.4,0.7l5.7,5l1.4,2.1v8.5l-5,5.7l-6.4,2.1l-6.4-2.1l-4.3-5l-1.4-6.4l2.1-5l5.7-5L125.9,627.9z"/>
<path d="M979.9,571l6.4,0.7l5.7,5.7l0.7,1.4v8.5l-5,5.7l-2.8,1.4h-7.1l-3.6-2.1l-4.3-5.7l-0.7-5l2.1-5l5.7-5L979.9,571z"/>
<path d="M922.3,571l6.4,0.7l5.7,5l1.4,2.8v7.8l-5,5.7l-2.8,1.4h-7.1l-3.6-2.1l-4.3-5l-0.7-6.4l2.1-4.3l3.6-3.6L922.3,571z"/>
<path d="M467.9,542.6l7.1,1.4l5,5.7l0.7,1.4v7.8l-5,5.7l-2.1,1.4h-7.8l-3.6-2.1l-4.3-5l-0.7-5.7l1.4-4.3l3.6-3.6l2.8-2.1
	L467.9,542.6z"/>
<path d="M182.8,542.6l6.4,0.7l5.7,5l1.4,2.1v8.5l-5,5.7l-2.8,1.4h-7.1l-3.6-2.1l-4.3-5l-0.7-6.4l2.1-4.3l5.7-5L182.8,542.6z"/>
<path d="M381.2,514.1l7.1,0.7l5.7,5l1.4,2.8v7.8l-5,5.7l-2.8,1.4h-7.1l-3.6-2.1l-4.3-5l-0.7-6.4l2.1-4.3l5.7-5L381.2,514.1z"/>
<path d="M1036.8,485.7l5.7,0.7l5.7,5l1.4,2.8v7.8l-5,5.7l-2.8,1.4h-7.1l-4.3-2.8l-3.6-4.3l-0.7-6.4l2.8-5.7l5-3.6L1036.8,485.7z"/>
<path d="M466.5,485.7l7.1,0.7l5.7,5l1.4,2.8v7.1l-2.8,4.3l-3.6,2.8l-1.4,0.7h-7.8l-5.7-5L458,502l-0.7-5.7l1.4-4.3l5-5L466.5,485.7z
	"/>
<path d="M694.8,428.8l7.1,0.7l5.7,5.7l0.7,1.4v8.5l-4.3,5l-3.6,2.1h-7.1l-4.3-2.8l-3.6-5l-0.7-5l1.4-4.3l3.6-3.6l2.8-2.1
	L694.8,428.8z"/>
<path d="M409.6,371.9l7.1,0.7l5.7,5l1.4,2.8v7.1l-2.8,4.3l-3.6,2.8l-1.4,0.7h-7.1l-3.6-2.1l-4.3-5l-0.7-6.4l1.4-3.6l5.7-5.7
	L409.6,371.9z"/>
<path d="M921.6,201.2l7.1,0.7l5.7,5l1.4,2.8v7.8l-4.3,5l-3.6,2.1h-7.1l-4.3-2.8l-3.6-4.3l-0.7-6.4l1.4-3.6l3.6-3.6L921.6,201.2z"/>
<path d="M1006.9,1054.6l7.1,0.7l5.7,5l1.4,2.8v7.1l-2.8,4.3l-3.6,2.8l-1.4,0.7h-7.1l-3.6-2.1l-4.3-5l-0.7-5.7l1.4-4.3l5.7-5.7
	L1006.9,1054.6z"/>
<path d="M381.2,997.7l7.1,0.7l5.7,5l1.4,2.8v7.8l-5,5.7l-2.8,1.4h-7.8l-5-4.3l-2.1-2.8l-0.7-5.7l2.1-5l5.7-5L381.2,997.7z"/>
<path d="M894.6,912.4l6.4,0.7l5,5l1.4,2.8v7.8l-5,5.7l-2.1,1.4h-8.5l-5-4.3l-2.1-3.6l-0.7-4.3l1.4-5l3.6-3.6l2.8-2.1L894.6,912.4z"
	/>
<path d="M865.4,883.9l6.4,0.7l5.7,5l1.4,2.8v7.8l-5,5.7l-2.8,1.4h-7.8l-5.7-5l-1.4-2.1l-0.7-6.4l2.1-4.3l5.7-5L865.4,883.9z"/>
<path d="M1063.8,855.5l7.1,0.7l5.7,5l1.4,2.8v7.1l-2.8,4.3l-3.6,2.8l-1.4,0.7h-7.1l-3.6-2.1l-4.3-5l-0.7-5.7l1.4-4.3l5.7-5.7
	L1063.8,855.5z"/>
<path d="M922.3,855.5l6.4,0.7l5.7,5l1.4,2.8v7.8l-5,5.7l-2.8,1.4h-7.8l-5.7-5l-1.4-2.1l-0.7-5.7l2.1-5l5.7-5L922.3,855.5z"/>
<path d="M665.6,827l7.1,0.7l5.7,5l1.4,2.8v7.8l-5,5.7l-2.8,1.4h-7.1l-4.3-2.8l-3.6-4.3l-0.7-5.7l1.4-4.3l5-5L665.6,827z"/>
<path d="M1093.7,741.7l5.7,0.7l5.7,5l1.4,2.8v7.8l-5,5.7l-2.8,1.4h-7.1l-3.6-2.1l-4.3-5l-0.7-5.7l1.4-4.3l3.6-3.6l2.8-2.1
	L1093.7,741.7z"/>
<path d="M1065.2,656.4l6.4,0.7l5.7,5.7l0.7,1.4v8.5l-4.3,5l-3.6,2.1h-7.1l-4.3-2.8l-3.6-5l-0.7-5l2.1-5l3.6-3.6L1065.2,656.4z"/>
<path d="M893.9,656.4l6.4,0.7l5.7,5l1.4,2.1v8.5l-5,5.7l-2.8,1.4h-7.1l-3.6-2.1l-4.3-5l-0.7-5.7l2.1-5l5.7-5L893.9,656.4z"/>
<path d="M211.9,571l7.1,1.4l5,5.7l0.7,1.4v7.8l-5,5.7l-2.8,1.4h-7.8l-5.7-5l-1.4-2.1l-0.7-5.7l1.4-4.3l3.6-3.6l2.8-2.1L211.9,571z"
	/>
<path d="M1092.3,571l7.1,0.7l5.7,5l1.4,2.8v7.1l-2.8,4.3l-3.6,2.8l-1.4,0.7h-7.8l-5.7-5l-1.4-2.1l-0.7-5.7l1.4-4.3l5-5L1092.3,571z"
	/>
<path d="M807.8,542.6l7.1,0.7l5.7,5l1.4,2.1v8.5l-5,5.7l-2.8,1.4h-7.1l-4.3-2.8l-3.6-5l-0.7-5l1.4-4.3l5.7-5.7L807.8,542.6z"/>
<path d="M410.3,457.2l6.4,0.7l5.7,5l1.4,2.8v7.8l-5,5.7l-2.8,1.4h-7.8l-5.7-5l-1.4-2.1l-0.7-5.7l1.4-4.3l3.6-3.6l2.8-2.1
	L410.3,457.2z"/>
<path d="M381.9,428.8l6.4,0.7l5.7,5l1.4,2.8v7.8l-5,5.7l-2.8,1.4h-7.1l-3.6-2.1l-4.3-5l-0.7-5.7l1.4-4.3l3.6-3.6l2.8-2.1
	L381.9,428.8z"/>
<path d="M1035.4,428.8l7.1,0.7l5.7,5l1.4,2.8v7.1l-2.8,4.3l-3.6,2.8l-1.4,0.7h-7.1l-3.6-2.1l-4.3-5l-0.7-5.7l1.4-4.3l5.7-5.7
	L1035.4,428.8z"/>
<path d="M779.4,428.8l7.1,0.7l5.7,5l1.4,2.1v7.8l-2.8,4.3l-3.6,2.8l-1.4,0.7H778l-5-4.3l-2.1-2.8l-0.7-6.4l2.1-4.3l5.7-5
	L779.4,428.8z"/>
<path d="M1036.8,400.4l6.4,0.7l5,5l1.4,2.1v8.5l-4.3,5l-3.6,2.1h-7.1l-4.3-2.8l-3.6-5l-0.7-5.7l1.4-3.6l3.6-3.6l2.8-2.1
	L1036.8,400.4z"/>
<path d="M1008.4,343.5l7.1,1.4l5.7,6.4v8.5l-5,5.7l-2.1,1.4h-7.8l-3.6-2.1l-4.3-5l-0.7-5l1.4-5l3.6-3.6l2.8-2.1L1008.4,343.5z"/>
<path d="M951.5,343.5l7.1,1.4l5,5.7l0.7,1.4v7.8l-5,5.7l-2.1,1.4h-8.5l-5-4.3l-2.1-2.8l-0.7-5.7l2.1-5l3.6-3.6L951.5,343.5z"/>
<path d="M667,258.1l6.4,0.7l5,5l1.4,2.8v7.8l-5,5.7l-2.8,1.4h-7.8l-5-4.3l-2.1-3.6l-0.7-5l2.1-5l3.6-3.6L667,258.1z"/>
<path d="M921.6,258.1l7.1,0.7l5.7,5l1.4,2.8v7.8l-4.3,5l-3.6,2.1h-7.1l-5.7-4.3l-2.1-2.8l-0.7-6.4l1.4-3.6l3.6-3.6L921.6,258.1z"/>
<path d="M381.2,229.7l7.1,0.7l5.7,5l1.4,2.1v8.5l-5,5.7l-2.8,1.4h-7.1l-5.7-4.3l-2.1-2.8l-0.7-6.4l1.4-3.6l5.7-5.7L381.2,229.7z"/>
<path d="M353.4,229.7l6.4,0.7l5.7,5l1.4,2.1v8.5l-4.3,5l-3.6,2.1H352l-4.3-2.8l-3.6-4.3l-0.7-6.4l2.1-4.3l5.7-5L353.4,229.7z"/>
<path d="M382.6,201.2l5.7,0.7l5.7,5l1.4,2.8v7.8l-5,5.7l-2.8,1.4h-7.1l-4.3-2.8l-3.6-4.3l-0.7-5.7l1.4-4.3l3.6-3.6l2.8-2.1
	L382.6,201.2z"/>
<path d="M950,1111.5l7.1,0.7l5.7,5l1.4,2.8v7.8l-5,5.7l-2.8,1.4h-7.1l-4.3-2.8l-3.6-5l-0.7-5.7l1.4-3.6l5-5L950,1111.5z"/>
<path d="M894.6,1054.6l6.4,0.7l5.7,5.7l0.7,1.4v8.5l-5,5.7l-2.8,1.4h-7.1l-4.3-2.8l-3.6-5l-0.7-5l2.1-5l3.6-3.6L894.6,1054.6z"/>
<path d="M495.6,1054.6l6.4,0.7l5.7,5l1.4,2.8v7.1l-2.8,4.3l-3.6,2.8l-1.4,0.7h-7.8l-5-4.3l-2.1-2.8l-0.7-6.4l1.4-3.6l5-5
	L495.6,1054.6z"/>
<path d="M410.3,940.8l6.4,0.7l5.7,5l1.4,2.8v7.8l-5,5.7l-2.8,1.4h-7.8l-5.7-5l-1.4-2.1l-0.7-5l1.4-5l3.6-3.6l2.8-2.1L410.3,940.8z"
	/>
<path d="M523.4,912.4l7.1,0.7l5.7,5l1.4,2.1v8.5l-4.3,5l-3.6,2.1h-7.1l-5.7-4.3l-2.1-2.8l-0.7-5.7l1.4-4.3l5.7-5.7L523.4,912.4z"/>
<path d="M182,912.4l7.1,0.7l5.7,5l1.4,2.1v8.5l-5,5.7l-2.1,1.4h-7.8l-4.3-2.8l-3.6-5l-0.7-4.3l1.4-5l5.7-5.7L182,912.4z"/>
<path d="M723.9,883.9l7.1,1.4l5.7,6.4v8.5l-5,5.7l-2.8,1.4h-7.8l-5.7-5l-1.4-2.1l-0.7-5l1.4-5l3.6-3.6l2.8-2.1L723.9,883.9z"/>
<path d="M665.6,855.5l7.1,0.7l5.7,5l1.4,2.1v8.5l-5,5.7l-2.8,1.4h-7.1l-5.7-4.3l-2.1-2.8l-0.7-6.4l1.4-3.6l5-5L665.6,855.5z"/>
<path d="M268.8,798.6l7.1,1.4l5.7,6.4v8.5l-5,5.7l-2.1,1.4h-7.8l-3.6-2.1l-3.6-4.3l-0.7-1.4v-8.5l2.8-3.6l4.3-2.8L268.8,798.6z"/>
<path d="M1120.7,798.6l7.1,0.7l5.7,5l1.4,2.8v7.1l-2.8,4.3l-3.6,2.8l-1.4,0.7h-7.1l-3.6-2.1l-4.3-5l-0.7-5.7l1.4-4.3l5.7-5.7
	L1120.7,798.6z"/>
<path d="M238.9,798.6l7.1,0.7l5.7,5l1.4,2.1v8.5l-5,5.7l-2.8,1.4h-7.1l-3.6-2.1l-3.6-4.3l-0.7-1.4v-8.5l6.4-6.4L238.9,798.6z"/>
<path d="M1122.1,770.1l5.7,0.7l5.7,5l1.4,2.1v8.5l-4.3,5l-3.6,2.1h-7.1l-4.3-2.8l-3.6-5l-0.7-5l1.4-4.3l2.8-3.6l3.6-2.1
	L1122.1,770.1z"/>
<path d="M182,684.8l7.1,0.7l5.7,5l1.4,2.8v7.1l-2.8,4.3l-3.6,2.8l-1.4,0.7h-7.1l-3.6-2.1l-4.3-5l-0.7-5.7l1.4-4.3l5.7-5.7L182,684.8
	z"/>
<path d="M467.2,656.4l6.4,0.7l5.7,5l1.4,2.8v7.8l-4.3,5l-3.6,2.1h-7.1l-4.3-2.8l-3.6-5l-0.7-5.7l1.4-3.6l3.6-3.6l2.8-2.1
	L467.2,656.4z"/>
<path d="M438.8,599.5l7.1,0.7l5,5l1.4,2.8v7.8l-4.3,5l-3.6,2.1h-7.1l-4.3-2.8l-3.6-4.3l-0.7-6.4l2.1-4.3l5.7-5L438.8,599.5z"/>
<path d="M294.4,571.7h9.2l5.7,5.7l0.7,1.4v8.5l-5,5.7l-2.1,1.4h-7.8l-3.6-2.1l-3.6-4.3l-1.4-6.4l1.4-4.3l3.6-3.6L294.4,571.7z"/>
<path d="M922.3,542.6l6.4,0.7l5.7,5l1.4,2.1v8.5l-4.3,5L928,566h-7.1l-4.3-2.8l-3.6-4.3l-0.7-5.7l1.4-4.3l3.6-3.6l2.8-2.1
	L922.3,542.6z"/>
<path d="M809.2,457.2l7.1,1.4l5,5.7l0.7,1.4v7.8l-5,5.7l-2.8,1.4h-7.8l-5-4.3l-2.1-2.8l-0.7-6.4l2.1-4.3l3.6-3.6L809.2,457.2z"/>
<path d="M1122.1,457.2l5.7,0.7l5.7,5l1.4,2.8v7.8l-4.3,5l-3.6,2.1l-3.6,0.7l-6.4-2.1l-5-5.7l-0.7-6.4l2.1-4.3l5.7-5L1122.1,457.2z"
	/>
<path d="M551.8,428.8l7.1,0.7l5.7,5l1.4,2.1v8.5l-5,5.7l-2.8,1.4h-7.1l-3.6-2.1l-4.3-5.7l-0.7-5l2.1-5l3.6-3.6L551.8,428.8z"/>
<path d="M864.7,400.4l7.1,0.7l5.7,5l1.4,2.8v7.1l-2.8,4.3l-3.6,2.8l-1.4,0.7h-7.8l-5.7-5l-1.4-2.1l-0.7-5.7l2.1-5l5.7-5L864.7,400.4
	z"/>
<path d="M752.4,371.9l5.7,0.7l5.7,5l1.4,2.8v7.8l-5,5.7l-2.8,1.4h-7.1l-3.6-2.1l-4.3-5l-0.7-5l1.4-5l3.6-3.6l2.8-2.1L752.4,371.9z"
	/>
<path d="M638.6,371.9l6.4,0.7l5,5l1.4,2.1v8.5l-5,5.7l-2.8,1.4h-7.1l-4.3-2.8l-3.6-5l-0.7-5l2.1-5l5.7-5L638.6,371.9z"/>
<path d="M1036.8,343.5l7.1,1.4l5,5.7l0.7,1.4v7.8l-5,5.7l-2.1,1.4h-7.8l-3.6-2.1l-4.3-5l-0.7-5l1.4-5l3.6-3.6l2.8-2.1L1036.8,343.5z
	"/>
<path d="M837.7,201.2l7.1,1.4l5.7,6.4v8.5l-5,5.7l-2.1,1.4h-8.5l-5-4.3l-2.1-3.6l-0.7-5l2.1-5l3.6-3.6L837.7,201.2z"/>
<path d="M637.2,201.2l7.1,0.7l5.7,5l1.4,2.8v7.8l-4.3,5l-3.6,2.1h-7.1l-4.3-2.8l-3.6-4.3l-0.7-6.4l2.1-4.3l5.7-5L637.2,201.2z"/>
<path d="M866.1,172.8l5.7,0.7l5.7,5l1.4,2.8v7.8l-5,5.7l-2.8,1.4H864l-3.6-2.1l-4.3-5.7l-0.7-5l2.1-5l3.6-3.6L866.1,172.8z"/>
<path d="M609.4,1083l6.4,0.7l5.7,5l1.4,2.1v8.5l-5,5.7l-2.8,1.4h-7.8l-5-4.3l-2.1-3.6l-0.7-4.3l1.4-5l3.6-3.6l2.8-2.1L609.4,1083z"
	/>
<path d="M837.7,1026.1l6.4,0.7l5.7,5.7l0.7,1.4v8.5l-5,5.7l-2.8,1.4h-7.1l-4.3-2.8l-2.8-3.6l-0.7-1.4v-8.5l2.8-3.6l4.3-2.8
	L837.7,1026.1z"/>
<path d="M1092.3,1026.1l7.1,0.7l5.7,5l1.4,2.8v7.1l-2.8,4.3l-3.6,2.8l-1.4,0.7h-7.8l-5.7-5l-1.4-2.1v-9.2l5.7-5.7L1092.3,1026.1z"/>
<path d="M808.5,997.7l6.4,0.7l5.7,5l1.4,2.8v7.8l-5,5.7l-2.8,1.4h-7.8l-5-4.3l-2.1-3.6l-0.7-5l1.4-4.3l3.6-3.6l2.8-2.1L808.5,997.7z
	"/>
<path d="M524.8,997.7l5.7,0.7l5.7,5l1.4,2.8v7.8l-5,5.7l-2.8,1.4h-7.1l-4.3-2.8l-3.6-4.3l-0.7-5l1.4-5l3.6-3.6l2.8-2.1L524.8,997.7z
	"/>
<path d="M866.1,940.8l7.1,1.4l5.7,6.4v8.5l-5,5.7l-2.8,1.4h-7.8l-5.7-5l-1.4-2.1l-0.7-5l1.4-5l3.6-3.6l2.8-2.1L866.1,940.8z"/>
<path d="M837.7,940.8l7.1,1.4l5.7,6.4v8.5l-5,5.7l-2.8,1.4h-7.1l-3.6-2.1l-4.3-5.7l-0.7-5l2.1-5l3.6-3.6L837.7,940.8z"/>
<path d="M809.2,912.4l7.1,1.4l5,5.7l0.7,1.4v7.8l-5,5.7l-2.8,1.4h-7.8l-5-4.3l-2.1-2.8l-0.7-5.7l2.1-5l3.6-3.6L809.2,912.4z"/>
<path d="M382.6,855.5l5.7,0.7l5.7,5l1.4,2.1v8.5l-4.3,5l-3.6,2.1h-7.1l-4.3-2.8l-3.6-5l-0.7-5.7l2.1-4.3l3.6-3.6L382.6,855.5z"/>
<path d="M1092.3,827l7.1,0.7l5.7,5l1.4,2.8v7.1l-2.8,4.3l-3.6,2.8l-1.4,0.7h-7.1l-3.6-2.1l-4.3-5l-0.7-5l1.4-5l5.7-5.7L1092.3,827z"
	/>
<path d="M923,827l6.4,0.7l5.7,5.7l0.7,1.4v8.5l-4.3,5l-3.6,2.1h-7.1l-4.3-2.8l-3.6-5l-0.7-5l2.1-5l3.6-3.6L923,827z"/>
<path d="M865.4,827l6.4,0.7l5.7,5l1.4,2.8v7.8l-4.3,5l-3.6,2.1H864l-4.3-2.8l-3.6-4.3l-0.7-5.7l1.4-4.3l3.6-3.6l2.8-2.1L865.4,827z"
	/>
<path d="M211.2,798.6l7.1,0.7l5.7,5.7l0.7,1.4v8.5l-5,5.7l-2.8,1.4h-7.1l-3.6-2.1l-4.3-5.7v-7.8l5-5.7L211.2,798.6z"/>
<path d="M439.5,770.1l6.4,0.7l5,5l1.4,2.8v7.8l-5,5.7l-2.8,1.4h-7.1l-4.3-2.8l-3.6-5l-0.7-5l2.1-5l5.7-5L439.5,770.1z"/>
<path d="M951.5,684.8l5.7,0.7l5.7,5l1.4,2.1v8.5l-5,5.7l-2.8,1.4h-7.8l-5-4.3l-2.1-3.6l-0.7-4.3l1.4-5l3.6-3.6l2.8-2.1L951.5,684.8z
	"/>
<path d="M325.7,656.4l7.1,1.4l5.7,6.4v8.5l-5,5.7l-2.8,1.4h-7.8l-5-4.3l-2.1-2.8L315,667l2.1-5l3.6-3.6L325.7,656.4z"/>
<path d="M268.8,656.4l7.1,1.4l5.7,6.4v8.5l-5,5.7l-2.8,1.4H266l-5-4.3l-2.1-2.8l-0.7-5.7l2.1-5l3.6-3.6L268.8,656.4z"/>
<path d="M951.5,599.5l6.4,0.7l5.7,5.7l0.7,1.4v8.5l-5,5.7l-2.8,1.4h-7.1l-3.6-2.1l-4.3-5.7l-0.7-4.3l1.4-5l3.6-3.6l2.8-2.1
	L951.5,599.5z"/>
<path d="M837.7,571l6.4,0.7l5.7,5.7l0.7,1.4v8.5l-5,5.7l-2.1,1.4h-7.8l-4.3-2.8l-3.6-5v-8.5l2.8-3.6l4.3-2.8L837.7,571z"/>
<path d="M324.3,571l7.1,0.7l5.7,5l1.4,2.8v7.1l-2.8,4.3l-3.6,2.8l-1.4,0.7h-7.8l-5.7-5l-1.4-2.1v-9.2l6.4-6.4L324.3,571z"/>
<path d="M268.8,571l6.4,0.7l5,5l1.4,2.1v8.5l-5,5.7l-2.8,1.4H266l-5-4.3l-2.1-3.6v-7.8l2.8-4.3l4.3-2.8L268.8,571z"/>
<path d="M1149.2,485.7l7.1,0.7l5.7,5l1.4,2.8v7.1l-2.8,4.3l-3.6,2.8l-1.4,0.7h-7.1l-3.6-2.1l-4.3-5l-0.7-5.7l1.4-4.3l5-5
	L1149.2,485.7z"/>
<path d="M211.2,485.7l6.4,0.7l5.7,5l1.4,2.8v7.1l-2.8,4.3l-3.6,2.8l-1.4,0.7h-7.8l-5-4.3L202,502l-0.7-6.4l2.1-4.3l5.7-5
	L211.2,485.7z"/>
<path d="M722.5,457.2l7.1,0.7l5.7,5l1.4,2.1v8.5l-5,5.7l-2.8,1.4h-7.1l-4.3-2.8l-2.8-3.6l-0.7-1.4v-8.5l5.7-5.7L722.5,457.2z"/>
<path d="M467.2,457.2l6.4,0.7l5.7,5l1.4,2.1v8.5l-4.3,5l-3.6,2.1h-7.1l-4.3-2.8l-3.6-4.3l-0.7-6.4l2.1-4.3l5.7-5L467.2,457.2z"/>
<path d="M1063.8,400.4l7.1,0.7l5.7,5l1.4,2.8v7.1l-2.8,4.3l-3.6,2.8l-1.4,0.7h-7.1l-3.6-2.1l-4.3-5l-0.7-5l1.4-5l5.7-5.7
	L1063.8,400.4z"/>
<path d="M837,343.5l6.4,0.7l5.7,5l1.4,2.8v7.8l-5,5.7l-2.8,1.4h-7.8l-5.7-5l-1.4-2.1l-0.7-5l1.4-5l5-5L837,343.5z"/>
<path d="M922.3,286.6l7.1,0.7l5,5l1.4,2.8v7.8l-4.3,5L928,310h-7.1l-4.3-2.8l-3.6-4.3l-0.7-5.7l2.1-5l5.7-5L922.3,286.6z"/>
<path d="M411,201.2l5.7,0.7l5.7,5l1.4,2.8v7.8l-5,5.7l-2.1,1.4h-7.8l-3.6-2.1l-3.6-4.3l-0.7-1.4v-7.8l2.8-4.3l4.3-2.8L411,201.2z"/>
<path d="M609.4,1111.5l6.4,0.7l5.7,5l1.4,2.8v7.8l-5,5.7l-2.8,1.4H608l-3.6-2.1l-4.3-5l-0.7-5.7l2.1-5l5.7-5L609.4,1111.5z"/>
<path d="M893.9,1083l7.1,0.7l5,5l1.4,2.8v7.8l-5,5.7l-2.8,1.4h-7.8l-5-4.3l-2.1-2.8v-8.5l5-5.7L893.9,1083z"/>
<path d="M864.7,1026.1l7.1,0.7l5.7,5l1.4,2.8v7.8l-5,5.7l-2.8,1.4H864l-3.6-2.1l-4.3-5v-8.5l5-5.7L864.7,1026.1z"/>
<path d="M638.6,997.7l7.1,1.4l5,5.7l0.7,1.4v7.8l-5,5.7l-2.8,1.4h-7.1l-4.3-2.8l-3.6-5l-0.7-5l1.4-4.3l3.6-3.6l2.8-2.1L638.6,997.7z
	"/>
<path d="M155,912.4l6.4,0.7l5.7,5.7l0.7,1.4v8.5l-5,5.7l-2.8,1.4h-7.1l-4.3-2.8l-3.6-5v-7.8l2.8-4.3l4.3-2.8L155,912.4z"/>
<path d="M638.6,827l6.4,0.7l5,5l1.4,2.1v8.5l-5,5.7l-2.8,1.4h-7.1l-4.3-2.8l-3.6-5v-7.8l2.8-4.3l4.3-2.8L638.6,827z"/>
<path d="M1149.9,770.1l6.4,0.7l5.7,5l1.4,2.8v7.1l-2.8,4.3l-3.6,2.8l-1.4,0.7h-7.1l-3.6-2.1l-4.3-5l-0.7-5.7l2.1-5l5.7-5
	L1149.9,770.1z"/>
<path d="M893.9,770.1l6.4,0.7l5.7,5l1.4,2.8v7.1l-2.8,4.3l-3.6,2.8l-1.4,0.7h-7.1l-3.6-2.1l-4.3-5l-0.7-6.4l2.1-4.3l5.7-5
	L893.9,770.1z"/>
<path d="M240.4,741.7l6.4,0.7l5,5l1.4,2.1v8.5l-5,5.7l-2.8,1.4h-7.1l-4.3-2.8l-3.6-5l-0.7-4.3l1.4-5l5-5L240.4,741.7z"/>
<path d="M923,711.1l7.1,1.4l5.7,6.4v7.8L933,731l-3.6,2.8l-1.4,0.7h-7.8l-5.7-5l-1.4-2.1l-0.7-5l1.4-5l3.6-3.6l2.8-2.1L923,711.1z"
	/>
<path d="M297.2,684.8l7.1,1.4l5,5.7l0.7,1.4v7.8l-5,5.7l-2.8,1.4h-7.8l-5-4.3l-2.1-2.8l-0.7-5.7l2.1-5l3.6-3.6L297.2,684.8z"/>
<path d="M1064.5,684.8l6.4,0.7l5.7,5l1.4,2.8v7.1l-2.8,4.3l-3.6,2.8l-1.4,0.7h-7.8l-5-4.3l-2.1-2.8l-0.7-5.7l2.1-5l5.7-5
	L1064.5,684.8z"/>
<path d="M866.1,627.9l6.4,0.7l5,5l1.4,2.8v7.8l-5,5.7l-2.1,1.4H864l-4.3-2.8l-2.8-3.6l-0.7-1.4v-7.8l2.8-4.3l4.3-2.8L866.1,627.9z"
	/>
<path d="M780.8,542.6l5.7,0.7l5.7,5l1.4,2.1v8.5l-5,5.7l-2.8,1.4h-7.1l-3.6-2.1l-4.3-5.7l-0.7-5l2.1-5l5.7-5L780.8,542.6z"/>
<path d="M1065.2,485.7l5.7,0.7l5.7,5l1.4,2.8v7.8l-5,5.7l-2.8,1.4h-7.1l-4.3-2.8l-3.6-4.3l-0.7-5l1.4-5l3.6-3.6l2.8-2.1
	L1065.2,485.7z"/>
<path d="M694.8,457.2l6.4,0.7l5.7,5l1.4,2.1v8.5l-5,5.7l-2.8,1.4h-7.1l-4.3-2.8l-3.6-5l-0.7-5l2.1-5l5.7-5L694.8,457.2z"/>
<path d="M581.7,428.8l6.4,0.7l5,5l1.4,2.1v8.5l-5,5.7l-2.8,1.4h-7.1l-4.3-2.8l-2.8-3.6l-0.7-1.4v-8.5l2.8-3.6l4.3-2.8L581.7,428.8z"
	/>
<path d="M467.9,428.8l5.7,0.7l5.7,5l1.4,2.8v7.8l-4.3,5l-3.6,2.1h-7.1l-4.3-2.8l-3.6-5l-0.7-5.7l2.1-4.3l3.6-3.6L467.9,428.8z"/>
<path d="M155,400.4l7.1,1.4l5,5l0.7,1.4v8.5l-5,5.7l-2.8,1.4h-7.8l-5-4.3l-2.1-3.6l-0.7-4.3l1.4-5l5-5L155,400.4z"/>
<path d="M979.9,343.5l5.7,0.7l5.7,5l1.4,2.1v8.5l-4.3,5l-3.6,2.1h-7.1l-4.3-2.8l-3.6-5l-0.7-5l2.1-5l3.6-3.6L979.9,343.5z"/>
<path d="M467.9,343.5l7.1,1.4l5,5.7l0.7,1.4v7.1l-2.8,4.3l-3.6,2.8l-1.4,0.7h-7.1l-3.6-2.1l-4.3-5l-0.7-5.7l1.4-4.3l3.6-3.6l2.8-2.1
	L467.9,343.5z"/>
<path d="M467.9,286.6l7.1,1.4l5,5.7l0.7,1.4v7.8l-5,5.7l-2.8,1.4h-7.8l-5-4.3l-2.1-2.8l-0.7-5.7l2.1-5l3.6-3.6L467.9,286.6z"/>
<path d="M807.8,258.1l7.1,0.7l5.7,5l1.4,2.1v8.5l-4.3,5l-3.6,2.1h-7.1l-5.7-4.3l-2.1-2.8l-0.7-5.7l2.1-5l5.7-5L807.8,258.1z"/>
<path d="M495.6,201.2l7.1,0.7l5,5l1.4,2.8v7.8l-4.3,5l-3.6,2.1h-7.1l-4.3-2.8l-3.6-4.3l-0.7-5.7l2.1-5l5.7-5L495.6,201.2z"/>
<path d="M922.3,172.8l6.4,0.7l5.7,5l1.4,2.8v7.1l-2.8,4.3l-5,3.6h-7.1l-4.3-2.8l-3.6-4.3l-0.7-5.7l1.4-4.3l3.6-3.6l2.8-2.1
	L922.3,172.8z"/>
<path d="M808.5,172.8l6.4,0.7l5.7,5l1.4,2.8v7.1l-2.8,4.3l-3.6,2.8l-1.4,0.7h-7.1l-3.6-2.1l-4.3-5l-0.7-5.7l2.1-5l5.7-5L808.5,172.8
	z"/>
<path d="M1121.4,1139.9l6.4,0.7l5.7,5l1.4,2.1v8.5l-5,5.7l-2.8,1.4h-7.1l-4.3-2.8l-3.6-5l-0.7-5l2.1-5l5.7-5L1121.4,1139.9z"/>
<path d="M1120.7,1111.5l7.1,0.7l5.7,5l1.4,2.8v7.1l-2.8,4.3l-5,3.6h-7.1l-4.3-2.8l-3.6-4.3l-0.7-5.7l1.4-4.3l5-5L1120.7,1111.5z"/>
<path d="M1036.8,1111.5l6.4,0.7l5,5l1.4,2.8v7.8l-5,5.7l-2.8,1.4h-7.1l-3.6-2.1l-4.3-5.7v-7.8l5-5.7L1036.8,1111.5z"/>
<path d="M694.8,1083l6.4,0.7l5.7,5l1.4,2.8v7.8l-5,5.7l-2.8,1.4h-7.1l-3.6-2.1l-4.3-5l-0.7-5.7l2.1-5l5.7-5L694.8,1083z"/>
<path d="M581.7,1054.6l7.1,1.4l5,5.7l0.7,1.4v7.8l-5,5.7l-2.8,1.4h-7.1l-4.3-2.8l-3.6-4.3l-0.7-5.7l2.1-5l3.6-3.6L581.7,1054.6z"/>
<path d="M1065.2,997.7l5.7,0.7l5.7,5l1.4,2.8v7.8l-4.3,5l-3.6,2.1h-7.1l-3.6-2.1l-4.3-5.7l-0.7-4.3l1.4-5l3.6-3.6l2.8-2.1
	L1065.2,997.7z"/>
<path d="M581.7,969.2l7.1,1.4l5.7,6.4v8.5l-5,5.7l-2.8,1.4h-7.1l-3.6-2.1l-3.6-4.3l-1.4-5.7l1.4-5l5-5L581.7,969.2z"/>
<path d="M1122.1,940.8l6.4,0.7l5.7,5.7l0.7,1.4v8.5l-4.3,5l-3.6,2.1h-7.1l-4.3-2.8l-3.6-5l-0.7-5l2.1-5l5.7-5L1122.1,940.8z"/>
<path d="M951.5,883.9l7.1,1.4l5,5.7l0.7,1.4v7.8l-5,5.7l-2.8,1.4h-7.1l-4.3-2.8l-3.6-5l-0.7-5.7l2.1-4.3l3.6-3.6L951.5,883.9z"/>
<path d="M182.8,883.9l6.4,0.7l5.7,5l1.4,2.8v7.8l-4.3,5l-3.6,2.1h-7.1l-4.3-2.8l-3.6-4.3l-0.7-5.7l2.1-5l5.7-5L182.8,883.9z"/>
<path d="M637.9,855.5l6.4,0.7l5.7,5l1.4,2.1v8.5l-5,5.7l-2.8,1.4h-7.1l-4.3-2.8l-3.6-4.3v-8.5l5-5.7L637.9,855.5z"/>
<path d="M979.9,827l7.1,1.4l5,5.7l0.7,1.4v7.1l-2.8,4.3l-3.6,2.8l-1.4,0.7h-7.1l-3.6-2.1l-4.3-5l-0.7-5.7l2.1-5l3.6-3.6L979.9,827z"
	/>
<path d="M752.4,827l7.1,1.4l5,5l0.7,1.4v8.5l-5,5.7l-2.8,1.4h-7.8l-5.7-5l-1.4-2.8v-7.8l5-5.7L752.4,827z"/>
<path d="M723.9,827l7.1,1.4l5.7,6.4v8.5l-5,5.7l-2.8,1.4h-7.1l-3.6-2.1l-4.3-5.7l-0.7-5l2.1-5l3.6-3.6L723.9,827z"/>
<path d="M354.1,827l7.1,1.4l5.7,6.4v8.5l-5,5.7l-2.8,1.4h-7.8l-5.7-5l-1.4-2.1v-9.2l5.7-5.7L354.1,827z"/>
<path d="M780.1,770.1l7.1,0.7l5,5l1.4,2.1v8.5l-4.3,5l-3.6,2.1h-7.1l-4.3-2.8l-3.6-5l-0.7-5l2.1-5l5.7-5L780.1,770.1z"/>
<path d="M211.9,770.1l6.4,0.7l5,5l1.4,2.1v8.5l-5,5.7l-2.8,1.4h-7.1l-4.3-2.8l-3.6-5V778l5-5.7L211.9,770.1z"/>
<path d="M382.6,711.1l6.4,0.7l5,5l1.4,2.1v8.5l-5,5.7l-2.8,1.4h-7.1l-3.6-2.1l-4.3-5v-8.5l5-5.7L382.6,711.1z"/>
<path d="M866.1,711.1l6.4,0.7l5,5l1.4,2.8v7.8l-5,5.7l-2.8,1.4H864l-4.3-2.8l-3.6-5l-0.7-4.3l1.4-5l5-5L866.1,711.1z"/>
<path d="M1093.7,627.9l6.4,0.7l5,5l1.4,2.1v8.5l-4.3,5l-3.6,2.1h-7.1l-4.3-2.8l-3.6-4.3l-0.7-5.7l2.1-5l5.7-5L1093.7,627.9z"/>
<path d="M297.2,627.9l7.1,1.4l5,5.7l0.7,1.4v7.8l-5,5.7l-2.8,1.4h-7.8l-5-4.3l-2.1-2.8l-0.7-5.7l2.1-5l5.7-5L297.2,627.9z"/>
<path d="M1007.6,627.9l6.4,0.7l5.7,5l1.4,2.8v7.1l-2.8,4.3l-3.6,2.8l-1.4,0.7h-7.1l-3.6-2.1l-4.3-5l-0.7-5.7l2.1-5l5.7-5
	L1007.6,627.9z"/>
<path d="M1122.1,599.5l7.1,1.4l5,5.7l0.7,1.4v7.1l-2.8,4.3l-3.6,2.8l-1.4,0.7h-7.8l-5-4.3l-2.1-2.8l-0.7-5.7l2.1-5l3.6-3.6
	L1122.1,599.5z"/>
<path d="M951.5,514.1l7.1,1.4l5,5.7l0.7,1.4v7.1l-2.8,4.3l-3.6,2.8l-1.4,0.7h-7.8l-5-4.3l-2.1-3.6l-0.7-5l2.1-5l3.6-3.6L951.5,514.1
	z"/>
<path d="M809.2,514.1l7.1,1.4l5.7,6.4v8.5l-4.3,5l-3.6,2.1h-7.1l-4.3-2.8l-3.6-4.3l-0.7-5.7l1.4-4.3l5-5L809.2,514.1z"/>
<path d="M155,457.2l7.1,1.4l5.7,6.4v8.5l-5,5.7l-2.8,1.4h-7.1l-4.3-2.8l-3.6-5l-0.7-5l2.1-5l3.6-3.6L155,457.2z"/>
<path d="M496.4,428.8l7.1,1.4l5.7,6.4v7.8l-2.8,4.3l-3.6,2.8l-1.4,0.7h-7.8l-5.7-5l-2.1-6.4l0.7-5l2.8-3.6l4.3-2.8L496.4,428.8z"/>
<path d="M524.8,400.4l7.1,1.4l5,5.7l0.7,1.4v7.8l-5,5.7l-2.8,1.4H522l-5-4.3l-2.1-3.6l-0.7-4.3l1.4-5l3.6-3.6l2.8-2.1L524.8,400.4z"
	/>
<path d="M837.7,315l6.4,0.7l5,5l1.4,2.1v8.5l-4.3,5l-3.6,2.1h-7.1l-4.3-2.8l-3.6-4.3l-0.7-5.7l2.1-5l3.6-3.6L837.7,315z"/>
<path d="M923,315l5.7,0.7l5.7,5l1.4,2.8v7.8l-5,5.7l-2.8,1.4h-7.1l-3.6-2.1l-4.3-5l-0.7-5l1.4-5l5-5L923,315z"/>
<path d="M808.5,286.6l7.1,0.7l5,5l1.4,2.8v7.8l-5,5.7l-2.8,1.4h-7.1l-3.6-2.1l-3.6-4.3l-0.7-1.4v-7.8l5-5.7L808.5,286.6z"/>
<path d="M780.8,144.4l5.7,0.7l5.7,5l1.4,2.8v7.8l-5,5.7l-2.8,1.4h-7.1l-3.6-2.1l-3.6-4.3l-0.7-1.4v-7.8l5-5.7L780.8,144.4z"/>
<path d="M723.2,144.4l6.4,0.7l5,4.3l2.1,3.6v7.8l-4.3,5l-3.6,2.1h-7.1l-3.6-2.1L714,160l-0.7-5l2.1-5l5.7-5L723.2,144.4z"/>
<path d="M950,1139.9l7.1,0.7l5.7,5l1.4,2.1v8.5l-5,5.7l-2.8,1.4h-7.1l-4.3-2.8l-3.6-5l-0.7-4.3l1.4-5l5-5L950,1139.9z"/>
<path d="M923,1111.5l7.1,1.4l5,5l0.7,1.4v8.5l-5,5.7l-2.8,1.4h-7.1l-4.3-2.8l-3.6-5l-0.7-4.3l1.4-5l3.6-3.6l2.8-2.1L923,1111.5z"/>
<path d="M438,1111.5l7.1,0.7l5.7,5l1.4,2.8v7.1l-2.8,4.3l-3.6,2.8l-1.4,0.7h-7.1l-3.6-2.1l-4.3-5v-8.5l5-5.7L438,1111.5z"/>
<path d="M1093.7,1083l5.7,0.7l5.7,5l1.4,2.8v7.8l-4.3,5l-3.6,2.1h-7.1l-4.3-2.8l-3.6-5l-0.7-5l2.1-5l5.7-5L1093.7,1083z"/>
<path d="M411,1026.1l7.1,1.4l5.7,6.4v8.5l-4.3,5l-3.6,2.1h-7.1l-4.3-2.8l-3.6-5l-0.7-5l2.1-5l3.6-3.6L411,1026.1z"/>
<path d="M1093.7,997.7l7.1,1.4l5.7,6.4v8.5l-4.3,5l-3.6,2.1h-7.1l-4.3-2.8l-3.6-4.3l-0.7-5l1.4-5l3.6-3.6l2.8-2.1L1093.7,997.7z"/>
<path d="M752.4,997.7l6.4,0.7l5.7,5.7l0.7,1.4v8.5l-4.3,5l-3.6,2.1h-7.1l-4.3-2.8l-3.6-5v-7.8l5-5.7L752.4,997.7z"/>
<path d="M866.1,997.7l5.7,0.7l5.7,5l1.4,2.8v7.8l-5,5.7l-2.8,1.4H864l-4.3-2.8l-3.6-5l-0.7-5l2.1-5l5.7-5L866.1,997.7z"/>
<path d="M1149.9,940.8l6.4,0.7l5.7,5l1.4,2.8v7.1l-2.8,4.3l-3.6,2.8l-1.4,0.7h-7.1l-3.6-2.1l-4.3-5v-9.2l5.7-5.7L1149.9,940.8z"/>
<path d="M1122.1,912.4l5.7,0.7l5.7,5l1.4,2.8v7.8l-4.3,5l-3.6,2.1l-3.6,0.7l-6.4-2.1l-4.3-5l-1.4-6.4l2.1-5l5.7-5L1122.1,912.4z"/>
<path d="M695.5,883.9l7.1,1.4l5,5.7l0.7,1.4v7.8l-5,5.7l-2.8,1.4h-7.1l-4.3-2.8l-3.6-5l-0.7-4.3l1.4-5l3.6-3.6l2.8-2.1L695.5,883.9z
	"/>
<path d="M610.1,827l5.7,0.7l5.7,5l1.4,2.8v7.8l-5,5.7l-2.8,1.4H608l-3.6-2.1l-4.3-5.7v-7.8l2.8-4.3l4.3-2.8L610.1,827z"/>
<path d="M354.1,741.7l7.1,1.4l5,5.7l0.7,1.4v7.1l-2.8,4.3l-3.6,2.8l-1.4,0.7h-7.8l-5.7-5l-1.4-2.1l-0.7-5l1.4-5l5-5L354.1,741.7z"/>
<path d="M495.6,741.7l6.4,0.7l5.7,5l1.4,2.8v7.1l-2.8,4.3l-3.6,2.8l-1.4,0.7h-7.8l-5-4.3l-2.1-2.8v-8.5l5-5.7L495.6,741.7z"/>
<path d="M325.7,711.1l7.1,1.4l5,5.7l0.7,1.4v7.8l-4.3,5l-3.6,2.1h-7.1l-4.3-2.8l-3.6-4.3l-0.7-5.7l2.1-5l3.6-3.6L325.7,711.1z"/>
<path d="M894.6,627.9l7.1,1.4l5,5.7l0.7,1.4v7.8l-5,5.7l-2.8,1.4h-7.1l-4.3-2.8l-2.8-3.6l-1.4-5.7l1.4-5l3.6-3.6l2.8-2.1
	L894.6,627.9z"/>
<path d="M838.4,627.9l5.7,0.7l5,5l1.4,2.1v8.5l-5,5.7l-2.8,1.4h-7.1l-3.6-2.1l-4.3-5.7v-7.8l5-5.7l2.1-1.4L838.4,627.9z"/>
<path d="M240.4,599.5l7.1,1.4l5.7,6.4v8.5l-4.3,5l-3.6,2.1h-7.1l-4.3-2.8l-3.6-4.3l-0.7-6.4l2.1-4.3l3.6-3.6L240.4,599.5z"/>
<path d="M808.5,571l6.4,0.7l5.7,5l1.4,2.1v8.5l-5,5.7l-2.8,1.4h-7.1l-3.6-2.1l-4.3-5.7v-7.8l5-5.7L808.5,571z"/>
<path d="M780.1,514.1l6.4,0.7l5.7,5l1.4,2.8v7.8l-4.3,5l-3.6,2.1h-7.1l-4.3-2.8l-3.6-5l-0.7-5l2.1-5l5.7-5L780.1,514.1z"/>
<path d="M780.8,485.7l5.7,0.7l5.7,5l1.4,2.8v7.8l-4.3,5l-3.6,2.1h-7.1l-4.3-2.8l-3.6-5l-0.7-5l2.1-5l3.6-3.6L780.8,485.7z"/>
<path d="M553.2,400.4l5.7,0.7l5.7,5l1.4,2.8v7.8l-5,5.7l-2.8,1.4h-7.1l-4.3-2.8l-3.6-5l-0.7-4.3l1.4-5l3.6-3.6l2.8-2.1L553.2,400.4z
	"/>
<path d="M1093.7,371.9l7.1,1.4l5.7,6.4v8.5l-5,5.7l-2.8,1.4h-7.1l-3.6-2.1l-4.3-5.7V379l2.8-3.6l4.3-2.8L1093.7,371.9z"/>
<path d="M866.1,371.9l7.1,1.4l5,5.7l0.7,1.4v7.8l-4.3,5l-3.6,2.1H864l-4.3-2.8l-3.6-5l-0.7-5.7l2.1-4.3l3.6-3.6L866.1,371.9z"/>
<path d="M866.1,286.6l5.7,0.7l5.7,5l1.4,2.8v7.1l-2.8,4.3l-3.6,2.8l-1.4,0.7h-7.8l-5-4.3l-2.1-2.8v-8.5l2.8-4.3l4.3-2.8L866.1,286.6
	z"/>
<path d="M694.8,286.6l6.4,0.7l5.7,5l1.4,2.8v7.8l-5,5.7l-2.8,1.4h-7.1l-3.6-2.1l-4.3-5l-0.7-5l1.4-5l5-5L694.8,286.6z"/>
<path d="M638.6,172.8l7.1,1.4l5.7,6.4v8.5l-4.3,5l-3.6,2.1h-7.1l-4.3-2.8l-3.6-4.3l-0.7-5.7l2.1-5l3.6-3.6L638.6,172.8z"/>
<path d="M637.9,1139.9l6.4,0.7l5.7,5l1.4,2.1v8.5l-5,5.7l-2.8,1.4h-7.1l-4.3-2.8l-3.6-5l-0.7-4.3l1.4-5l5-5L637.9,1139.9z"/>
<path d="M439.5,1083l7.1,1.4l5,5.7l0.7,1.4v7.8l-4.3,5l-3.6,2.1h-7.1l-4.3-2.8l-3.6-5l-0.7-5l2.1-5l3.6-3.6L439.5,1083z"/>
<path d="M581.7,940.8l5.7,0.7l5.7,5l1.4,2.8v7.8l-5,5.7l-2.8,1.4h-7.1l-4.3-2.8l-3.6-5l-0.7-5l2.1-5l5.7-5L581.7,940.8z"/>
<path d="M694.8,912.4l6.4,0.7l5.7,5l1.4,2.8v7.8l-5,5.7l-2.8,1.4h-7.1l-3.6-2.1l-4.3-5v-8.5l5-5.7L694.8,912.4z"/>
<path d="M553.2,855.5l7.1,1.4l5,5.7l0.7,1.4v7.8l-4.3,5l-3.6,2.1h-7.1l-4.3-2.8l-3.6-5l-0.7-5.7l2.1-4.3l3.6-3.6L553.2,855.5z"/>
<path d="M524.8,798.6l5.7,0.7l5.7,5l1.4,2.8v7.8l-4.3,5l-3.6,2.1h-7.1l-4.3-2.8l-3.6-5l-0.7-5l2.1-5l5.7-5L524.8,798.6z"/>
<path d="M153.6,711.1l7.1,0.7l5.7,5l1.4,2.8v7.1L165,731l-3.6,2.8l-1.4,0.7h-7.1l-3.6-2.1l-4.3-5.7v-7.8l5-5.7L153.6,711.1z"/>
<path d="M125.9,599.5l6.4,0.7l5.7,5l1.4,2.8v7.8l-4.3,5l-3.6,2.1h-7.1l-3.6-2.1l-4.3-5.7l-0.7-5l2.1-5l5.7-5L125.9,599.5z"/>
<path d="M183.5,514.1l7.1,1.4l5.7,6.4v8.5l-4.3,5l-3.6,2.1h-7.1l-5.7-4.3l-2.1-2.8l-0.7-5.7l2.1-5l3.6-3.6L183.5,514.1z"/>
<path d="M1149.9,457.2l6.4,0.7l5.7,5l1.4,2.8v7.1l-4.3,5.7l-3.6,2.1h-7.1l-3.6-2.1l-4.3-5l-0.7-5l1.4-5l5-5L1149.9,457.2z"/>
<path d="M609.4,457.2l6.4,0.7l5.7,5l1.4,2.1v8.5l-5,5.7l-2.8,1.4H608l-4.3-2.8l-3.6-5l-0.7-4.3l1.4-5l5-5L609.4,457.2z"/>
<path d="M496.4,371.9l7.1,1.4l5,5.7l0.7,1.4v7.1l-2.8,4.3l-3.6,2.8l-1.4,0.7h-7.1l-3.6-2.1l-4.3-5l-0.7-5.7l2.1-5l3.6-3.6
	L496.4,371.9z"/>
<path d="M439.5,258.1l7.1,1.4l5,5.7l0.7,1.4v7.1l-2.8,4.3l-3.6,2.8l-1.4,0.7h-7.8l-5-4.3l-2.1-2.8l-0.7-5.7l2.1-5l5.7-5L439.5,258.1
	z"/>
<path d="M354.1,201.2l6.4,0.7l5,5l1.4,2.8v7.8l-4.3,5l-3.6,2.1H352l-4.3-2.8l-3.6-5l-0.7-4.3l1.4-5l5-5L354.1,201.2z"/>
<path d="M723.9,172.8l7.1,1.4l5,5l0.7,1.4v8.5l-5,5.7l-2.8,1.4h-7.1l-3.6-2.1l-4.3-5.7v-7.8l5-5.7L723.9,172.8z"/>
<path d="M750.9,172.8l7.1,0.7l5.7,5l1.4,2.8v7.1l-2.8,4.3l-3.6,2.8l-1.4,0.7h-7.1l-3.6-2.1l-3.6-4.3l-0.7-1.4v-7.8l5-5.7
	L750.9,172.8z"/>
<path d="M495.6,172.8l6.4,0.7l5.7,5l1.4,2.8v7.8l-4.3,5l-3.6,2.1h-7.1l-5.7-4.3l-2.1-2.8l-0.7-5.7l2.1-5l5.7-5L495.6,172.8z"/>
<path d="M552.5,144.4l6.4,0.7l5.7,5l1.4,2.8v7.8l-5,5.7l-2.8,1.4h-7.1l-3.6-2.1l-4.3-5.7v-7.8l5-5.7L552.5,144.4z"/>
<path d="M723.9,1111.5l7.1,1.4l5,5.7l0.7,1.4v7.8l-4.3,5l-3.6,2.1h-7.1l-4.3-2.8l-3.6-5l-0.7-5l2.1-5l3.6-3.6L723.9,1111.5z"/>
<path d="M467.9,1083l7.1,1.4l5.7,6.4v7.8l-2.8,4.3l-3.6,2.8l-1.4,0.7h-7.1l-3.6-2.1l-4.3-5.7l-0.7-4.3l1.4-5l5-5L467.9,1083z"/>
<path d="M752.4,1026.1l7.1,1.4l5.7,6.4v8.5l-5,5.7l-2.8,1.4h-7.1l-3.6-2.1l-4.3-5.7v-7.8l5-5.7L752.4,1026.1z"/>
<path d="M553.2,1026.1l7.1,1.4l5,5.7l0.7,1.4v7.1l-2.8,4.3l-3.6,2.8l-1.4,0.7h-7.8l-5.7-5l-1.4-2.8v-7.8l5-5.7L553.2,1026.1z"/>
<path d="M979.9,969.2l7.1,1.4l5,5.7l0.7,1.4v7.1l-2.8,4.3l-3.6,2.8l-1.4,0.7h-7.1l-3.6-2.1l-4.3-5l-0.7-5l1.4-5l3.6-3.6l2.8-2.1
	L979.9,969.2z"/>
<path d="M294.4,856.2h9.2l5.7,5.7l0.7,1.4v8.5l-5,5.7l-2.8,1.4h-7.8l-5-4.3l-2.1-2.8v-8.5l5-5.7L294.4,856.2z"/>
<path d="M1149.9,741.7l6.4,0.7l5.7,5l1.4,2.8v7.1l-4.3,5.7l-3.6,2.1h-7.1l-4.3-2.8l-3.6-5l-0.7-5l2.1-5l5.7-5L1149.9,741.7z"/>
<path d="M780.8,741.7l5.7,0.7l5.7,5l1.4,2.8v7.8l-4.3,5l-3.6,2.1h-7.1l-4.3-2.8l-3.6-5l-0.7-5l2.1-5l5.7-5L780.8,741.7z"/>
<path d="M240.4,684.8l7.1,1.4l5,5.7l0.7,1.4v7.1l-2.8,4.3l-3.6,2.8l-1.4,0.7h-7.1l-3.6-2.1l-4.3-5.7l-0.7-5l2.1-5l3.6-3.6
	L240.4,684.8z"/>
<path d="M923,656.4l7.1,1.4l5,5.7l0.7,1.4v7.1l-2.8,4.3l-3.6,2.8l-1.4,0.7h-7.8l-5.7-5l-1.4-2.8v-8.5l5.7-5.7L923,656.4z"/>
<path d="M467.9,627.9l7.1,1.4l5,5.7l0.7,1.4v7.8l-4.3,5l-3.6,2.1h-7.1l-4.3-2.8l-3.6-4.3l-0.7-5l1.4-5l5-5L467.9,627.9z"/>
<path d="M325.7,542.6l7.1,1.4l5,5.7l0.7,1.4v7.8l-4.3,5l-3.6,2.1h-7.1l-4.3-2.8l-3.6-4.3l-0.7-5.7l2.1-5l5.7-5L325.7,542.6z"/>
<path d="M752.4,457.2l7.1,1.4l5,5.7l0.7,1.4v7.1l-2.8,4.3l-3.6,2.8l-1.4,0.7h-7.1l-3.6-2.1l-4.3-5v-8.5l5-5.7L752.4,457.2z"/>
<path d="M125.9,457.2l6.4,0.7l5.7,5l1.4,2.8v7.8l-5,5.7l-2.8,1.4h-7.1l-4.3-2.8l-3.6-5v-7.8l5-5.7L125.9,457.2z"/>
<path d="M781.5,229.7l5.7,0.7l5,5l1.4,2.8v7.8l-5,5.7l-2.8,1.4h-7.1l-3.6-2.1l-4.3-5.7v-7.8l5-5.7l2.1-1.4L781.5,229.7z"/>
<path d="M752.4,144.4l5.7,0.7l5.7,5l1.4,2.8v7.8l-4.3,5l-3.6,2.1h-7.1L746,165l-3.6-5l-0.7-4.3l1.4-5l5-5L752.4,144.4z"/>
<path d="M695.5,115.9l5.7,0.7l5.7,5l1.4,2.8v7.8l-5,5.7l-2.8,1.4h-7.1l-4.3-2.8l-3.6-5v-7.8l5-5.7L695.5,115.9z"/>
<path d="M411,115.9l5.7,0.7l5.7,5l1.4,2.8v7.8l-5,5.7l-2.8,1.4h-7.1l-4.3-2.8l-3.6-5v-7.8l5-5.7L411,115.9z"/>
<path d="M354.1,115.9l5.7,0.7l5.7,5l1.4,2.8v7.8l-5,5.7l-2.8,1.4H352l-3.6-2.1l-4.3-5.7v-7.8l5-5.7L354.1,115.9z"/>
<path d="M723.9,1139.9l7.1,1.4l5.7,6.4v8.5l-5,5.7l-2.8,1.4h-7.1l-4.3-2.8l-3.6-5v-7.8l5-5.7L723.9,1139.9z"/>
<path d="M1064.5,1139.9l6.4,0.7l5.7,5l1.4,2.8v7.1l-2.8,4.3l-5,3.6h-7.1l-4.3-2.8l-3.6-5l-0.7-5l2.1-5l5.7-5L1064.5,1139.9z"/>
<path d="M524.8,1083l7.1,1.4l5,5.7l0.7,1.4v7.1l-2.8,4.3l-3.6,2.8l-1.4,0.7h-7.1l-3.6-2.1l-4.3-5.7l-0.7-4.3l1.4-5l3.6-3.6l2.8-2.1
	L524.8,1083z"/>
<path d="M411,1054.6l7.1,1.4l5,5.7l0.7,1.4v7.8l-5,5.7l-2.8,1.4h-7.1l-3.6-2.1l-4.3-5.7v-7.8l5-5.7L411,1054.6z"/>
<path d="M667,997.7l7.1,1.4l5,5.7l0.7,1.4v7.1l-2.8,4.3l-5,3.6h-7.1l-4.3-2.8l-3.6-4.3v-9.2l2.8-3.6l4.3-2.8L667,997.7z"/>
<path d="M1122.1,969.2l7.1,1.4l5,5.7l0.7,1.4v7.1l-2.8,4.3l-3.6,2.8l-1.4,0.7h-7.1l-3.6-2.1l-4.3-5.7l-0.7-4.3l1.4-5l5-5
	L1122.1,969.2z"/>
<path d="M610.1,969.2l7.1,1.4l5,5.7l0.7,1.4v7.8l-5,5.7l-2.8,1.4H608l-4.3-2.8l-3.6-5l-0.7-4.3l1.4-5l5-5L610.1,969.2z"/>
<path d="M126.6,827l7.1,1.4l5.7,6.4v8.5l-5,5.7l-2.8,1.4h-7.1l-4.3-2.8l-3.6-5v-7.8l5-5.7L126.6,827z"/>
<path d="M667,798.6l5.7,0.7l5.7,5l1.4,2.8v7.8l-4.3,5L672,822h-7.1l-4.3-2.8l-3.6-5l-0.7-5l2.1-5l5-4.3L667,798.6z"/>
<path d="M126.6,798.6l5.7,0.7l5.7,5l1.4,2.8v7.1l-2.8,4.3l-5,3.6h-7.1l-4.3-2.8l-3.6-5l-0.7-5l2.1-5l5.7-5L126.6,798.6z"/>
<path d="M125.9,770.1l6.4,0.7l5.7,5l1.4,2.8v7.1l-2.8,4.3l-5,3.6h-7.1l-5.7-4.3l-2.1-3.6l-0.7-5l2.1-5l5.7-5L125.9,770.1z"/>
<path d="M496.4,711.1l7.1,1.4l5,5.7l0.7,1.4v7.1l-2.8,4.3l-5,3.6h-7.1l-4.3-2.8l-3.6-5l-0.7-5l2.1-5l3.6-3.6L496.4,711.1z"/>
<path d="M126.6,711.1l5.7,0.7l5.7,5l1.4,2.1v8.5l-4.3,5l-3.6,2.1h-7.1l-4.3-2.8l-3.6-5l-0.7-4.3l1.4-5l6.4-5.7L126.6,711.1z"/>
<path d="M467.2,684.8l6.4,0.7l5.7,5l1.4,2.8v7.1l-2.8,4.3l-3.6,2.8l-1.4,0.7h-7.1l-4.3-2.8l-3.6-4.3v-8.5l5-5.7L467.2,684.8z"/>
<path d="M126.6,571l5.7,0.7l5.7,5l1.4,2.8v7.8l-5,5.7l-2.8,1.4h-7.1l-4.3-2.8l-3.6-5v-7.8l5-5.7L126.6,571z"/>
<path d="M153.6,485.7l7.1,0.7l5.7,5l1.4,2.8v7.1l-2.8,4.3l-3.6,2.8l-1.4,0.7h-7.1l-4.3-2.8l-3.6-5v-7.8l5-5.7L153.6,485.7z"/>
<path d="M439.5,400.4l7.1,1.4l5,5.7l0.7,1.4v7.1l-2.8,4.3l-3.6,2.8l-1.4,0.7h-7.1l-4.3-2.8l-3.6-5l-0.7-5l2.1-5l3.6-3.6L439.5,400.4
	z"/>
<path d="M183.5,371.9l7.1,1.4l5,5.7l0.7,1.4v7.8l-5,5.7l-2.8,1.4h-7.1l-4.3-2.8l-3.6-4.3v-8.5l5-5.7L183.5,371.9z"/>
<path d="M155,371.9l7.1,1.4l5,5.7l0.7,1.4v7.8l-4.3,5l-3.6,2.1h-7.1l-4.3-2.8l-3.6-5l-0.7-5l2.1-5l5.7-5L155,371.9z"/>
<path d="M581.7,343.5l7.1,1.4l5,5.7l0.7,1.4v7.1l-2.8,4.3l-3.6,2.8l-1.4,0.7h-7.1l-4.3-2.8l-3.6-4.3v-9.2l5.7-5.7L581.7,343.5z"/>
<path d="M721.1,315.7h8.5l5.7,5l1.4,2.8v7.8l-5,5.7l-2.8,1.4h-7.8l-5-4.3l-2.1-2.8l-0.7-5l1.4-5l5-5L721.1,315.7z"/>
<path d="M467.9,144.4l7.1,1.4l5,5.7l0.7,1.4v7.8l-5,5.7l-2.8,1.4h-7.1l-3.6-2.1L458,160v-7.8l5-5.7L467.9,144.4z"/>
<path d="M381.9,144.4l6.4,0.7l5.7,5l1.4,2.8v7.1l-2.8,4.3l-3.6,2.8l-1.4,0.7h-7.1l-4.3-2.8l-3.6-4.3v-8.5l5-5.7L381.9,144.4z"/>
<path d="M524.8,115.9l5.7,0.7l5.7,5l1.4,2.8v7.8l-5,5.7l-2.8,1.4h-7.1l-3.6-2.1l-4.3-5.7v-7.8l5-5.7L524.8,115.9z"/>
<path d="M382.6,115.9l5.7,0.7l5.7,5l1.4,2.8v7.8l-4.3,5l-3.6,2.1h-7.1l-4.3-2.8l-3.6-5v-7.8l5-5.7L382.6,115.9z"/>
<path d="M1008.4,1139.9l7.1,1.4l5,5.7l0.7,1.4v7.1l-2.8,4.3l-3.6,2.8l-1.4,0.7h-7.1l-4.3-2.8l-3.6-4.3v-8.5l5-5.7L1008.4,1139.9z"/>
<path d="M979.9,1139.9l7.1,1.4l5,5.7l0.7,1.4v7.8l-5,5.7l-2.8,1.4h-7.1l-5.7-4.3l-2.1-3.6v-8.5l5.7-5.7L979.9,1139.9z"/>
<path d="M1122.1,1083l5.7,0.7l5.7,5l1.4,2.8v7.1l-2.8,4.3l-5,3.6h-7.1l-5.7-4.3l-2.1-2.8l-0.7-5l1.4-5l5-5L1122.1,1083z"/>
<path d="M639.3,940.8l6.4,1.4l5,5.7l0.7,1.4v7.1l-2.8,4.3l-3.6,2.8l-1.4,0.7h-7.8l-5-4.3l-2.1-2.8v-8.5l5-5.7l2.1-1.4L639.3,940.8z"
	/>
<path d="M1149.9,912.4l6.4,0.7l5.7,5l1.4,2.8v7.1l-4.3,5.7l-3.6,2.1h-7.1l-3.6-2.1l-4.3-5v-8.5l5-5.7L1149.9,912.4z"/>
<path d="M126.6,912.4l5.7,0.7l5.7,5l1.4,2.8v7.8l-5,5.7l-2.8,1.4h-7.1l-4.3-2.8l-3.6-5v-7.8l5-5.7L126.6,912.4z"/>
<path d="M581.7,883.9l7.1,1.4l5,5.7l0.7,1.4v7.1l-2.8,4.3l-3.6,2.8l-1.4,0.7h-7.1l-4.3-2.8l-2.8-3.6l-0.7-1.4V891l5.7-5.7
	L581.7,883.9z"/>
<path d="M126.6,741.7l5.7,0.7l5.7,5l1.4,2.8v7.1l-2.8,4.3l-5,3.6h-7.1l-5.7-4.3l-2.1-3.6l-0.7-5l2.1-5l5.7-5L126.6,741.7z"/>
<path d="M1150.6,571l5.7,0.7l5.7,5l1.4,2.8v7.1l-2.8,4.3l-5,3.6h-7.8l-5-4.3l-2.1-3.6v-7.8l5-5.7L1150.6,571z"/>
<path d="M379.7,571.7h9.2l5,5l1.4,2.1v8.5l-5,5.7l-2.8,1.4h-7.1l-3.6-2.1l-4.3-5v-8.5l5-5.7L379.7,571.7z"/>
<path d="M1062.4,344.2h8.5l5.7,5l1.4,2.8v7.8l-4.3,5l-3.6,2.1h-7.1l-4.3-2.8l-3.6-4.3l-0.7-5l1.4-5l5-5L1062.4,344.2z"/>
<path d="M692.6,344.2h8.5l5.7,5l1.4,2.8v7.8l-5,5.7l-2.8,1.4h-7.8l-5.7-5l-1.4-2.1v-8.5l5-5.7L692.6,344.2z"/>
<path d="M496.4,229.7l7.1,1.4l5,5.7l0.7,1.4v7.1l-2.8,4.3l-3.6,2.8l-1.4,0.7h-7.1l-4.3-2.8l-3.6-5l-0.7-4.3l1.4-5l5-5L496.4,229.7z"
	/>
<path class="st1" d="M923,144.4l5.7,0.7l5.7,5l1.4,2.8v7.1l-3.6,5l-4.3,2.8h-7.1l-4.3-2.8l-3.6-4.3l-0.7-5.7l2.1-5l5.7-5L923,144.4z
	"/>
<path d="M667,144.4l7.1,1.4l5,5.7l0.7,1.4v7.1l-2.8,4.3l-3.6,2.8l-1.4,0.7h-7.1l-3.6-2.1l-4.3-5.7v-7.8l5-5.7L667,144.4z"/>
<path d="M496.4,144.4l7.1,1.4l5,5.7l0.7,1.4v7.8l-4.3,5l-3.6,2.1h-7.1L490,165l-3.6-5l-0.7-4.3l1.4-5l5-5L496.4,144.4z"/>
<path d="M1150.6,1139.9l5.7,0.7l5.7,5l1.4,2.8v7.1l-2.8,4.3l-5,3.6h-7.1l-4.3-2.8l-3.6-4.3v-8.5l5-5.7L1150.6,1139.9z"/>
<path d="M638.6,1111.5l7.1,1.4l5,5.7l0.7,1.4v7.8l-4.3,5l-3.6,2.1h-7.1l-5.7-4.3l-2.1-3.6l-0.7-4.3l1.4-5l5-5L638.6,1111.5z"/>
<path d="M211.9,912.4l7.1,1.4l5,5.7l0.7,1.4v7.1l-2.8,4.3l-3.6,2.8l-1.4,0.7h-7.1l-5.7-4.3l-2.1-2.8v-9.2l5.7-5.7L211.9,912.4z"/>
<path d="M695.5,798.6l7.1,1.4l5,5.7l0.7,1.4v7.1l-2.8,4.3l-3.6,2.8l-1.4,0.7h-7.1l-3.6-2.1l-4.3-5.7v-7.8l5-5.7L695.5,798.6z"/>
<path d="M411,711.1l7.1,1.4l5,5.7l0.7,1.4v7.1L421,731l-3.6,2.8l-1.4,0.7h-7.1l-4.3-2.8l-3.6-5v-8.5l5.7-5.7L411,711.1z"/>
<path d="M1122.1,656.4l7.1,1.4l5,5.7l0.7,1.4v7.1l-2.8,4.3l-3.6,2.8l-1.4,0.7h-7.1l-4.3-2.8l-2.8-3.6l-0.7-1.4v-7.8l5-5.7
	L1122.1,656.4z"/>
<path d="M351.3,628.6h8.5l5.7,5l1.4,2.8v7.1l-2.8,4.3l-3.6,2.8l-1.4,0.7h-7.8l-5-4.3l-2.1-2.8v-8.5l5-5.7L351.3,628.6z"/>
<path d="M1122.1,428.8l7.1,1.4l5,5.7l0.7,1.4v7.8l-4.3,5l-3.6,2.1h-7.1l-4.3-2.8l-3.6-5l-0.7-5l2.1-5l5.7-5L1122.1,428.8z"/>
<path d="M126.6,428.8l5.7,0.7l5.7,5l1.4,2.8v7.8l-4.3,5l-3.6,2.1h-7.1l-4.3-2.8l-3.6-5v-7.8l5-5.7L126.6,428.8z"/>
<path d="M237.5,344.2h8.5l5.7,5l1.4,2.8v7.8l-4.3,5l-3.6,2.1h-7.1l-4.3-2.8l-3.6-4.3l-0.7-5l1.4-5l5-5L237.5,344.2z"/>
<path d="M638.6,286.6l7.1,1.4l5,5.7l0.7,1.4v7.1l-2.8,4.3l-5,3.6h-7.1l-3.6-2.1l-4.3-5.7v-7.8l2.8-4.3l4.3-2.8L638.6,286.6z"/>
<path d="M439.5,201.2l7.1,1.4l5,5.7l0.7,1.4v7.1l-2.8,4.3l-3.6,2.8l-1.4,0.7h-7.1l-4.3-2.8l-3.6-5v-7.8l5-5.7L439.5,201.2z"/>
<path d="M809.2,144.4l5.7,0.7l5.7,5l1.4,2.8v7.1l-2.8,4.3l-5,3.6h-7.1l-4.3-2.8l-3.6-5v-7.8l5-5.7L809.2,144.4z"/>
<path d="M581.7,144.4l7.1,1.4l5,5.7l0.7,1.4v7.8l-4.3,5l-3.6,2.1h-7.1l-4.3-2.8l-3.6-5v-7.8l5-5.7L581.7,144.4z"/>
<path d="M723.9,115.9l5.7,0.7l5.7,5l1.4,2.8v7.8l-4.3,5l-3.6,2.1h-7.1l-4.3-2.8l-3.6-5v-7.8l5-5.7L723.9,115.9z"/>
<path d="M667,115.9l5.7,0.7l5.7,5l1.4,2.8v7.8l-4.3,5l-3.6,2.1h-7.1l-4.3-2.8l-3.6-5v-7.8l5-5.7L667,115.9z"/>
<path d="M439.5,115.9l5.7,0.7l5.7,5l1.4,2.8v7.1l-2.8,4.3l-3.6,2.8l-1.4,0.7h-7.1l-4.3-2.8l-3.6-5v-7.8l5-5.7L439.5,115.9z"/>
<path d="M553.2,115.9l5.7,0.7l5.7,5l1.4,2.8v7.8l-4.3,5l-3.6,2.1h-7.1l-4.3-2.8l-3.6-5v-7.8l5-5.7L553.2,115.9z"/>
<path d="M749.5,1140.6h8.5l5.7,5l1.4,2.1v8.5l-5,5.7l-2.8,1.4h-7.1l-5.7-4.3l-2.1-3.6v-7.8l5-5.7L749.5,1140.6z"/>
<path d="M667,1139.9l7.1,1.4l5,5.7l0.7,1.4v7.1l-2.8,4.3l-3.6,2.8l-1.4,0.7h-7.1l-4.3-2.8l-3.6-5v-7.8l5-5.7L667,1139.9z"/>
<path d="M550.4,1140.6h8.5l5.7,5l1.4,2.1v8.5l-4.3,5l-3.6,2.1h-7.1l-4.3-2.8l-3.6-5v-7.8l5-5.7L550.4,1140.6z"/>
<path d="M408.2,1112.2h9.2l5.7,5.7l0.7,1.4v8.5l-4.3,5l-3.6,2.1h-7.1l-4.3-2.8l-3.6-5v-7.8l5-5.7L408.2,1112.2z"/>
<path d="M749.5,1083.7h8.5l5.7,5l1.4,2.8v7.1l-2.8,4.3l-3.6,2.8l-1.4,0.7h-7.8l-5-4.3l-2.1-2.8v-8.5l5-5.7L749.5,1083.7z"/>
<path d="M695.5,1054.6l7.1,1.4l5,5.7l0.7,1.4v7.8l-4.3,5l-3.6,2.1h-7.1l-5.7-4.3l-2.1-3.6v-8.5l5.7-5.7L695.5,1054.6z"/>
<path d="M721.1,941.5h8.5l5.7,5l1.4,2.8v7.1l-2.8,4.3l-3.6,2.8l-1.4,0.7h-7.1l-3.6-2.1l-4.3-5v-8.5l5-5.7L721.1,941.5z"/>
<path d="M294.4,913.1h8.5l5.7,5l1.4,2.8v7.1l-2.8,4.3l-3.6,2.8l-1.4,0.7h-7.1l-3.6-2.1l-4.3-5v-8.5l5-5.7L294.4,913.1z"/>
<path d="M1122.1,883.9l5.7,0.7l5.7,5l1.4,2.8v7.1l-2.8,4.3l-5,3.6h-7.1l-4.3-2.8l-3.6-5v-7.8l5-5.7L1122.1,883.9z"/>
<path d="M155,827l7.1,1.4l5,5.7l0.7,1.4v7.1l-2.8,4.3l-3.6,2.8l-1.4,0.7h-7.1l-4.3-2.8l-3.6-5v-7.8l5-5.7L155,827z"/>
<path d="M780.8,711.1l5.7,0.7l5.7,5l1.4,2.8v7.1l-2.8,4.3l-5,3.6h-7.1l-5.7-4.3l-2.1-3.6v-7.8l5-5.7L780.8,711.1z"/>
<path d="M638.6,457.2l7.1,1.4l5,5.7l0.7,1.4v7.1l-2.8,4.3L645,480l-1.4,0.7h-7.1l-4.3-2.8l-3.6-5v-7.8l5-5.7L638.6,457.2z"/>
<path d="M749.5,287.3h8.5l5.7,5l1.4,2.8v7.1l-2.8,4.3l-3.6,2.8l-1.4,0.7h-7.1l-3.6-2.1l-4.3-5v-8.5l5-5.7L749.5,287.3z"/>
<path d="M778,1140.6h8.5l5.7,5l1.4,2.8v7.1l-2.8,4.3l-3.6,2.8l-1.4,0.7h-7.1l-5.7-4.3l-2.1-2.8v-8.5l5-5.7L778,1140.6z"/>
<path d="M581.7,1139.9l7.1,1.4l5,5.7l0.7,1.4v7.1l-2.8,4.3l-3.6,2.8l-1.4,0.7h-7.1l-5.7-4.3l-2.1-3.6v-7.8l5-5.7L581.7,1139.9z"/>
<path d="M411,1139.9l7.1,1.4l5,5.7l0.7,1.4v7.1l-2.8,4.3l-5,3.6h-7.1l-4.3-2.8l-3.6-5v-7.8l5-5.7L411,1139.9z"/>
<path d="M183.5,855.5l7.1,1.4l5,5.7l0.7,1.4v7.1l-2.8,4.3l-5,3.6h-7.1l-5-3.6l-2.8-4.3l-0.7-5l2.1-5l5.7-5L183.5,855.5z"/>
<path d="M1150.6,711.1l5.7,0.7l5.7,5l1.4,2.8v7.1l-4.3,5.7l-3.6,2.1h-7.1l-4.3-2.8l-3.6-5v-7.8l5-5.7L1150.6,711.1z"/>
<path d="M496.4,656.4l5.7,0.7l5.7,5l1.4,2.8v7.1l-2.8,4.3l-3.6,2.8l-1.4,0.7h-7.1L490,677l-2.8-3.6l-0.7-1.4v-7.8l5-5.7L496.4,656.4
	z"/>
<path d="M496.4,542.6l5.7,0.7l5.7,5l1.4,2.8v7.1l-2.8,4.3l-3.6,2.8l-1.4,0.7h-7.1l-4.3-2.8l-2.8-3.6l-0.7-1.4v-7.8l5-5.7
	L496.4,542.6z"/>
<path d="M1119.3,372.6h8.5l5.7,5l1.4,2.8v7.1l-2.8,4.3l-3.6,2.8l-1.4,0.7h-7.1l-5.7-4.3l-2.1-2.8v-8.5l5-5.7L1119.3,372.6z"/>
<path d="M695.5,258.1l7.1,1.4l5,5.7l0.7,1.4v7.8l-4.3,5l-3.6,2.1h-7.1l-5.7-4.3l-2.1-3.6V266l5-5.7L695.5,258.1z"/>
<path d="M806.4,1112.2h8.5l5.7,5l1.4,2.8v7.1l-2.8,4.3l-5,3.6h-7.1l-3.6-2.1l-4.3-5v-8.5l5-5.7L806.4,1112.2z"/>
<path d="M1150.6,1026.1l5.7,0.7l5.7,5l1.4,2.8v7.1l-2.8,4.3l-5,3.6h-7.1l-3.6-2.1l-4.3-5.7v-7.8l5-5.7L1150.6,1026.1z"/>
<path d="M351.3,1026.8h8.5l5.7,5l1.4,2.8v7.1l-2.8,4.3l-5,3.6H352l-4.3-2.8l-3.6-5v-7.8l5-5.7L351.3,1026.8z"/>
<path d="M266,884.6h8.5l5.7,5l1.4,2.8v7.8l-5,5.7l-2.8,1.4h-7.1l-4.3-2.8l-3.6-5v-7.8l5-5.7L266,884.6z"/>
<path d="M379.7,685.5h8.5l5.7,5l1.4,2.8v7.8l-4.3,5l-3.6,2.1h-7.1l-4.3-2.8l-3.6-5l-0.7-4.3l1.4-5L379.7,685.5z"/>
<path d="M806.4,657.1h8.5l5.7,5l1.4,2.8v7.1l-2.8,4.3l-3.6,2.8l-1.4,0.7h-7.1l-3.6-2.1l-4.3-5.7v-7.8l5-5.7L806.4,657.1z"/>
<path d="M294.4,514.8h8.5l5.7,5l1.4,2.8v7.1l-2.8,4.3l-3.6,2.8l-1.4,0.7h-7.1l-3.6-2.1l-4.3-5.7V522l5-5.7L294.4,514.8z"/>
<path d="M863.3,1112.2h8.5l5.7,5l1.4,2.8v7.1l-2.8,4.3l-5,3.6H864l-4.3-2.8l-3.6-5v-7.8l5-5.7L863.3,1112.2z"/>
<path d="M1147.7,344.2h8.5l5.7,5l1.4,2.8v7.1l-2.8,4.3l-5,3.6h-7.1l-3.6-2.1l-4.3-5v-8.5l5-5.7L1147.7,344.2z"/>
<path d="M351.3,1140.6h8.5l5.7,5l1.4,2.8v7.1l-2.8,4.3l-5,3.6H352l-4.3-2.8l-3.6-5v-7.8l5-5.7L351.3,1140.6z"/>
<path d="M579.6,799.3h7.8l5.7,5l1.4,2.8v7.1l-2.8,4.3l-3.6,2.8l-1.4,0.7h-7.1l-4.3-2.8l-3.6-5v-7.8l5-5.7L579.6,799.3z"/>
<path d="M778.7,685.5h7.8l5.7,5l1.4,2.8v7.1l-2.8,4.3l-5,3.6h-7.1l-4.3-2.8l-3.6-5v-7.8l5-5.7L778.7,685.5z"/>
<path d="M123.7,344.2h8.5l5.7,5l1.4,2.8v7.1l-2.8,4.3l-5,3.6h-7.1l-4.3-2.8l-3.6-5v-7.8l5-5.7L123.7,344.2z"/>
<g>
	<polygon class="st2" points="596.5,554.2 591.4,557.5 587.2,559.4 578.8,561.2 575.1,561.2 574.6,556.1 573.2,551.9 571.4,550 
		568.1,550 565.9,552.1 565.9,555.9 566.8,558.2 566.8,561.5 565.4,566.1 561.6,572.1 562.1,575 563.5,576.4 567.2,576.9 
		567.7,576.4 571.9,571.8 572.3,569.5 582.7,569.5 583.6,574.6 583.6,579.8 582.2,580.2 566.8,582.1 564.9,584 564.9,587.2 
		565.4,588.1 566.8,589.6 572,590 583.6,588.6 582.7,591.4 579.9,598.4 576.1,605 572.9,608.8 571,611.6 571,614.4 572.9,616.3 
		576.6,616.3 578.5,614.9 583.1,609.3 586.4,603.7 589.2,597.6 591.5,589.7 591.5,586 592.4,586 602.2,580.8 609.2,576.2 613.9,572 
		613.9,568.7 612,566.4 608.7,566.4 604.5,569.2 599.4,573 591.9,577.1 591.9,575.7 590.5,566.4 591.4,566.4 597.4,563.5 
		604.5,558.4 606.3,556.1 605.9,552.3 603.6,550.9 600.7,550.9 	"/>
	<polygon class="st2" points="649.5,528 661.6,524.7 673.7,521.8 677.9,521.8 678.8,522.3 681.1,524.2 681.1,530.2 678.8,539.6 
		678.8,546.6 679.6,549.4 682.5,553.6 686.7,556.4 690.9,557.3 700.2,557.3 703.9,556.9 713.3,555 722.2,551.7 729.6,548 738,542.8 
		744.1,537.7 747.4,534 747.4,531.1 745.5,528.8 742.2,528.8 738.9,531.6 731.4,537.2 726.3,540.5 718.4,544.3 710,547.1 701.1,549 
		693.2,549.4 688.5,548.5 686.7,545.7 686.7,541.1 689.5,528.9 689.1,522.9 686.7,518.3 683.9,515.9 679.3,514.1 671.8,514.1 
		659.7,516.8 646.6,520.5 645.2,522.4 644.7,525.7 646.6,527.5 	"/>
	<polygon class="st2" points="546.6,539.3 561.1,538.4 575.6,536.6 589.1,533.7 598.9,530.9 600.4,529.5 600.8,527.2 598.9,524.8 
		595.6,524.8 593.7,525.4 579.2,528.7 565.7,531 552.1,532.5 543.8,533.4 542.9,534.3 542.9,538 543.3,538.4 	"/>
	<path class="st2" d="M734,716.8l-0.4,0.4l-3.7,6.6l-3.7,3.7l-4.6,2.3l-5.6,1.4l-8.4,0.4l1.4-2.3l5.2-6.1l4.2-7.5l2.8-7l1.4-8.4V691
		l-1.4-7.5l-2.3-6.1l-3.9-5.8l-5.2-5.2l-6.1-3.3l-5.6-1.9l-7-0.9h-5.6l-7,0.4l-12.1,1.4l-7,0.4l0.4-5.6l-1.4-2.3l-3.3-0.9l-2.8,1.9
		l-0.9,3.7v5.6h-0.9l-11.2,2.8l-9.3,2.8v-0.9l-2.3-6.1L624,656l2.3-0.4l16.4-6.1l10.8-3.7l12.6-3.7l15.8-3.3l10.3-1.9l1.9-1.9v-3.3
		l-0.4-0.9l-2.3-1.4l-4.6,0.4l-14.5,2.3l-14.1,3.3l-8.9,2.8l-15.8,6.1l-14.5,5.2l-10.3,2.8l-18.2,3.3l-2.3,2.3v2.8l1.9,2.3h6.1
		l6.1-0.9l8.9-1.9l4.6-0.4l1.9,1.9l3.3,6.6l1.9,5.6H622l-5.2,2.3l-7.5,3.7l-8.4,4.6l-7,4.6l-6.1,4.6l-5.2,4.2l-6.1,6.1l-3.7,4.6
		l-4.2,6.6l-3.3,7.9l-1.4,7.9l0.4,7.5l1.9,6.6l2.3,5.2l4.6,6.6l6.1,5.6l5.2,3.3l7.5,3.7l7,2.3l8.4,1.4h4.2l2.8-2.3v-3.3l-2.3-2.3
		l-10.3-1.4l-7.5-2.3l-6.6-3.3L583,755l-4.2-4.2l-3.3-5.2l-2.3-5.6l-0.9-4.6v-5.2l1.9-7.5l2.3-5.2l4.2-6.1l5.2-5.2l4.6-4.2l5.2-4.2
		l7.9-5.6l7.9-4.6l12.1-5.6l-1.4,7.9l-2.3,7.9l-2.8,6.1l-4.2,7l-3.7,4.2l-5.6,5.2l-8.9,5.6l-2.3,2.3l0.4,2.8l1.4,1.9h3.7l5.6-2.8
		l7.9-5.6l5.2-5.2l5.6-7.5l4.2-7.9l2.8-7.9l1.9-8.4v-8.9l4.2-1.4L647,674l3.7-0.4l0.4,6.1l0.9,6.1l1.9,5.2l2.8,4.2l4.6,4.2l3.7,1.9
		l5.2,1.4h5.6l2.8-0.4l5.2-1.9l5.2-3.7l3.3-4.2l2.3-5.6v-3.3l-1.4-1.9l-3.3-0.4l-1.9,1.4l-3.3,6.6l-3.7,3.3l-4.6,1.9h-5.6l-4.6-1.9
		l-3.3-2.8l-1.9-3.7l-1.4-5.2l-0.4-8.9l0.4-0.4l8.9-1.4l14.9-1.4h9.3l3.7,0.4l3.3,0.9l4.6,2.3l3.3,3.3l3.3,4.6l2.3,6.1l1.4,7.5v4.6
		l-0.6,4.1l-1.9,6.6l-2.3,5.6l-4.6,7l-3.3,3.7l-5.6,5.2h-10.8l-8.9-0.4h-12.1l-7.5,0.9l-7.9,2.3l-7.5,3.3l-4.6,3.3l-4.2,4.6
		l-1.4,4.2v3.3l0.9,2.8l2.8,3.3l3.7,1.9h8.4l7.5-1.4l9.8-2.8l11.2-4.2l12.6-6.1l9.3-5.6h19.1l7-1.4l4.6-2.3l4.2-3.3l4.2-4.6l2.8-5.6
		v-4.2l-1-1.3L734,716.8z M681.6,740.1l-13.1,5.6l-14.5,4.6l-9.3,1.9H640l-0.9-0.9v-2.8l2.3-2.8l6.1-3.7l8.4-2.8l4.6-0.9l4.6-0.4
		h11.7l6.6,0.4L681.6,740.1z"/>
	<polygon class="st2" points="634.1,568.2 635,567.7 641,563.5 644.7,559.4 648,554.7 650.4,549.1 651.8,542.1 651.8,536.5 
		651.3,534.6 649.9,532.8 647.1,532.3 644.2,534 643.8,538.2 642.9,545.7 640.6,551.3 636.8,555.9 632.2,559.7 628.9,562.5 
		628.5,565.3 630.3,568.2 	"/>
	<polygon class="st2" points="606.9,588.4 601.3,585.1 598.5,584.6 596.6,585.6 595.2,587.9 596.1,590.8 598.9,593.1 605.5,597.7 
		608.4,601 612.1,606.1 615.4,613.6 617.7,615.9 621,615.5 622.4,614.6 622.8,613.2 622.4,609.4 619.6,602.9 615.8,597.3 
		612.5,593.5 	"/>
	<path class="st2" d="M741.4,565.4l-4.6,6.1l-5.6,5.2l-7.9,5.6l-7.5,3.7l-7,2.3l-7.9,1.4h-7l-5.6-0.9l-8.9-2.8v-0.9l1.9-2.8l3.7-6.6
		l1.9-6.1v-3.3l-0.9-2.8l-1.9-2.3l-2.8-1.9l-5.6-1.4h-11.2l-5.6,0.9l-7.5,2.3l-2.3,2.3v3.3l1.4,1.9l2.8,0.4l3.3-0.9l7.5-1.9h12.1
		l2.8,0.9v1.9l-2.8,5.6l-3.3,5.2l-0.9,2.3l-7-2.3l-6.6-1.4h-4.2l-5.6,1.4l-4.2,2.8l-3.3,4.2l-1.4,4.2v4.6l0.4,1.9l1.9,3.7l4.2,3.7
		l3.7,1.4h4.6l2.3-0.4l5.6-2.8l5.2-4.2l5.2-5.6l2.3-0.4l6.6,2.3l10.3,2.3h11.7l2.8-0.4l6.1-1.4l8.9-3.3l8.4-4.6l7-5.2l3.3-3.3
		l5.2-5.6l4.6-6.1l2.8-5.2v-2.8l-1.5-2.1l-3.3-0.4l-1.9,0.9L741.4,565.4z M665.8,590.2L665.8,590.2l-7.5,6.6l-4.2,1.9h-3.7l-2.3-2.3
		l-0.4-0.9v-3.3l1.4-2.8l3.7-2.3l1.4-0.4h4.2l5.6,1.4l1.9,0.9v1.2H665.8z"/>
	<polygon class="st2" points="767.7,607.5 757.4,605.6 746.2,604.7 736.8,604.7 718.6,605.6 699.9,607.5 683.1,610.3 669.6,613.6 
		656.5,617.8 638.2,624.4 619.6,630.4 606.5,633.7 597.1,635.1 585.4,635.1 581.7,634.7 574.6,632.8 566.7,629.1 561.1,624.9 
		556.5,619.3 553.2,613.2 550.4,604.9 548.5,593.2 547.6,579.7 546.7,553.5 546.2,551.7 544.8,550.8 542.5,550.3 540.2,551.2 
		538.8,552.6 538.8,558.7 539.7,585.3 540.6,596.5 542,605.4 543.9,612.4 547.1,619.9 551.8,626.9 556.4,631.6 561,635.3 567.6,639 
		576.5,642.3 584.9,643.7 598.4,643.7 601.7,643.3 611.5,641.4 624.6,637.7 641.4,632.1 657.7,626.5 674.6,620.9 686.7,618 
		697.9,616.2 714.7,614.3 731.5,613.4 749.3,613.4 755.4,613.8 762.4,614.3 765.8,613.2 768.9,610.8 	"/>
</g>
</svg>
