<?xml version="1.0" encoding="utf-8"?>
<!-- Generator: Adobe Illustrator 26.2.1, SVG Export Plug-In . SVG Version: 6.00 Build 0)  -->
<svg version="1.1" id="圖層_1" xmlns="http://www.w3.org/2000/svg" xmlns:xlink="http://www.w3.org/1999/xlink" x="0px" y="0px"
	 viewBox="0 0 1280 1280" style="enable-background:new 0 0 1280 1280;" xml:space="preserve">
<style type="text/css">
	.st0{fill:#FEFEFE;}
	.st1{fill:#231815;}
</style>
<path class="st0" d="M987.7,113.8h157.2l6.4,3.6l7.1,6.4l4.3,5l3.6,6.4v155l-3.6,7.8l-7.8,8.5l-6.4,4.3l-5.7,2.1h-155l-2.8-2.1
	l-3.6-2.1l-7.1-6.4l-5-6.4l-2.1-4.3V135.1l4.3-7.8l9.2-9.2l6.4-3.6L987.7,113.8z"/>
<path class="st0" d="M134.4,113.8h157.2l6.4,3.6l7.1,6.4l5,6.4l2.8,5.7v152.9l-2.1,2.8l-0.7,5.7l-7.8,8.5l-5,4.3l-6.4,2.8H135.1
	l-7.1-4.3l-7.1-6.4l-5-6.4l-2.1-4.3V135.1l4.3-7.8l9.2-9.2l6.4-3.6L134.4,113.8z"/>
<path class="st0" d="M134.4,967.1h157.9l2.8,2.1l5,2.8l7.1,7.1l2.8,3.6l2.8,5.7V1142l-2.1,2.8l-0.7,5.7l-8.5,9.2l-6.4,4.3l-5.7,2.1
	H135.1l-7.1-4.3l-2.8-2.1v-1.4l-2.8-1.4l-5.7-6.4l-2.8-5.7V987.7l2.1-2.8l2.1-4.3l9.2-9.2l6.4-3.6L134.4,967.1z"/>
<path d="M987.7,113.8h157.2l6.4,3.6l7.1,6.4l4.3,5l3.6,6.4v155l-3.6,7.8l-7.8,8.5l-6.4,4.3l-5.7,2.1h-155l-2.8-2.1l-3.6-2.1
	l-7.1-6.4l-5-6.4l-2.1-4.3V135.1l4.3-7.8l9.2-9.2l6.4-3.6L987.7,113.8z M1016.9,142.2l-6.4,3.6l-6.4,5.7v1.4l-2.8,1.4l-2.8,3.6
	l-2.8,5.7v98.8l4.3,7.8l5,5.7h1.4v1.4l5,4.3l3.6,1.4l1.4,1.4h98.1l3.6-1.4l5-2.1l11.4-11.4l1.4-7.1l2.1-2.1v-96l-4.3-7.8l-2.8-3.6
	h-1.4v-1.4h-1.4V150l-6.4-5l-5-2.8H1016.9z"/>
<path d="M134.4,113.8h157.2l6.4,3.6l7.1,6.4l5,6.4l2.8,5.7v152.9l-2.1,2.8l-0.7,5.7l-7.8,8.5l-5,4.3l-6.4,2.8H135.1l-7.1-4.3
	l-7.1-6.4l-5-6.4l-2.1-4.3V135.1l4.3-7.8l9.2-9.2l6.4-3.6L134.4,113.8z M163.6,142.2l-6.4,3.6l-6.4,5.7v1.4l-2.1,0.7l-3.6,4.3
	l-2.8,5.7v98.8l4.3,7.8l5,5.7l5.7,5l4.3,2.1l1.4,1.4H261l3.6-0.7l0.7-1.4l4.3-1.4l12.1-12.1l0.7-6.4l2.1-1.4v-96.7l-4.3-7.8
	l-2.8-3.6h-1.4v-1.4l-5.7-5l-7.1-4.3H163.6z"/>
<path d="M134.4,967.1h157.9l2.8,2.1l5,2.8l7.1,7.1l2.8,3.6l2.8,5.7V1142l-2.1,2.8l-0.7,5.7l-8.5,9.2l-6.4,4.3l-5.7,2.1H135.1
	l-7.1-4.3l-2.8-2.1v-1.4l-2.8-1.4l-5.7-6.4l-2.8-5.7V987.7l2.1-2.8l2.1-4.3l9.2-9.2l6.4-3.6L134.4,967.1z M163.6,995.6l-6.4,3.6
	l-6.4,5.7v1.4l-2.1,0.7l-3.6,4.3l-2.8,5.7v98.8l4.3,7.8l5,5.7l7.1,5.7l3.6,2.1l0.7,0.7H261l3.6-1.4l5-2.1l12.1-12.1l0.7-6.4l2.1-1.4
	v-97.4l-2.8-5l-4.3-5.7h-1.4v-1.4l-5.7-5l-7.1-4.3H163.6z"/>
<path d="M191.3,1024h44.1l2.8,2.1l5,2.8l7.8,7.8l2.8,5l2.1,3.6v42.7l-3.6,6.4l-6.4,7.1l-5.7,5l-6.4,2.8h-42l-7.1-4.3l-7.1-6.4
	l-5-6.4l-2.1-4.3v-43.4l2.1-2.8l2.1-4.3l10-10l5.7-2.8L191.3,1024z"/>
<path d="M191.3,170.7h43.4l6.4,3.6l7.1,6.4l5,5.7l2.8,5.7v42l-3.6,7.1l-6.4,7.1l-5.7,5L234,256h-42l-7.1-4.3l-7.1-6.4l-5-6.4
	l-2.1-4.3v-43.4l2.1-2.8l2.1-4.3l10-10l5.7-2.8L191.3,170.7z"/>
<path d="M1044.6,170.7h43.4l6.4,3.6l7.1,6.4l5,5.7l2.8,5.7v39.8l-2.1,3.6l-0.7,5l-7.8,8.5l-5,4.3l-6.4,2.8h-42l-6.4-3.6l-3.6-2.8
	l-3.6-3.6l-5-5.7l-2.8-5.7v-43.4l2.1-2.8l2.1-4.3l10-10l5.7-2.8L1044.6,170.7z"/>
<path d="M1035.4,969.2h6.4l5.7,5l2.1,2.8l0.7,5l-1.4,5l-5.7,5l-3.6,1.4l-5.7-0.7l-5.7-5l-2.1-5l0.7-6.4l2.8-3.6L1035.4,969.2z"/>
<path d="M494.9,912.4h5.7l3.6,2.1l5,5.7v8.5l-2.8,4.3l-4.3,2.8l-5,0.7l-5-1.4l-5-5l-1.4-4.3l0.7-6.4l2.8-3.6l3.6-2.8L494.9,912.4z"
	/>
<path d="M893.2,855.5h5.7l3.6,2.1l5,5.7v8.5l-2.8,4.3l-4.3,2.8l-6.4,0.7l-4.3-2.1l-5-5.7l-0.7-6.4l1.4-3.6l5.7-5.7L893.2,855.5z"/>
<path d="M779.4,1026.1h6.4l5.7,5l2.1,2.8v8.5l-5,5.7l-5,2.1l-5.7-0.7l-5.7-5l-2.1-5v-5l3.6-5l3.6-2.8L779.4,1026.1z"/>
<path d="M779.4,1054.6h6.4l5.7,5l2.1,2.8v9.2l-5,5l-5,2.1l-7.1-1.4l-5.7-6.4l-0.7-2.8v-5l3.6-5L779.4,1054.6z"/>
<path d="M1035.4,1026.1h5.7l3.6,2.1l5,5.7v9.2l-5,5l-5,2.1l-7.1-1.4l-5.7-6.4l-0.7-2.8v-5l3.6-5l3.6-2.8L1035.4,1026.1z"/>
<path d="M921.6,770.1h6.4l5.7,5l2.1,2.8l0.7,4.3l-1.4,5.7l-5.7,5l-5.7,1.4l-5-1.4l-5.7-6.4l-0.7-2.8v-5l3.6-5l3.6-2.8L921.6,770.1z"
	/>
<path d="M779.4,1083h5.7l3.6,2.1l5,5.7v8.5l-5,5.7l-5,2.1l-7.1-1.4l-5.7-6.4l-0.7-7.1l2.8-5l4.3-3.6L779.4,1083z"/>
<path d="M780.1,997.7h5l3.6,2.1l5,5.7v9.2l-5,5l-5,2.1l-5.7-0.7l-5.7-5l-2.1-5l0.7-6.4l3.6-4.3L780.1,997.7z"/>
<path d="M523.4,969.2h6.4l5.7,5l2.1,2.8l0.7,4.3l-1.4,5.7l-5.7,5l-5.7,1.4l-5-1.4l-5.7-6.4l-0.7-7.1l2.8-5l4.3-3.6L523.4,969.2z"/>
<path d="M922.3,711.1h5.7l5.7,5l2.1,2.8l0.7,5l-1.4,5l-5.7,5l-3.6,1.4l-7.1-1.4l-5.7-6.4l-0.7-7.1l2.8-5l5-3.6L922.3,711.1z"/>
<path d="M1035.4,627.9l7.1,0.7l5.7,5l1.4,2.1v8.5l-2.8,4.3l-4.3,2.8l-5,0.7l-5-1.4l-5-5l-1.4-4.3l0.7-6.4l2.8-3.6l3.6-2.8
	L1035.4,627.9z"/>
<path d="M1007.6,1026.1h5l3.6,2.1l5,5.7v9.2l-5,5l-5,2.1l-5.7-0.7l-5.7-5l-1.4-2.1l-0.7-6.4l1.4-3.6l2.8-3.6L1007.6,1026.1z"/>
<path d="M1035.4,997.7h6.4l5.7,5l2.1,2.8v8.5l-5,5.7l-6.4,2.1l-5.7-1.4l-5.7-6.4l-0.7-2.8v-5l3.6-5L1035.4,997.7z"/>
<path d="M807.8,940.8h5l4.3,2.1l5,5.7l0.7,5l-1.4,5l-5.7,5l-3.6,1.4l-5.7-0.7l-5.7-5l-2.1-5l0.7-6.4l2.8-3.6l3.6-2.8L807.8,940.8z"
	/>
<path d="M865.4,940.8l7.1,0.7l5.7,5.7l0.7,1.4v9.2l-5,5l-5,2.1l-5.7-0.7l-5.7-5l-1.4-2.1l-0.7-6.4l1.4-3.6l2.8-3.6L865.4,940.8z"/>
<path d="M780.1,940.8l7.1,0.7l5.7,5.7l0.7,1.4v8.5l-2.8,4.3l-4.3,2.8l-5,0.7l-5-1.4l-5.7-6.4l-0.7-6.4l1.4-3.6l2.8-3.6L780.1,940.8z
	"/>
<path d="M865.4,229.7h5.7l5.7,5l2.1,2.8v8.5l-2.8,4.3l-4.3,2.8l-4.3,0.7l-5.7-1.4l-3.6-3.6l-2.1-2.8l-0.7-6.4l1.4-3.6l3.6-3.6
	l2.8-2.1L865.4,229.7z"/>
<path d="M1006.9,1054.6h5.7l3.6,2.1l5,5.7v8.5l-5,5.7l-5,2.1l-7.1-1.4l-5.7-6.4l-0.7-7.1l2.1-3.6l3.6-3.6L1006.9,1054.6z"/>
<path d="M495.6,969.2h5l3.6,2.1l5,5.7v8.5l-2.8,4.3l-4.3,2.8l-4.3,0.7l-5.7-1.4l-5.7-6.4l-0.7-5.7l1.4-4.3l3.6-3.6l2.8-2.1
	L495.6,969.2z"/>
<path d="M494.9,883.9h6.4l5.7,5l2.1,2.8v9.2l-5,5l-6.4,2.1l-6.4-2.1l-5-5.7l-0.7-7.1l2.8-5L494.9,883.9z"/>
<path d="M1092.3,599.5l7.1,0.7l5.7,5l1.4,2.1v8.5l-2.8,4.3l-4.3,2.8l-5,0.7l-5-1.4l-5.7-6.4l-0.7-7.1l2.8-5L1092.3,599.5z"/>
<path d="M324.3,571l7.8,0.7l5,5l1.4,2.1v8.5l-5,5.7l-5,2.1l-7.1-1.4l-5-5l-1.4-5l0.7-5.7l2.8-3.6L324.3,571z"/>
<path d="M978.5,514.1l7.1,0.7l5.7,5l1.4,2.1l0.7,5l-1.4,5l-3.6,3.6l-2.8,2.1l-4.3,0.7l-5.7-1.4l-5.7-6.4l-0.7-6.4l1.4-3.6l5.7-5.7
	L978.5,514.1z"/>
<path d="M238.9,514.1l7.8,0.7l5.7,5.7l0.7,1.4v8.5l-5,5.7l-5,2.1l-7.1-1.4l-5.7-6.4l-0.7-6.4l1.4-3.6l5.7-5.7L238.9,514.1z"/>
<path d="M466.5,343.5h6.4l5.7,5l2.1,2.8l0.7,5l-1.4,5l-5.7,5l-5,1.4l-6.4-2.1l-5-5.7l-0.7-7.1l2.8-5L466.5,343.5z"/>
<path d="M438,229.7h6.4l5.7,5l2.1,2.8v8.5l-5,5.7l-5,2.1l-7.1-1.4l-5.7-6.4l-0.7-7.1l3.6-5.7L438,229.7z"/>
<path d="M922.3,855.5l7.1,0.7l3.6,2.8l2.8,4.3l0.7,4.3l-1.4,5.7l-5.7,5l-1.4,0.7h-7.8l-5.7-5l-2.1-5l0.7-6.4l3.6-4.3L922.3,855.5z"
	/>
<path d="M921.6,798.6h5l3.6,1.4l5.7,6.4v8.5l-5,5.7l-2.1,1.4h-8.5l-5.7-5l-2.1-5l0.7-6.4l2.8-3.6L921.6,798.6z"/>
<path d="M921.6,684.8h5l3.6,1.4l5.7,6.4v8.5l-5,5.7l-5,2.1l-7.1-1.4l-5.7-6.4l-0.7-7.1l2.1-3.6l3.6-3.6L921.6,684.8z"/>
<path d="M1035.4,599.5h5.7l3.6,2.1l5,5.7l0.7,4.3l-1.4,5.7l-5.7,5l-1.4,0.7h-7.8l-5.7-5l-2.1-5l0.7-6.4l2.8-3.6l3.6-2.8
	L1035.4,599.5z"/>
<path d="M1035.4,571h5.7l3.6,2.1l5,5.7l0.7,5l-1.4,5l-5.7,5l-5,1.4l-5.7-1.4l-5.7-6.4l-0.7-7.1l3.6-5.7L1035.4,571z"/>
<path d="M267.4,514.1l7.1,0.7l5.7,5l1.4,2.1l0.7,5l-1.4,5l-5.7,5l-5.7,1.4l-5-1.4l-5.7-6.4l-0.7-7.1l2.8-5l4.3-3.6L267.4,514.1z"/>
<path d="M409.6,428.8l7.8,0.7l5,5l1.4,2.1l0.7,5l-1.4,5l-5.7,5l-5.7,1.4l-4.3-1.4l-5-4.3l-2.1-5l0.7-6.4l2.8-3.6l3.6-2.8
	L409.6,428.8z"/>
<path d="M524.1,343.5l7.1,0.7l5.7,5.7l0.7,1.4v9.2l-5,5l-6.4,2.1l-5.7-1.4l-5.7-6.4l-0.7-6.4l1.4-3.6l2.8-3.6L524.1,343.5z"/>
<path d="M807.8,1083h5l4.3,2.1l5,5.7v8.5l-5,5.7l-2.8,1.4h-7.8l-5.7-5l-2.1-5l0.7-6.4l3.6-4.3L807.8,1083z"/>
<path d="M1035.4,1054.6h5l3.6,1.4l5,5l0.7,1.4v8.5l-5,5.7l-2.8,1.4h-7.8l-5.7-5l-1.4-2.1l-0.7-7.1l2.8-5l4.3-3.6L1035.4,1054.6z"/>
<path d="M750.9,940.8h5.7l3.6,2.1l5,5.7v8.5l-2.8,4.3l-4.3,2.8l-4.3,0.7l-5.7-1.4l-5.7-6.4l-0.7-6.4l2.1-4.3l3.6-3.6L750.9,940.8z"
	/>
<path d="M921.6,912.4l7.1,0.7l5.7,5l1.4,2.1l0.7,5l-1.4,5l-5.7,5l-5,1.4l-6.4-2.1l-5-5.7l-0.7-7.1l2.8-5l4.3-3.6L921.6,912.4z"/>
<path d="M751.6,883.9l7.1,0.7l5.7,5.7l1.4,6.4l-1.4,5l-5.7,5l-5,1.4l-6.4-2.1l-5-5.7l-0.7-6.4l1.4-3.6l2.8-3.6L751.6,883.9z"/>
<path d="M466.5,798.6h5.7l3.6,2.1l5,5.7v8.5l-5,5.7l-2.8,1.4h-7.8l-5.7-5l-2.1-5l0.7-6.4l2.8-3.6L466.5,798.6z"/>
<path d="M438.8,798.6l7.1,0.7l5.7,5.7l0.7,1.4v8.5l-2.8,4.3l-4.3,2.8h-8.5l-5.7-5l-1.4-2.1l-0.7-6.4l1.4-3.6l3.6-3.6l2.8-2.1
	L438.8,798.6z"/>
<path d="M1063.8,656.4h5l4.3,2.1l5,5.7v8.5l-5,5.7l-2.1,1.4h-8.5l-5.7-5l-2.1-5l0.7-6.4l2.8-3.6l3.6-2.8L1063.8,656.4z"/>
<path d="M1064.5,627.9l7.1,0.7l3.6,2.8l2.8,4.3l0.7,4.3l-1.4,5.7l-5.7,5l-1.4,0.7h-7.8l-5.7-5l-2.1-5l0.7-6.4l2.8-3.6l4.3-2.8
	L1064.5,627.9z"/>
<path d="M1006.9,627.9l7.8,0.7l5.7,5.7l0.7,1.4v8.5l-5,5.7l-2.1,1.4l-4.3,0.7l-5.7-1.4l-5.7-6.4l-0.7-6.4l1.4-3.6l5.7-5.7
	L1006.9,627.9z"/>
<path d="M921.6,371.9l7.8,0.7l5.7,5.7l0.7,1.4v8.5l-5,5.7l-2.1,1.4h-8.5l-5.7-5l-1.4-2.1l-0.7-7.1l2.8-5L921.6,371.9z"/>
<path d="M523.4,371.9l7.8,0.7l5.7,5.7l0.7,1.4v8.5l-5,5.7l-2.1,1.4H522l-5.7-5l-2.1-5l0.7-6.4l2.8-3.6l3.6-2.8L523.4,371.9z"/>
<path d="M921.6,343.5h6.4l5.7,5l2.1,2.8v8.5l-5,5.7l-2.8,1.4h-7.1l-3.6-2.1l-4.3-5l-0.7-7.1l2.8-5L921.6,343.5z"/>
<path d="M438,258.1h6.4l5.7,5l2.1,2.8v8.5l-5,5.7l-2.1,1.4h-8.5l-5.7-5l-1.4-2.1l-0.7-6.4l2.1-4.3l3.6-3.6L438,258.1z"/>
<path d="M893.2,229.7l7.1,0.7l5.7,5l1.4,2.1v8.5l-5,5.7l-5.7,2.1l-6.4-1.4l-5.7-6.4l-0.7-7.1l2.8-5l4.3-3.6L893.2,229.7z"/>
<path d="M807.8,1054.6h5l4.3,2.1l5,5.7l0.7,4.3l-1.4,5.7l-5.7,5l-1.4,0.7h-7.8l-5.7-5l-2.1-5l0.7-6.4l2.8-3.6l3.6-2.8L807.8,1054.6z
	"/>
<path d="M608.7,1026.1l7.1,0.7l5.7,5l1.4,2.1v8.5l-5,5.7l-2.1,1.4l-4.3,0.7l-5.7-1.4l-5.7-6.4l-0.7-6.4l1.4-3.6l5.7-5.7
	L608.7,1026.1z"/>
<path d="M1120.7,997.7l7.8,0.7l5,5l1.4,2.1v8.5l-5,5.7l-5,2.1l-7.1-1.4l-5.7-6.4l-0.7-6.4l1.4-3.6l3.6-3.6L1120.7,997.7z"/>
<path d="M807.8,997.7h5l3.6,1.4l5.7,6.4l0.7,4.3l-1.4,5l-4.3,5l-2.8,1.4h-7.8l-5.7-5l-2.1-5l0.7-6.4l2.8-3.6l3.6-2.8L807.8,997.7z"
	/>
<path d="M1063.8,969.2h5l4.3,2.1l4.3,5l0.7,1.4v7.8l-5,5.7l-5.7,2.1l-6.4-1.4l-5.7-6.4l-0.7-7.1l2.1-3.6l3.6-3.6L1063.8,969.2z"/>
<path d="M1036.1,940.8l7.1,0.7l5,5l1.4,2.1v8.5l-5,5.7l-5,2.1l-5-0.7l-4.3-2.8l-3.6-4.3l-0.7-7.1l2.8-5l5-3.6L1036.1,940.8z"/>
<path d="M893.2,940.8h5l3.6,1.4l5,5l0.7,1.4v8.5l-5,5.7L896,965l-6.4-2.1l-5-5.7l-0.7-6.4l1.4-3.6l5.7-5.7L893.2,940.8z"/>
<path d="M722.5,883.9l7.8,0.7l5,5l1.4,2.1v8.5l-2.8,4.3l-4.3,2.8l-4.3,0.7l-5.7-1.4l-5.7-6.4l-0.7-5.7l1.4-4.3l5.7-5.7L722.5,883.9z
	"/>
<path d="M950.8,711.1l7.1,0.7l5.7,5.7l0.7,1.4v8.5l-5,5.7l-2.8,1.4h-7.8l-5.7-5l-2.1-5l0.7-6.4l3.6-4.3L950.8,711.1z"/>
<path d="M1093,656.4l7.1,0.7l5.7,5.7l0.7,1.4v8.5l-5,5.7l-2.8,1.4h-7.8l-5.7-5l-1.4-2.1l-0.7-7.1l2.8-5l5-3.6L1093,656.4z"/>
<path d="M1007.6,599.5h5l3.6,2.1l5,5.7v9.2l-5,5l-2.8,1.4h-7.1l-3.6-2.1l-4.3-5.7l-0.7-6.4l2.8-5l5-3.6L1007.6,599.5z"/>
<path d="M267.4,542.6h5l4.3,2.1l5,5.7l0.7,4.3l-1.4,5.7l-5.7,5l-1.4,0.7H266l-5.7-5l-2.1-5l0.7-6.4l2.8-3.6L267.4,542.6z"/>
<path d="M1006.9,514.1l7.1,0.7l5.7,5l1.4,2.1v8.5l-5,5.7l-2.1,1.4l-4.3,0.7l-5.7-1.4l-5-5l-1.4-5l0.7-5.7l2.8-3.6l3.6-2.8
	L1006.9,514.1z"/>
<path d="M467.2,428.8l7.1,0.7l5.7,5.7l0.7,1.4v9.2l-5,5l-2.8,1.4h-7.8l-5.7-5l-1.4-2.1l-0.7-6.4l1.4-3.6l2.8-3.6L467.2,428.8z"/>
<path d="M495.6,343.5l6.4,0.7l5.7,5l1.4,2.1v8.5l-2.8,4.3l-4.3,2.8l-5,0.7l-5-1.4l-5.7-6.4l-0.7-5.7l1.4-4.3l2.8-3.6L495.6,343.5z"
	/>
<path d="M608.7,258.1h5.7l3.6,2.1l5,5.7v8.5l-5,5.7l-2.1,1.4h-8.5l-5.7-5l-1.4-2.1l-0.7-5.7l1.4-4.3l5.7-5.7L608.7,258.1z"/>
<path d="M609.4,997.7l7.1,0.7l5.7,5.7l0.7,1.4v9.2l-5,5l-2.8,1.4H608l-3.6-2.1l-4.3-5.7l-0.7-6.4l2.8-5l5-3.6L609.4,997.7z"/>
<path d="M837,940.8l6.4,0.7l5.7,5l1.4,2.1v8.5l-2.8,4.3l-4.3,2.8l-4.3,0.7l-5.7-1.4l-5.7-6.4l-0.7-5.7l1.4-4.3l2.8-3.6L837,940.8z"
	/>
<path d="M1035.4,912.4h5l4.3,2.1l5,5.7v8.5l-5,5.7l-5.7,2.1l-6.4-1.4l-5.7-6.4l-0.7-7.1l2.1-3.6l3.6-3.6L1035.4,912.4z"/>
<path d="M779.4,883.9h5l4.3,2.1l4.3,5l0.7,1.4v7.8l-5,5.7l-2.1,1.4l-4.3,0.7l-5.7-1.4l-5-5l-1.4-4.3l0.7-6.4l2.8-3.6L779.4,883.9z"
	/>
<path d="M922.3,741.7h5l3.6,2.1l5,5.7l0.7,5l-1.4,5l-5.7,5l-1.4,0.7h-7.1l-4.3-2.8l-3.6-4.3l-0.7-7.1l2.1-3.6l3.6-3.6L922.3,741.7z"
	/>
<path d="M978.5,711.1l7.8,0.7l5,5l1.4,2.1v8.5l-5,5.7l-2.1,1.4h-8.5l-5.7-5l-1.4-2.1l-0.7-6.4l1.4-3.6l5.7-5.7L978.5,711.1z"/>
<path d="M467.2,315h5l3.6,2.1l5,5.7v8.5l-5,5.7l-5,2.1l-7.1-1.4l-5.7-6.4l-0.7-7.1l3.6-5.7l4.3-2.8L467.2,315z"/>
<path d="M438.8,201.2h5l3.6,2.1l5,5.7v8.5l-5,5.7l-5.7,2.1l-6.4-1.4l-5.7-6.4l-0.7-7.1l3.6-5.7l4.3-2.8L438.8,201.2z"/>
<path d="M1035.4,1083l7.1,0.7l5.7,5l1.4,2.1v8.5l-5,5.7l-2.1,1.4h-8.5l-5.7-5l-1.4-2.1l-0.7-6.4l1.4-3.6l5.7-5.7L1035.4,1083z"/>
<path d="M1063.8,1054.6h5l4.3,2.1l4.3,5l1.4,5l-1.4,5l-4.3,5l-2.8,1.4h-7.8l-5.7-5l-2.1-5l0.7-6.4l2.8-3.6l3.6-2.8L1063.8,1054.6z"
	/>
<path d="M1063.8,1026.1l7.1,0.7l5.7,5l1.4,2.1l0.7,4.3l-1.4,5l-3.6,4.3l-3.6,2.1h-7.8l-5.7-5l-2.1-5l0.7-6.4l2.8-3.6l3.6-2.8
	L1063.8,1026.1z"/>
<path d="M1063.8,997.7l7.1,0.7l5.7,5l1.4,2.1l0.7,5l-1.4,5l-5.7,5l-1.4,0.7h-7.8l-5.7-5l-2.1-5l0.7-6.4l2.8-3.6L1063.8,997.7z"/>
<path d="M523.4,997.7l7.8,0.7l5,5l1.4,2.1l0.7,5l-1.4,5l-5.7,5l-1.4,0.7h-7.1l-3.6-2.1l-4.3-5l-0.7-7.1l2.8-5L523.4,997.7z"/>
<path d="M950,912.4l7.1,0.7l5.7,5l1.4,2.1v8.5l-5,5.7l-2.1,1.4h-8.5l-5.7-5l-1.4-2.1l-0.7-6.4l1.4-3.6l5.7-5.7L950,912.4z"/>
<path d="M893.9,912.4h5l3.6,2.1l5,5.7v9.2l-6.4,5.7l-1.4,0.7h-7.1l-3.6-2.1l-4.3-5.7l-0.7-6.4l2.8-5l5-3.6L893.9,912.4z"/>
<path d="M921.6,883.9h5l4.3,2.1l5,5.7v8.5l-4.3,5l-3.6,2.1h-7.8l-5-4.3l-2.1-2.8l-0.7-7.1l2.8-5l4.3-3.6L921.6,883.9z"/>
<path d="M865.4,855.5h5l3.6,2.1l5,5.7v8.5l-5,5.7l-2.8,1.4H864l-3.6-2.1l-4.3-5l-0.7-5.7l1.4-4.3l2.8-3.6L865.4,855.5z"/>
<path d="M494.9,855.5l7.1,0.7l5.7,5l1.4,2.1v8.5l-5,5.7l-6.4,2.1l-5.7-1.4l-5.7-6.4l-0.7-7.1l2.8-5L494.9,855.5z"/>
<path d="M211.2,855.5l7.1,0.7l5.7,5.7l0.7,1.4v9.2l-5,5l-2.8,1.4h-7.1l-3.6-2.1l-4.3-5l-0.7-5.7l1.4-4.3l2.8-3.6L211.2,855.5z"/>
<path d="M238.9,485.7h5l4.3,2.1l5,5.7v9.2l-5,5l-2.8,1.4h-7.1l-3.6-2.1l-4.3-5l-0.7-7.1l2.8-5L238.9,485.7z"/>
<path d="M238.9,457.2h5l3.6,1.4l5.7,6.4v8.5l-5,5.7l-2.8,1.4h-7.8l-5.7-5l-2.1-5l0.7-6.4l5.7-5.7L238.9,457.2z"/>
<path d="M494.9,428.8h5l4.3,2.1l4.3,5l0.7,1.4v7.8l-5,5.7l-6.4,2.1l-5.7-1.4l-5.7-6.4l-0.7-6.4l1.4-3.6l5.7-5.7L494.9,428.8z"/>
<path d="M438.8,428.8l7.1,0.7l5,5l1.4,2.1v8.5l-5,5.7l-2.1,1.4h-8.5l-5.7-5l-1.4-2.1l-0.7-5.7l1.4-4.3l2.8-3.6L438.8,428.8z"/>
<path d="M893.2,258.1l7.8,0.7l5.7,5.7l0.7,1.4v8.5l-5,5.7l-2.8,1.4h-7.8l-5.7-5l-1.4-2.1l-0.7-6.4l1.4-3.6l5.7-5.7L893.2,258.1z"/>
<path d="M496.4,229.7l6.4,0.7l5.7,5.7l0.7,1.4v8.5l-5,5.7l-2.1,1.4h-8.5l-5.7-5l-1.4-2.1l-0.7-5.7l1.4-4.3l2.8-3.6l3.6-2.1
	L496.4,229.7z"/>
<path d="M637.2,201.2l7.8,0.7l5,5l1.4,2.1v8.5l-4.3,5l-3.6,2.1h-7.8l-5.7-5l-2.1-5l0.7-6.4l2.8-3.6L637.2,201.2z"/>
<path d="M637.2,1054.6l7.1,0.7l5.7,5l1.4,2.1v8.5l-5,5.7l-2.1,1.4h-8.5l-5.7-5l-1.4-2.1l-0.7-7.1l2.1-3.6l3.6-3.6L637.2,1054.6z"/>
<path d="M807.8,1026.1h5l4.3,2.1l5,5.7v8.5l-5,5.7l-2.8,1.4h-7.8l-5.7-5l-2.1-5l0.7-6.4l2.8-3.6l3.6-2.8L807.8,1026.1z"/>
<path d="M637.2,1026.1l7.1,0.7l5.7,5l1.4,2.1v8.5l-5,5.7l-2.8,1.4h-7.8l-5.7-5l-1.4-2.1l-0.7-7.1l2.1-3.6l5-5L637.2,1026.1z"/>
<path d="M893.2,969.2l7.1,0.7l5.7,5l1.4,2.1v8.5l-5,5.7l-2.1,1.4h-8.5l-5.7-5l-1.4-2.1l-0.7-6.4l1.4-3.6l5.7-5.7L893.2,969.2z"/>
<path d="M750.9,912.4l7.1,0.7l5.7,5l1.4,2.1v8.5l-5,5.7l-2.8,1.4h-7.1l-3.6-2.1l-4.3-5l-0.7-7.1l2.1-3.6l3.6-3.6L750.9,912.4z"/>
<path d="M523.4,912.4l7.1,0.7l5.7,5l1.4,2.1v8.5l-5,5.7l-2.8,1.4H522l-5.7-5l-2.1-5l0.7-6.4l2.8-3.6l3.6-2.8L523.4,912.4z"/>
<path d="M950,827l7.1,0.7l5.7,5l1.4,2.1v8.5l-5,5.7l-2.8,1.4h-7.8l-5.7-5l-2.1-5l0.7-6.4l2.8-3.6l3.6-2.8L950,827z"/>
<path d="M466.5,827l7.1,0.7l5.7,5l1.4,2.1v8.5l-5,5.7l-2.1,1.4h-8.5l-5.7-5l-1.4-2.1l-0.7-6.4l1.4-3.6l5.7-5.7L466.5,827z"/>
<path d="M893.9,770.1h5l3.6,2.1l5,5.7v8.5l-2.8,4.3l-4.3,2.8l-4.3,0.7l-5.7-1.4l-5-5.7l-0.7-1.4v-8.5l2.8-3.6l4.3-2.8L893.9,770.1z"
	/>
<path d="M1092.3,684.8l7.8,0.7l5.7,5.7l0.7,1.4v8.5l-5,5.7l-2.8,1.4h-7.8l-5.7-5l-1.4-2.1l-0.7-6.4l2.1-4.3l3.6-3.6L1092.3,684.8z"
	/>
<path d="M324.3,684.8l7.1,0.7l5.7,5l1.4,2.1v8.5l-5.7,6.4l-1.4,0.7h-8.5l-5.7-5l-1.4-2.1l-0.7-6.4l1.4-3.6l5.7-5.7L324.3,684.8z"/>
<path d="M979.2,627.9l7.1,0.7l5.7,5.7l0.7,1.4v8.5l-5,5.7l-2.1,1.4h-8.5l-5.7-5l-1.4-2.1l-0.7-5.7l1.4-4.3l3.6-3.6l2.8-2.1
	L979.2,627.9z"/>
<path d="M409.6,571l7.1,0.7l5.7,5l1.4,2.1v8.5l-5,5.7l-2.1,1.4h-8.5l-5.7-5l-1.4-2.1l-0.7-6.4l1.4-3.6l3.6-3.6L409.6,571z"/>
<path d="M183.5,542.6l5.7,0.7l5.7,5l1.4,2.1v8.5l-5,5.7l-2.1,1.4l-4.3,0.7l-5.7-1.4l-5.7-6.4l-0.7-5.7l1.4-4.3l3.6-3.6l2.8-2.1
	L183.5,542.6z"/>
<path d="M297.2,514.1l7.1,1.4l5,5l0.7,1.4v8.5l-5,5.7l-2.1,1.4h-8.5l-5.7-5l-1.4-2.1l-0.7-6.4l1.4-3.6l2.8-3.6l3.6-2.1L297.2,514.1z
	"/>
<path d="M836.3,457.2l7.8,0.7l5.7,5.7l0.7,1.4v8.5l-5,5.7l-2.1,1.4h-7.8l-3.6-2.1l-4.3-5l-0.7-5.7l1.4-4.3l5.7-5.7L836.3,457.2z"/>
<path d="M581,1026.1l6.4,0.7l5.7,5l1.4,2.1l0.7,5l-1.4,5l-5.7,5l-1.4,0.7h-7.1l-4.3-2.8l-3.6-5l-0.7-6.4l2.8-5l5-3.6L581,1026.1z"/>
<path d="M1093,997.7l7.1,0.7l5.7,5.7l0.7,1.4v8.5l-5,5.7l-2.8,1.4h-7.1l-3.6-2.1l-4.3-5l-0.7-5.7l1.4-4.3l2.8-3.6L1093,997.7z"/>
<path d="M467.2,912.4h5l3.6,2.1l5,5.7v8.5l-5,5.7l-2.1,1.4h-8.5l-5.7-5l-2.1-6.4l0.7-5l2.8-3.6l4.3-2.8L467.2,912.4z"/>
<path d="M837,883.9l7.1,0.7l5.7,5.7l0.7,1.4v8.5l-5,5.7l-2.1,1.4h-8.5l-5.7-5l-1.4-2.1l-0.7-6.4l2.1-4.3l5.7-5L837,883.9z"/>
<path d="M238.9,855.5l7.8,0.7l5,5l1.4,2.1v8.5l-5,5.7l-2.8,1.4h-7.1l-3.6-2.1l-4.3-5l-0.7-6.4l1.4-3.6l5.7-5.7L238.9,855.5z"/>
<path d="M1121.4,711.1l6.4,0.7l5.7,5l1.4,2.8v7.8l-4.3,5l-5.7,2.8l-5-0.7l-4.3-2.8l-3.6-4.3l-0.7-7.1l2.1-3.6l3.6-3.6L1121.4,711.1z
	"/>
<path d="M1122.1,599.5l5.7,0.7l5.7,5l1.4,2.1v8.5l-4.3,5l-3.6,2.1h-7.8l-5.7-5l-1.4-2.1l-0.7-6.4l1.4-3.6l2.8-3.6l3.6-2.1
	L1122.1,599.5z"/>
<path d="M836.3,571l7.1,0.7l5.7,5l1.4,2.1v8.5l-5,5.7l-2.1,1.4h-8.5l-5.7-5l-1.4-2.1L827,581l1.4-3.6l5.7-5.7L836.3,571z"/>
<path d="M267.4,571h5.7l3.6,2.1l5,5.7v8.5l-5,5.7l-2.1,1.4H266l-5.7-5l-2.1-5.7l1.4-6.4l3.6-3.6L267.4,571z"/>
<path d="M211.2,514.1l6.4,0.7l5.7,5l1.4,2.1l0.7,5l-1.4,5l-5.7,5l-1.4,0.7h-7.1l-4.3-2.8l-3.6-5l-0.7-6.4l2.8-5l5-3.6L211.2,514.1z"
	/>
<path d="M211.2,457.2l7.1,0.7l5.7,5.7l0.7,1.4v8.5l-5,5.7l-2.1,1.4h-8.5l-5-4.3l-2.1-2.8l-0.7-6.4l2.8-5.7l5-3.6L211.2,457.2z"/>
<path d="M381.2,428.8l7.8,0.7l5.7,5.7l0.7,1.4v8.5l-5,5.7l-2.1,1.4h-8.5l-5.7-5l-1.4-2.1l-0.7-5.7l2.1-5l5.7-5L381.2,428.8z"/>
<path d="M411,400.4l5.7,0.7l5.7,5l1.4,2.1v8.5l-5,5.7l-2.8,1.4h-7.8l-5.7-5l-2.1-5l0.7-6.4l2.8-3.6l4.3-2.8L411,400.4z"/>
<path d="M409.6,343.5l7.1,0.7l5.7,5l1.4,2.1v8.5l-5,5.7l-2.8,1.4h-7.8l-5.7-5l-2.1-5l0.7-6.4l2.8-3.6L409.6,343.5z"/>
<path d="M466.5,286.6h5l4.3,2.1l5,5.7v8.5l-4.3,5l-3.6,2.1l-4.3,0.7l-5.7-2.1l-5-5.7l-0.7-7.1l2.1-3.6l3.6-3.6L466.5,286.6z"/>
<path d="M637.2,229.7l7.1,0.7l5.7,5l1.4,2.1v8.5l-5,5.7l-2.8,1.4h-7.8l-5.7-5l-2.1-5l0.7-6.4l6.4-6.4L637.2,229.7z"/>
<path d="M609.4,229.7l7.1,0.7l5.7,5.7l0.7,1.4v9.2l-5,5l-2.8,1.4H608l-3.6-2.1l-4.3-5.7l-0.7-5.7l1.4-3.6l3.6-3.6l2.8-2.1
	L609.4,229.7z"/>
<path d="M438.8,172.8h5l3.6,2.1l5,5.7v8.5l-5,5.7l-5,2.1l-6.4-1.4l-5-4.3l-2.1-5.7l0.7-5l5-5.7L438.8,172.8z"/>
<path d="M807.8,1111.5l7.1,0.7l5.7,5l1.4,2.1v8.5l-5,5.7l-2.8,1.4h-7.1l-3.6-2.1l-4.3-5l-0.7-6.4l1.4-3.6l5.7-5.7L807.8,1111.5z"/>
<path d="M494.9,1111.5l7.8,0.7l5,5l1.4,2.1v8.5l-4.3,5l-3.6,2.1h-7.1l-3.6-2.1l-4.3-5l-0.7-7.1l2.1-3.6l3.6-3.6L494.9,1111.5z"/>
<path d="M751.6,1083l7.1,0.7l5.7,5.7l0.7,1.4v8.5l-5,5.7l-2.1,1.4h-8.5l-5-4.3l-2.1-3.6l-0.7-5l2.1-5l3.6-3.6L751.6,1083z"/>
<path d="M552.5,1054.6l7.1,0.7l5.7,5.7l0.7,1.4v8.5l-4.3,5l-3.6,2.1h-7.1l-4.3-2.8l-3.6-4.3l-0.7-6.4l1.4-3.6l3.6-3.6l2.8-2.1
	L552.5,1054.6z"/>
<path d="M807.8,969.2h5l4.3,2.1l5,5.7v8.5l-4.3,5l-3.6,2.1h-7.1l-4.3-2.8l-3.6-4.3l-0.7-7.1l2.1-3.6l3.6-3.6L807.8,969.2z"/>
<path d="M523.4,940.8h5l4.3,2.1l5,5.7v8.5l-4.3,5l-3.6,2.1h-7.1l-4.3-2.8l-3.6-4.3l-0.7-2.8v-5l3.6-5L523.4,940.8z"/>
<path d="M864.7,883.9l7.1,0.7l5.7,5l1.4,2.1v8.5l-5,5.7l-2.8,1.4h-7.8l-5.7-5l-1.4-2.1l-0.7-6.4l1.4-3.6l5.7-5.7L864.7,883.9z"/>
<path d="M324.3,656.4l7.8,0.7l5,5l1.4,2.1v8.5l-4.3,5l-3.6,2.1h-7.1l-4.3-2.8l-3.6-4.3l-0.7-7.1l2.1-3.6l3.6-3.6L324.3,656.4z"/>
<path d="M950.8,627.9l7.1,0.7l5,5l1.4,2.1v8.5l-5,5.7l-2.1,1.4h-8.5l-5.7-5l-1.4-2.1l-0.7-5.7l2.1-5l3.6-3.6L950.8,627.9z"/>
<path d="M950.8,599.5l7.1,0.7l5.7,5.7l0.7,1.4v8.5l-5,5.7l-2.8,1.4h-7.1l-3.6-2.1l-4.3-5l-0.7-6.4l1.4-3.6l3.6-3.6l2.8-2.1
	L950.8,599.5z"/>
<path d="M210.5,542.6h5l4.3,2.1l5,5.7v8.5l-5,5.7l-2.8,1.4h-7.1l-3.6-2.1l-4.3-5l-0.7-6.4l1.4-3.6l5.7-5.7L210.5,542.6z"/>
<path d="M978.5,485.7l7.1,0.7l5.7,5l1.4,2.1v8.5l-5,5.7l-2.8,1.4h-7.1l-3.6-2.1l-4.3-5l-0.7-7.1l2.1-3.6l3.6-3.6L978.5,485.7z"/>
<path d="M950.8,457.2l7.1,0.7l5.7,5.7l0.7,1.4v9.2l-5,5l-6.4,2.1l-6.4-2.1l-4.3-5l-1.4-4.3l0.7-5l2.8-4.3l4.3-2.8L950.8,457.2z"/>
<path d="M466.5,457.2l7.8,0.7l5.7,5.7l0.7,1.4v8.5l-5,5.7l-2.8,1.4h-7.1l-3.6-2.1l-4.3-5l-0.7-5.7l1.4-4.3l5.7-5.7L466.5,457.2z"/>
<path d="M466.5,371.9l7.1,0.7l5.7,5l1.4,2.1v8.5l-5,5.7l-2.8,1.4h-7.8l-5.7-5l-1.4-2.1l-0.7-6.4l1.4-3.6l3.6-3.6L466.5,371.9z"/>
<path d="M837.7,1083l6.4,0.7l5,5l1.4,2.1v8.5l-4.3,5l-3.6,2.1h-7.1l-3.6-2.1l-4.3-5l-0.7-6.4l1.4-3.6l2.8-3.6l3.6-2.1L837.7,1083z"
	/>
<path d="M580.3,1054.6l7.1,0.7l5.7,5l1.4,2.1v8.5l-5,5.7l-2.8,1.4h-7.8l-5.7-5l-1.4-2.1l-0.7-6.4l1.4-3.6l5.7-5.7L580.3,1054.6z"/>
<path d="M921.6,969.2h5l4.3,2.1l4.3,5l0.7,1.4v7.8l-5,5.7l-2.8,1.4h-7.1l-4.3-2.8l-3.6-4.3l-0.7-7.1l2.1-3.6l3.6-3.6L921.6,969.2z"
	/>
<path d="M864.7,969.2h5l4.3,2.1l5,5.7v8.5l-4.3,5l-3.6,2.1l-3.6,0.7l-6.4-2.1l-4.3-5l-1.4-3.6v-4.3l3.6-5.7L864.7,969.2z"/>
<path d="M1008.4,912.4l6.4,0.7l5.7,5.7l0.7,1.4v8.5l-5,5.7l-2.1,1.4h-8.5l-5.7-5l-1.4-2.1l-0.7-5l1.4-5l3.6-3.6l2.8-2.1
	L1008.4,912.4z"/>
<path d="M268.1,855.5l7.1,0.7l5,5l1.4,2.1v8.5l-5,5.7l-2.1,1.4H266l-5.7-5l-2.1-6.4l0.7-5l3.6-4.3L268.1,855.5z"/>
<path d="M1008.4,827l6.4,0.7l5.7,5.7l0.7,1.4v8.5l-5,5.7l-2.1,1.4h-8.5l-5-4.3l-2.1-2.8l-0.7-5.7l2.1-5l3.6-3.6L1008.4,827z"/>
<path d="M297.2,684.8l6.4,0.7l5.7,5.7l0.7,1.4v8.5l-5,5.7l-2.1,1.4h-8.5l-5.7-5l-2.1-6.4l0.7-5l2.8-3.6l4.3-2.8L297.2,684.8z"/>
<path d="M381.2,627.9h5.7l3.6,2.1l5,5.7v8.5l-5,5.7l-2.8,1.4h-7.8l-5.7-5l-1.4-2.1l-0.7-5.7l2.1-5l5.7-5L381.2,627.9z"/>
<path d="M438,599.5l7.1,0.7l5.7,5l1.4,2.1v8.5l-5,5.7l-2.8,1.4h-7.1l-3.6-2.1l-4.3-5l-0.7-7.1l3.6-5.7L438,599.5z"/>
<path d="M324.3,542.6l7.1,0.7l5.7,5l1.4,2.1v8.5l-5,5.7l-2.8,1.4h-7.1l-3.6-2.1l-4.3-5l-0.7-7.1l2.1-3.6l5.7-5L324.3,542.6z"/>
<path d="M268.8,485.7l5.7,0.7l5.7,5l1.4,2.1v8.5l-5,5.7l-2.8,1.4H266l-5.7-5l-1.4-2.1l-0.7-6.4l1.4-3.6l3.6-3.6l2.8-2.1L268.8,485.7
	z"/>
<path d="M153.6,485.7l7.1,0.7l5.7,5l1.4,2.1v8.5l-5,5.7l-6.4,2.1l-6.4-2.1l-5-5.7l-0.7-6.4l1.4-3.6l3.6-3.6L153.6,485.7z"/>
<path d="M978.5,457.2l7.1,0.7l5.7,5l1.4,2.1v8.5l-5,5.7l-2.8,1.4h-7.8l-5.7-5l-1.4-2.1l-0.7-6.4l1.4-3.6l3.6-3.6L978.5,457.2z"/>
<path d="M551.8,371.9l7.1,0.7l5.7,5l1.4,2.1v8.5l-5,5.7l-2.1,1.4h-8.5l-5.7-5l-1.4-2.1l-0.7-6.4l1.4-3.6l5-5L551.8,371.9z"/>
<path d="M439.5,371.9l6.4,0.7l5.7,5.7l0.7,1.4v8.5l-5,5.7l-2.1,1.4h-8.5l-5-4.3l-2.1-2.8l-0.7-5.7l2.1-5l3.6-3.6L439.5,371.9z"/>
<path d="M922.3,315l7.1,0.7l5,5l1.4,2.1v8.5l-5,5.7l-2.8,1.4h-7.1l-3.6-2.1l-4.3-5l-0.7-7.1l3.6-5.7l4.3-2.8L922.3,315z"/>
<path d="M382.6,315l6.4,0.7l5,5l1.4,2.1v8.5l-5,5.7l-2.8,1.4h-7.8l-5.7-5l-1.4-2.1l-0.7-5.7l1.4-4.3l3.6-3.6l2.8-2.1L382.6,315z"/>
<path d="M637.2,258.1l7.8,0.7l5,5l1.4,2.1v8.5l-4.3,5l-3.6,2.1h-7.1l-4.3-2.8l-3.6-4.3l-0.7-7.1l2.1-3.6l3.6-3.6L637.2,258.1z"/>
<path d="M581.7,258.1l6.4,0.7l5.7,5.7l0.7,1.4v8.5l-5,5.7l-2.8,1.4h-7.1l-3.6-2.1l-4.3-5.7l-0.7-5.7l2.8-5.7l5-3.6L581.7,258.1z"/>
<path d="M523.4,258.1h5l4.3,2.1l5,5.7l0.7,4.3l-1.4,5l-4.3,5l-6.4,2.1l-6.4-2.1l-5-5.7l-0.7-6.4l2.1-4.3l3.6-3.6L523.4,258.1z"/>
<path d="M466.5,258.1l7.1,0.7l5.7,5l1.4,2.1v8.5l-4.3,5l-3.6,2.1h-7.8l-5.7-5l-1.4-2.1l-0.7-7.1l2.1-3.6l3.6-3.6L466.5,258.1z"/>
<path d="M467.9,229.7l5.7,0.7l5.7,5l1.4,2.8v7.8l-5,5.7l-2.8,1.4h-7.8l-5.7-5L458,246l-0.7-6.4l1.4-3.6l2.8-3.6l3.6-2.1L467.9,229.7
	z"/>
<path d="M865.4,201.2l7.1,0.7l5,5l1.4,2.1v8.5l-5,5.7l-5,2.1l-6.4-1.4l-5-4.3l-1.4-2.1l-0.7-6.4l2.1-4.3l5.7-5L865.4,201.2z"/>
<path d="M610.1,172.8l6.4,0.7l5.7,5.7l0.7,1.4v8.5l-2.8,4.3l-4.3,2.8h-8.5l-5.7-5l-1.4-2.1l-0.7-5.7l2.1-5l5.7-5L610.1,172.8z"/>
<path d="M779.4,1111.5l7.1,0.7l5.7,5l1.4,2.1v8.5l-4.3,5l-3.6,2.1h-7.1l-4.3-2.8l-3.6-5l-0.7-6.4l2.1-3.6l3.6-3.6L779.4,1111.5z"/>
<path d="M523.4,1026.1l7.1,0.7l5.7,5l1.4,2.8v7.8l-5,5.7l-2.8,1.4H522l-5.7-5l-1.4-2.1l-0.7-5.7l1.4-4.3l5.7-5.7L523.4,1026.1z"/>
<path d="M752.4,997.7l5.7,0.7l5.7,5l1.4,2.1v8.5l-2.8,4.3l-4.3,2.8h-8.5l-5-4.3l-2.1-2.8l-0.7-5.7l2.1-5l3.6-3.6L752.4,997.7z"/>
<path d="M637.2,997.7l7.1,0.7l5.7,5l1.4,2.1v8.5l-5,5.7l-2.8,1.4h-7.1l-4.3-2.8l-3.6-4.3l-0.7-6.4l1.4-3.6l3.6-3.6L637.2,997.7z"/>
<path d="M921.6,940.8l7.1,0.7l5.7,5l1.4,2.1v8.5l-4.3,5l-3.6,2.1h-7.1l-4.3-2.8l-3.6-4.3l-0.7-7.1l2.1-3.6l3.6-3.6L921.6,940.8z"/>
<path d="M1036.1,883.9h5l3.6,2.1l5,5.7v8.5l-4.3,5l-3.6,2.1h-7.1l-4.3-2.8l-3.6-4.3l-0.7-7.1l2.8-4.3l5-4.3L1036.1,883.9z"/>
<path d="M695.5,883.9l5.7,0.7l5.7,5l1.4,2.1l0.7,5l-1.4,5l-5.7,5l-5,1.4l-6.4-2.1l-4.3-5l-1.4-4.3l0.7-5l2.8-4.3l4.3-2.8
	L695.5,883.9z"/>
<path d="M467.2,770.1l7.1,0.7l5,5l1.4,2.1v8.5l-4.3,5l-3.6,2.1h-7.1l-4.3-2.8l-3.6-4.3l-0.7-7.1l3.6-5.7l4.3-2.8L467.2,770.1z"/>
<path d="M950,741.7l7.1,0.7l5.7,5l1.4,2.1v8.5l-5,5.7l-2.8,1.4h-7.8l-5.7-5l-1.4-2.1l-0.7-6.4l1.4-3.6l5.7-5.7L950,741.7z"/>
<path d="M1120.7,627.9l7.1,0.7l5.7,5l1.4,2.1v8.5l-4.3,5l-3.6,2.1h-7.1l-4.3-2.8l-3.6-4.3l-0.7-7.1l2.1-3.6l3.6-3.6L1120.7,627.9z"
	/>
<path d="M438.8,627.9l7.1,0.7l5,5l1.4,2.1v8.5l-5,5.7l-2.8,1.4h-7.8l-5.7-5l-1.4-2.1l-0.7-5.7l2.1-5l3.6-3.6L438.8,627.9z"/>
<path d="M1065.2,571l7.1,1.4l5,5.7l0.7,1.4v7.8l-2.8,4.3l-4.3,2.8h-8.5l-5.7-5l-1.4-2.1l-0.7-5.7l1.4-4.3l3.6-3.6l2.8-2.1
	L1065.2,571z"/>
<path d="M297.2,571l6.4,0.7l5.7,5.7l0.7,1.4v8.5l-5,5.7l-2.1,1.4h-8.5l-5.7-5l-2.1-6.4l0.7-5l2.8-3.6l4.3-2.8L297.2,571z"/>
<path d="M1036.1,542.6l6.4,0.7l5.7,5l1.4,2.1v8.5l-5,5.7l-2.8,1.4h-7.1l-3.6-2.1l-4.3-5l-0.7-7.1l3.6-5.7l4.3-2.8L1036.1,542.6z"/>
<path d="M382.6,542.6l6.4,0.7l5,5l1.4,2.8v7.8l-5,5.7l-2.1,1.4h-8.5l-5.7-5l-1.4-2.1l-0.7-5.7l2.1-5l3.6-3.6L382.6,542.6z"/>
<path d="M182.8,485.7l6.4,0.7l5.7,5l1.4,2.1v8.5l-5,5.7l-2.8,1.4h-7.8l-5.7-5l-1.4-2.1l-0.7-6.4l1.4-3.6l3.6-3.6l2.8-2.1
	L182.8,485.7z"/>
<path d="M381.2,258.1l7.1,0.7l5.7,5l1.4,2.8v7.8l-5,5.7l-2.8,1.4h-7.8l-5.7-5l-1.4-2.1l-0.7-6.4l1.4-3.6l5-5L381.2,258.1z"/>
<path d="M637.2,172.8l7.1,0.7l5.7,5l1.4,2.1v8.5l-5,5.7l-2.8,1.4h-7.8l-5.7-5l-1.4-2.1l-0.7-6.4l1.4-3.6l5-5L637.2,172.8z"/>
<path d="M466.5,172.8l7.1,0.7l5.7,5l1.4,2.8v7.1l-2.8,4.3l-4.3,3.6h-8.5l-5.7-5l-1.4-2.1l-0.7-5.7l1.4-4.3l5.7-5.7L466.5,172.8z"/>
<path d="M551.8,1083l7.8,0.7l5,5l1.4,2.1v8.5l-5,5.7l-2.8,1.4h-7.8l-5.7-5l-1.4-2.1l-0.7-5.7l2.1-5l5.7-5L551.8,1083z"/>
<path d="M495.6,1083l6.4,0.7l5.7,5l1.4,2.1v8.5l-5,5.7l-2.8,1.4h-7.8l-5.7-5l-1.4-2.1l-0.7-5.7l1.4-4.3l3.6-3.6l2.8-2.1L495.6,1083z
	"/>
<path d="M552.5,997.7l6.4,0.7l5.7,5l1.4,2.1v8.5l-5,5.7l-2.8,1.4h-7.8l-5.7-5l-1.4-2.1l-0.7-5.7l1.4-4.3l3.6-3.6l2.8-2.1
	L552.5,997.7z"/>
<path d="M581,969.2l7.1,0.7l5,5l1.4,2.1v8.5l-5,5.7l-2.8,1.4h-7.8l-5.7-5l-1.4-2.1l-0.7-5.7l2.1-5l5.7-5L581,969.2z"/>
<path d="M297.2,855.5l6.4,0.7l5,5l1.4,2.1v8.5l-5,5.7l-2.1,1.4h-8.5l-5.7-5l-2.1-6.4l0.7-5l2.8-3.6l4.3-2.8L297.2,855.5z"/>
<path d="M1035.4,855.5l7.1,0.7l5.7,5l1.4,2.8v7.8l-4.3,5l-3.6,2.1h-7.1l-4.3-2.8l-3.6-4.3l-0.7-7.1l2.1-3.6l3.6-3.6L1035.4,855.5z"
	/>
<path d="M780.1,855.5l7.1,0.7l5,5l1.4,2.1v8.5l-5,5.7l-2.8,1.4h-7.1l-4.3-2.8l-3.6-4.3l-0.7-6.4l2.1-4.3l5.7-5L780.1,855.5z"/>
<path d="M353.4,798.6l7.1,0.7l5.7,5.7l0.7,1.4v8.5l-5,5.7l-2.1,1.4H352l-3.6-2.1l-4.3-5l-0.7-5.7l2.1-5l5.7-5L353.4,798.6z"/>
<path d="M1120.7,684.8h5l4.3,2.1l4.3,5l0.7,1.4v7.8l-4.3,5l-3.6,2.1h-7.1l-4.3-2.8l-3.6-4.3l-0.7-7.1l2.1-3.6l3.6-3.6L1120.7,684.8z
	"/>
<path d="M1120.7,656.4l7.1,0.7l5.7,5l1.4,2.8v7.8l-4.3,5l-3.6,2.1h-7.1l-4.3-2.8l-3.6-4.3l-0.7-6.4l1.4-3.6l5.7-5.7L1120.7,656.4z"
	/>
<path d="M325,627.9l6.4,0.7l5.7,5l1.4,2.1v8.5l-5,5.7l-2.8,1.4h-7.8l-5.7-5l-1.4-2.1l-0.7-5.7l1.4-4.3l3.6-3.6l2.8-2.1L325,627.9z"
	/>
<path d="M807.8,599.5h5l3.6,1.4l5.7,6.4v8.5l-5,5.7l-2.8,1.4h-7.1l-3.6-2.1l-4.3-5l-0.7-6.4l2.1-4.3l5.7-5L807.8,599.5z"/>
<path d="M1093,571l6.4,0.7l5.7,5l1.4,2.1v8.5l-5,5.7l-2.8,1.4h-7.1l-3.6-2.1l-4.3-5l-0.7-5.7l1.4-4.3l3.6-3.6l2.8-2.1L1093,571z"/>
<path d="M1120.7,485.7l7.8,0.7l5,5l1.4,2.1v8.5l-5,5.7l-2.8,1.4h-7.1l-3.6-2.1l-4.3-5l-0.7-5.7l1.4-4.3l5-5L1120.7,485.7z"/>
<path d="M950.8,485.7h5l3.6,2.1l5,5.7v8.5l-5,5.7l-2.8,1.4h-7.1l-4.3-2.8l-3.6-5l-0.7-5.7l2.1-4.3l5.7-5L950.8,485.7z"/>
<path d="M864.7,457.2l7.1,0.7l5.7,5l1.4,2.1v8.5l-5,5.7l-2.1,1.4H864l-3.6-2.1l-3.6-4.3l-1.4-6.4l1.4-4.3l5.7-5.7L864.7,457.2z"/>
<path d="M494.9,457.2l7.1,0.7l5.7,5l1.4,2.1v8.5l-5,5.7l-2.8,1.4h-7.1l-3.6-2.1l-4.3-5l-0.7-5.7l1.4-4.3l3.6-3.6L494.9,457.2z"/>
<path d="M409.6,457.2l7.1,0.7l5.7,5l1.4,2.1v8.5l-4.3,5l-3.6,2.1h-7.1l-4.3-2.8l-3.6-4.3l-0.7-7.1l2.1-3.6l5.7-5L409.6,457.2z"/>
<path d="M182,428.8l7.1,0.7l5.7,5l1.4,2.1v8.5l-5,5.7l-2.8,1.4h-7.8l-5.7-5l-1.4-2.1l-0.7-6.4l2.1-4.3l5.7-5L182,428.8z"/>
<path d="M495.6,400.4l7.1,0.7l5,5l1.4,2.1v8.5l-4.3,5l-3.6,2.1h-7.1L490,421l-3.6-4.3l-0.7-7.1l2.1-3.6l3.6-3.6L495.6,400.4z"/>
<path d="M381.9,400.4l6.4,0.7l5.7,5l1.4,2.1v8.5l-5,5.7l-2.8,1.4h-7.8l-5.7-5l-2.1-5.7l0.7-5.7l2.8-3.6l4.3-2.8L381.9,400.4z"/>
<path d="M551.8,343.5l7.1,0.7l5.7,5l1.4,2.1v8.5l-5,5.7l-2.8,1.4h-7.1l-4.3-2.8l-3.6-4.3l-0.7-5.7l1.4-4.3l5.7-5.7L551.8,343.5z"/>
<path d="M409.6,315l7.1,0.7l5.7,5l1.4,2.1v8.5l-5,5.7l-2.8,1.4h-7.1l-4.3-2.8l-3.6-4.3l-0.7-6.4l1.4-3.6l5.7-5.7L409.6,315z"/>
<path d="M921.6,286.6l7.1,0.7l5.7,5l1.4,2.8v7.8l-4.3,5L928,310h-7.1l-4.3-2.8l-3.6-4.3l-0.7-7.1l2.1-3.6l3.6-3.6L921.6,286.6z"/>
<path d="M524.1,286.6l6.4,0.7l5.7,5l1.4,2.1v8.5l-5,5.7l-2.8,1.4H522l-5.7-5l-1.4-2.1l-0.7-6.4l2.1-4.3l3.6-3.6L524.1,286.6z"/>
<path d="M410.3,286.6l6.4,0.7l5.7,5l1.4,2.1v8.5l-4.3,5L416,310h-7.1l-4.3-2.8l-3.6-4.3l-0.7-7.1l2.1-3.6l3.6-3.6L410.3,286.6z"/>
<path d="M524.1,201.2h5.7l5.7,5l2.1,3.6v7.8l-4.3,5l-3.6,2.1h-7.1l-4.3-2.8l-3.6-4.3l-0.7-7.1l3.6-5.7l4.3-2.8L524.1,201.2z"/>
<path d="M609.4,1083l6.4,0.7l5.7,5l1.4,2.1v8.5l-5,5.7l-2.8,1.4h-7.8l-5-4.3l-2.1-2.8l-0.7-6.4l1.4-3.6l3.6-3.6l2.8-2.1L609.4,1083z
	"/>
<path d="M1007.6,1083h5l3.6,2.1l5,5.7v8.5l-4.3,5l-3.6,2.1h-7.1l-4.3-2.8l-3.6-5l-0.7-5.7l2.1-4.3l5.7-5L1007.6,1083z"/>
<path d="M979.9,1026.1l6.4,0.7l5,5l1.4,2.1v8.5l-2.8,4.3l-4.3,2.8h-7.8l-3.6-2.1l-3.6-4.3l-0.7-1.4v-7.8l2.8-4.3l4.3-2.8
	L979.9,1026.1z"/>
<path d="M1122.1,969.2l6.4,0.7l5,5l1.4,2.1v8.5l-4.3,5l-3.6,2.1h-7.1l-3.6-2.1l-4.3-5.7l-0.7-5.7l2.8-5.7l5-3.6L1122.1,969.2z"/>
<path d="M809.2,912.4l5.7,0.7l5.7,5l1.4,2.1v8.5l-4.3,5l-3.6,2.1h-7.1l-4.3-2.8l-3.6-4.3l-0.7-7.1l2.8-5l5-3.6L809.2,912.4z"/>
<path d="M1149.2,883.9l7.1,0.7l5.7,5l1.4,2.8v7.1l-2.8,4.3l-3.6,2.8l-1.4,0.7h-7.8l-5.7-5l-1.4-2.1l-0.7-5.7l1.4-4.3l3.6-3.6
	L1149.2,883.9z"/>
<path d="M1122.1,883.9l6.4,0.7l5.7,5.7l0.7,1.4v8.5l-4.3,5l-3.6,2.1h-7.1l-4.3-2.8l-2.8-3.6l-1.4-6.4l1.4-4.3l3.6-3.6l2.8-2.1
	L1122.1,883.9z"/>
<path d="M210.5,883.9l7.1,0.7l5.7,5l1.4,2.1v8.5l-5,5.7l-2.8,1.4h-7.1l-4.3-2.8l-3.6-4.3l-0.7-5.7l1.4-4.3l5.7-5.7L210.5,883.9z"/>
<path d="M182,883.9l7.1,0.7l5.7,5l1.4,2.1v8.5l-5,5.7l-2.8,1.4h-7.1l-3.6-2.1l-4.3-5l-0.7-5.7l2.1-5l5-5L182,883.9z"/>
<path d="M182.8,855.5l6.4,0.7l5.7,5l1.4,2.1v9.2l-5,5l-2.8,1.4h-7.1l-3.6-2.1l-4.3-5.7l-0.7-5.7l2.1-4.3l3.6-3.6L182.8,855.5z"/>
<path d="M496.4,827l7.1,1.4l5,5l0.7,1.4v8.5l-4.3,5l-3.6,2.1h-7.8l-5.7-5l-2.1-5l0.7-6.4l2.8-3.6l4.3-2.8L496.4,827z"/>
<path d="M381.2,798.6l7.1,0.7l5.7,5l1.4,2.8v7.8l-5,5.7l-2.8,1.4h-7.8l-5.7-5l-1.4-2.1l-0.7-5.7l1.4-4.3l5.7-5.7L381.2,798.6z"/>
<path d="M411,770.1l7.1,1.4l5.7,6.4v8.5l-5,5.7l-2.1,1.4h-8.5l-5.7-5l-1.4-2.1l-0.7-5l1.4-5l3.6-3.6l2.8-2.1L411,770.1z"/>
<path d="M382.6,684.8l6.4,0.7l5.7,5.7l0.7,1.4v8.5l-4.3,5l-3.6,2.1h-7.1l-4.3-2.8l-3.6-5l-0.7-5.7l1.4-3.6l3.6-3.6l2.8-2.1
	L382.6,684.8z"/>
<path d="M923,656.4l6.4,0.7l5.7,5.7l0.7,1.4v8.5l-5,5.7l-2.8,1.4h-7.1l-4.3-2.8l-3.6-4.3l-0.7-5.7l1.4-4.3l3.6-3.6l2.8-2.1
	L923,656.4z"/>
<path d="M297.2,627.9l6.4,0.7l5,5l1.4,2.1v8.5l-2.8,4.3l-4.3,2.8h-8.5l-5.7-5l-1.4-2.1v-8.5l5-5.7L297.2,627.9z"/>
<path d="M979.9,571l5.7,0.7l5.7,5l1.4,2.1v8.5l-5,5.7l-2.8,1.4h-7.8l-5.7-5l-1.4-2.1l-0.7-5.7l2.1-5l3.6-3.6L979.9,571z"/>
<path d="M210.5,571l7.1,0.7l5.7,5l1.4,2.1v8.5l-5,5.7l-2.8,1.4h-7.8l-5-4.3l-2.1-2.8l-0.7-6.4l2.1-4.3l5.7-5L210.5,571z"/>
<path d="M524.8,428.8l5.7,0.7l5.7,5l1.4,2.8v7.8l-4.3,5l-3.6,2.1h-7.1l-3.6-2.1l-4.3-5l-0.7-5.7l1.4-4.3l2.8-3.6l3.6-2.1
	L524.8,428.8z"/>
<path d="M865.4,428.8l7.1,0.7l5.7,5.7l0.7,1.4v8.5l-5,5.7l-2.8,1.4H864l-4.3-2.8l-3.6-4.3l-0.7-5l1.4-5l3.6-3.6l2.8-2.1L865.4,428.8
	z"/>
<path d="M752.4,371.9l6.4,0.7l5.7,5.7l0.7,1.4v8.5l-5,5.7l-2.1,1.4h-7.8l-3.6-2.1l-4.3-5l-0.7-5.7l2.1-5l5.7-5L752.4,371.9z"/>
<path d="M893.9,371.9l7.1,0.7l5.7,5.7l0.7,1.4v8.5l-4.3,5l-3.6,2.1h-7.1l-4.3-2.8l-3.6-5l-0.7-5l2.1-5l3.6-3.6L893.9,371.9z"/>
<path d="M666.3,371.9l7.1,0.7l5,5l1.4,2.1v8.5l-5,5.7l-2.1,1.4h-7.8l-3.6-2.1l-4.3-5l-0.7-5.7l2.1-5l5.7-5L666.3,371.9z"/>
<path d="M523.4,229.7l7.1,0.7l5.7,5l1.4,2.8v7.8l-4.3,5l-3.6,2.1l-3.6,0.7l-6.4-2.1l-5-5.7l-0.7-6.4l1.4-3.6l3.6-3.6L523.4,229.7z"
	/>
<path d="M524.1,172.8l6.4,0.7l5.7,5l1.4,2.8v7.8l-4.3,5l-3.6,2.1l-4.3,0.7l-5.7-2.1l-5-5.7l-0.7-6.4l2.1-4.3l5.7-5L524.1,172.8z"/>
<path d="M1063.8,1083l7.1,0.7l5.7,5l1.4,2.8v7.8l-4.3,5l-3.6,2.1h-7.1l-5.7-4.3l-2.1-2.8l-0.7-7.1l2.1-3.6l3.6-3.6L1063.8,1083z"/>
<path d="M1149.2,997.7h5l4.3,2.1l4.3,5l0.7,1.4v7.1l-4.3,5.7l-3.6,2.1h-7.1l-4.3-2.8l-3.6-4.3l-0.7-7.1l2.1-3.6l3.6-3.6
	L1149.2,997.7z"/>
<path d="M695.5,969.2l6.4,0.7l5,5l1.4,2.1v8.5l-5,5.7l-2.8,1.4h-7.8l-5.7-5l-1.4-2.1l-0.7-5l1.4-5l3.6-3.6l2.8-2.1L695.5,969.2z"/>
<path d="M467.9,969.2l6.4,0.7l5,5l1.4,2.1v8.5l-5,5.7l-2.1,1.4h-8.5l-5-4.3l-2.1-2.8v-8.5l2.8-4.3l4.3-2.8L467.9,969.2z"/>
<path d="M979.9,912.4l5.7,0.7l5.7,5l1.4,2.1v8.5l-5,5.7l-2.1,1.4h-7.8l-3.6-2.1l-3.6-4.3l-1.4-5.7l1.4-5l3.6-3.6l2.8-2.1
	L979.9,912.4z"/>
<path d="M524.8,883.9l5.7,0.7l5.7,5l1.4,2.8v7.8l-4.3,5l-3.6,2.1h-7.1l-4.3-2.8l-3.6-4.3l-0.7-5.7l1.4-4.3l2.8-3.6l3.6-2.1
	L524.8,883.9z"/>
<path d="M894.6,827l6.4,0.7l5.7,5.7l0.7,1.4v8.5l-5,5.7l-2.8,1.4h-7.1l-4.3-2.8l-3.6-4.3l-0.7-5.7l2.1-5l5.7-5L894.6,827z"/>
<path d="M950.8,798.6l6.4,0.7l5.7,5l1.4,2.1v8.5l-4.3,5l-3.6,2.1h-7.1l-4.3-2.8l-3.6-4.3l-0.7-6.4l1.4-3.6l3.6-3.6l2.8-2.1
	L950.8,798.6z"/>
<path d="M382.6,770.1l6.4,0.7l5,5l1.4,2.8v7.8l-5,5.7l-2.8,1.4h-7.1l-4.3-2.8l-3.6-4.3l-0.7-5l1.4-5l3.6-3.6l2.8-2.1L382.6,770.1z"
	/>
<path d="M1149.2,741.7l7.1,0.7l5.7,5l1.4,2.8v7.1l-2.8,4.3l-3.6,2.8l-1.4,0.7h-7.1l-3.6-2.1l-4.3-5l-0.7-5.7l1.4-4.3l3.6-3.6
	L1149.2,741.7z"/>
<path d="M409.6,684.8l7.1,0.7l5.7,5l1.4,2.8v7.8l-5,5.7l-2.8,1.4h-7.8l-5.7-5l-1.4-2.1l-0.7-5l1.4-5l5.7-5.7L409.6,684.8z"/>
<path d="M807.8,627.9l7.8,0.7l5,5l1.4,2.1v8.5l-5,5.7l-2.8,1.4h-7.1l-4.3-2.8l-3.6-5l-0.7-5l1.4-4.3l3.6-3.6L807.8,627.9z"/>
<path d="M182,627.9l7.1,0.7l5.7,5l1.4,2.8v7.8l-5,5.7l-2.8,1.4h-7.1l-4.3-2.8l-3.6-4.3l-0.7-6.4l1.4-3.6l5-5L182,627.9z"/>
<path d="M381.9,599.5l7.1,0.7l5.7,5.7l0.7,1.4v8.5l-4.3,5l-3.6,2.1h-7.1l-4.3-2.8l-3.6-4.3l-0.7-6.4l2.1-4.3l3.6-3.6L381.9,599.5z"
	/>
<path d="M324.3,514.1l7.1,0.7l5.7,5l1.4,2.8v7.8l-4.3,5l-3.6,2.1h-7.1l-4.3-2.8l-3.6-4.3l-0.7-6.4l1.4-3.6l3.6-3.6L324.3,514.1z"/>
<path d="M354.1,343.5l6.4,0.7l5.7,5.7l1.4,5.7l-1.4,5l-4.3,5l-2.8,1.4H352l-4.3-2.8l-3.6-4.3l-0.7-5.7l2.1-5l5.7-5L354.1,343.5z"/>
<path d="M580.3,286.6l7.1,0.7l5.7,5l1.4,2.1v8.5l-5,5.7l-2.8,1.4h-7.8l-5-4.3l-2.1-2.8l-0.7-5.7l2.1-5l5.7-5L580.3,286.6z"/>
<path d="M921.6,258.1l7.1,0.7l5.7,5l1.4,2.8v7.8l-4.3,5l-3.6,2.1h-7.1l-5.7-4.3l-2.1-2.8l-0.7-7.1l2.1-3.6l3.6-3.6L921.6,258.1z"/>
<path d="M894.6,201.2l7.1,1.4l5.7,6.4v8.5l-5,5.7l-2.8,1.4h-7.1l-3.6-2.1l-4.3-5l-0.7-6.4l1.4-3.6l3.6-3.6l2.8-2.1L894.6,201.2z"/>
<path d="M1149.2,1026.1h5l4.3,2.1l4.3,5l0.7,1.4v7.1l-4.3,5.7l-3.6,2.1h-7.1l-4.3-2.8l-3.6-4.3l-0.7-7.1l3.6-5.7L1149.2,1026.1z"/>
<path d="M667,997.7l7.1,1.4l5.7,6.4v8.5l-5,5.7l-2.8,1.4h-7.8l-5.7-5l-1.4-2.1l-0.7-5.7l1.4-4.3l3.6-3.6l2.8-2.1L667,997.7z"/>
<path d="M837.7,855.5l6.4,0.7l5,5l1.4,2.8v7.8l-5,5.7l-2.8,1.4h-7.1l-3.6-2.1l-4.3-5.7l-0.7-5l2.1-5l3.6-3.6L837.7,855.5z"/>
<path d="M325.7,855.5l6.4,0.7l5,5l1.4,2.1v8.5l-5,5.7l-2.1,1.4h-7.8l-3.6-2.1l-3.6-4.3l-0.7-1.4v-7.8l2.8-4.3l4.3-2.8L325.7,855.5z"
	/>
<path d="M1035.4,827l7.1,0.7l5.7,5l1.4,2.8v7.8l-4.3,5l-3.6,2.1h-7.1l-4.3-2.8l-3.6-4.3l-0.7-6.4l1.4-3.6l5-5L1035.4,827z"/>
<path d="M1122.1,741.7l6.4,0.7l5.7,5.7l0.7,1.4v8.5l-4.3,5l-3.6,2.1l-3.6,0.7l-6.4-2.1l-4.3-5l-1.4-4.3l0.7-5l5-5.7L1122.1,741.7z"
	/>
<path d="M353.4,656.4l6.4,0.7l5.7,5l1.4,2.1v8.5l-5,5.7l-2.8,1.4h-7.8l-5.7-5l-1.4-2.1l-0.7-5l1.4-5l3.6-3.6l2.8-2.1L353.4,656.4z"
	/>
<path d="M894.6,656.4l6.4,0.7l5,5l1.4,2.8v7.8l-5,5.7l-2.1,1.4h-8.5l-5.7-5l-1.4-2.1v-8.5l5-5.7L894.6,656.4z"/>
<path d="M410.3,656.4l6.4,0.7l5.7,5l1.4,2.1v8.5l-4.3,5l-3.6,2.1h-7.1l-4.3-2.8l-3.6-4.3l-0.7-6.4l2.1-4.3l3.6-3.6L410.3,656.4z"/>
<path d="M182.8,656.4l6.4,0.7l5.7,5l1.4,2.1v8.5l-5,5.7l-2.8,1.4h-7.8l-5.7-5l-1.4-2.1l-0.7-5.7l2.1-5l5.7-5L182.8,656.4z"/>
<path d="M1149.2,599.5h5l4.3,2.1l4.3,5l0.7,1.4v7.1l-2.8,4.3l-5,3.6h-7.1l-4.3-2.8l-3.6-4.3l-0.7-5.7l1.4-4.3l3.6-3.6L1149.2,599.5z
	"/>
<path d="M354.1,571l7.1,1.4l5.7,6.4v8.5l-5,5.7l-2.8,1.4h-7.8l-5.7-5l-1.4-2.1l-0.7-5.7l1.4-4.3l3.6-3.6l2.8-2.1L354.1,571z"/>
<path d="M864.7,571l7.1,0.7l5.7,5l1.4,2.8v7.1l-2.8,4.3l-3.6,2.8l-1.4,0.7h-7.8l-5.7-5l-1.4-2.1l-0.7-5.7l1.4-4.3l5.7-5.7L864.7,571
	z"/>
<path d="M808.5,571l6.4,0.7l5.7,5l1.4,2.1v8.5l-4.3,5l-3.6,2.1h-7.1l-4.3-2.8l-3.6-4.3l-0.7-6.4l2.1-4.3l5.7-5L808.5,571z"/>
<path d="M837,542.6l6.4,0.7l5.7,5l1.4,2.8v7.8l-5,5.7l-2.8,1.4h-7.1l-3.6-2.1l-4.3-5l-0.7-5l1.4-5l3.6-3.6l2.8-2.1L837,542.6z"/>
<path d="M950.8,514.1l7.1,0.7l5.7,5.7l0.7,1.4v8.5l-5,5.7l-2.1,1.4h-7.8l-3.6-2.1l-4.3-5.7l-0.7-4.3l1.4-5l5-5L950.8,514.1z"/>
<path d="M153.6,514.1l7.1,0.7l5.7,5l1.4,2.8v7.8l-5,5.7l-2.8,1.4h-7.1l-3.6-2.1l-4.3-5.7l-0.7-5l1.4-4.3l5-5L153.6,514.1z"/>
<path d="M1149.2,485.7l7.1,0.7l5.7,5l1.4,2.8v7.1l-4.3,5.7l-3.6,2.1h-7.1l-4.3-2.8l-3.6-4.3l-0.7-7.1l2.1-3.6l3.6-3.6L1149.2,485.7z
	"/>
<path d="M409.6,485.7l7.1,0.7l5.7,5l1.4,2.8v7.1l-2.8,4.3l-3.6,2.8l-1.4,0.7h-7.8l-5.7-5l-1.4-2.1l-0.7-5.7l1.4-4.3l5-5L409.6,485.7
	z"/>
<path d="M523.4,457.2l7.1,0.7l5.7,5l1.4,2.8v7.1l-2.8,4.3l-3.6,2.8l-1.4,0.7h-7.1l-3.6-2.1l-4.3-5l-0.7-5.7l1.4-4.3l5.7-5.7
	L523.4,457.2z"/>
<path d="M581.7,400.4l6.4,0.7l5.7,5.7l0.7,1.4v8.5l-5,5.7l-2.8,1.4h-7.1l-3.6-2.1l-4.3-5.7l-0.7-5l2.1-5l3.6-3.6L581.7,400.4z"/>
<path d="M893.9,400.4l7.1,0.7l5,5l1.4,2.1v8.5l-5,5.7l-2.8,1.4h-7.8l-5.7-5l-1.4-2.1l-0.7-5.7l2.1-5l5.7-5L893.9,400.4z"/>
<path d="M609.4,400.4l6.4,0.7l5.7,5l1.4,2.8v7.8l-5,5.7l-2.8,1.4h-7.8l-5.7-5l-1.4-2.1l-0.7-5.7l1.4-4.3l5-5L609.4,400.4z"/>
<path d="M154.3,400.4l6.4,0.7l5.7,5l1.4,2.8v7.8l-5,5.7l-2.1,1.4h-8.5l-5.7-5l-1.4-2.1v-9.2l5.7-5.7L154.3,400.4z"/>
<path d="M950,371.9l7.1,0.7l5.7,5l1.4,2.8v7.1l-2.8,4.3l-3.6,2.8l-1.4,0.7h-7.8l-5.7-5l-1.4-2.1l-0.7-5.7l1.4-4.3l5.7-5.7L950,371.9
	z"/>
<path d="M609.4,371.9l7.1,0.7l5,5l1.4,2.1v8.5l-4.3,5l-3.6,2.1H608l-4.3-2.8l-3.6-4.3l-0.7-6.4l2.1-4.3l5.7-5L609.4,371.9z"/>
<path d="M866.1,286.6l6.4,0.7l5.7,5.7l0.7,1.4v8.5l-5,5.7l-2.8,1.4h-7.8l-5.7-5l-1.4-2.1l-0.7-5l1.4-5l5-5L866.1,286.6z"/>
<path d="M864.7,172.8l7.1,0.7l5.7,5l1.4,2.1v8.5l-5,5.7l-2.8,1.4H864l-4.3-2.8l-3.6-4.3l-0.7-6.4l2.1-4.3l5.7-5L864.7,172.8z"/>
<path d="M865.4,997.7l6.4,0.7l5.7,5l1.4,2.1v7.8l-2.8,4.3l-3.6,2.8l-1.4,0.7H864l-3.6-2.1l-4.3-5l-0.7-5.7l2.1-5l5.7-5L865.4,997.7z
	"/>
<path d="M1149.2,969.2l7.1,0.7l5.7,5l1.4,2.8v7.1l-2.8,4.3l-5,3.6h-7.1l-4.3-2.8l-3.6-4.3l-0.7-5.7l1.4-4.3l3.6-3.6L1149.2,969.2z"
	/>
<path d="M951.5,883.9l5.7,0.7l5.7,5l1.4,2.1v8.5l-4.3,5l-3.6,2.1h-7.1l-3.6-2.1l-4.3-5l-0.7-5.7l1.4-4.3l3.6-3.6l2.8-2.1
	L951.5,883.9z"/>
<path d="M609.4,883.9l7.1,0.7l5.7,5.7l0.7,1.4v8.5l-4.3,5l-3.6,2.1H608l-4.3-2.8l-3.6-5l-0.7-5l2.1-5l5.7-5L609.4,883.9z"/>
<path d="M238.9,883.9l7.1,0.7l5.7,5l1.4,2.1v8.5l-4.3,5l-3.6,2.1h-7.1l-5.7-4.3l-2.1-2.8l-0.7-6.4l1.4-3.6l5.7-5.7L238.9,883.9z"/>
<path d="M979.9,855.5l7.1,1.4l5,5.7l0.7,1.4v7.8l-5,5.7l-2.8,1.4h-7.8l-5-4.3l-2.1-2.8l-0.7-6.4l2.1-4.3l3.6-3.6L979.9,855.5z"/>
<path d="M1122.8,827l5.7,0.7l5.7,5.7l0.7,1.4v8.5l-5,5.7l-2.8,1.4h-7.1l-3.6-2.1l-4.3-5l-0.7-5l1.4-5l3.6-3.6l2.8-2.1L1122.8,827z"
	/>
<path d="M211.2,711.1l6.4,0.7l5.7,5l1.4,2.1v7.8l-2.8,4.3l-3.6,2.8l-1.4,0.7h-7.8l-5.7-5l-1.4-2.1l-0.7-5.7l2.1-5l5.7-5L211.2,711.1
	z"/>
<path d="M268.8,684.8l6.4,0.7l5,5l1.4,2.1v8.5l-5,5.7l-2.1,1.4h-7.8l-3.6-2.1l-4.3-5l-0.7-5l1.4-5l3.6-3.6l2.8-2.1L268.8,684.8z"/>
<path d="M211.9,684.8l6.4,0.7l5.7,5.7l0.7,1.4v8.5l-4.3,5l-3.6,2.1h-7.1l-4.3-2.8l-3.6-4.3l-0.7-6.4l2.1-4.3l3.6-3.6L211.9,684.8z"
	/>
<path d="M1149.2,627.9l7.1,0.7l5.7,5l1.4,2.8v7.1l-2.8,4.3l-3.6,2.8l-1.4,0.7h-7.1l-3.6-2.1l-4.3-5l-0.7-5.7l1.4-4.3l5-5
	L1149.2,627.9z"/>
<path d="M1149.9,514.1l6.4,0.7l5.7,5l1.4,2.8v7.1l-2.8,4.3l-5,3.6l-3.6,0.7l-6.4-2.1l-5-5.7l-0.7-6.4l2.1-4.3l3.6-3.6L1149.9,514.1z
	"/>
<path d="M239.6,428.8l6.4,0.7l5.7,5l1.4,2.1v8.5l-4.3,5l-3.6,2.1h-7.1l-4.3-2.8l-3.6-4.3l-0.7-6.4l2.1-4.3l5.7-5L239.6,428.8z"/>
<path d="M694.8,400.4l6.4,0.7l5.7,5l1.4,2.8v7.8l-5,5.7l-2.8,1.4h-7.8l-5.7-5l-1.4-2.1l-0.7-5.7l2.1-5l5.7-5L694.8,400.4z"/>
<path d="M353.4,400.4l7.1,0.7l5,5l1.4,2.1v8.5l-5,5.7l-2.1,1.4H352l-3.6-2.1l-3.6-4.3l-0.7-1.4v-7.8l5-5.7L353.4,400.4z"/>
<path d="M353.4,371.9l7.1,0.7l5,5l1.4,2.1v8.5l-5,5.7l-2.8,1.4H352l-4.3-2.8l-3.6-4.3l-0.7-5.7l2.1-5l5.7-5L353.4,371.9z"/>
<path d="M467.9,1083l6.4,0.7l5,5l1.4,2.1v8.5l-5,5.7l-2.1,1.4h-7.8l-3.6-2.1l-4.3-5.7v-7.8l5-5.7L467.9,1083z"/>
<path d="M665.6,1083l7.1,0.7l5.7,5l1.4,2.8v7.8l-4.3,5l-3.6,2.1h-7.1l-4.3-2.8l-3.6-4.3l-0.7-6.4l2.1-4.3l5.7-5L665.6,1083z"/>
<path d="M1122.1,1054.6l6.4,0.7l5,5l1.4,2.1v8.5l-5,5.7l-2.8,1.4h-7.1l-3.6-2.1l-4.3-5.7l-0.7-4.3l1.4-5l3.6-3.6l2.8-2.1
	L1122.1,1054.6z"/>
<path d="M723.9,1054.6l7.1,1.4l5,5.7l0.7,1.4v7.8l-5,5.7l-2.8,1.4h-7.8l-5-4.3l-2.1-2.8l-0.7-5.7l2.1-5l3.6-3.6L723.9,1054.6z"/>
<path d="M667,1054.6l7.1,1.4l5.7,6.4v8.5l-4.3,5l-3.6,2.1h-7.1l-4.3-2.8l-3.6-4.3l-0.7-6.4l1.4-3.6l3.6-3.6l2.8-2.1L667,1054.6z"/>
<path d="M951.5,1026.1l5.7,0.7l5.7,5l1.4,2.8v7.8l-5,5.7l-2.1,1.4h-7.8l-3.6-2.1l-3.6-4.3l-0.7-1.4v-7.8l2.8-4.3l4.3-2.8
	L951.5,1026.1z"/>
<path d="M923,1026.1l6.4,0.7l5,5l1.4,2.1v8.5l-5,5.7l-2.8,1.4h-7.1l-3.6-2.1l-3.6-4.3l-1.4-5.7l1.4-5l5-5L923,1026.1z"/>
<path d="M921.6,997.7l7.1,0.7l5.7,5l1.4,2.8v7.8l-4.3,5l-3.6,2.1h-7.1l-4.3-2.8l-3.6-4.3l-0.7-6.4l2.1-4.3l5.7-5L921.6,997.7z"/>
<path d="M637.2,883.9l7.1,0.7l5.7,5l1.4,2.8v7.1l-2.8,4.3l-3.6,2.8l-1.4,0.7h-7.1l-3.6-2.1l-4.3-5l-0.7-5l1.4-5l5.7-5.7L637.2,883.9
	z"/>
<path d="M411,827l6.4,0.7l5,5l1.4,2.1v8.5l-4.3,5l-3.6,2.1h-7.1l-4.3-2.8l-3.6-4.3l-0.7-5.7l1.4-4.3l3.6-3.6l2.8-2.1L411,827z"/>
<path d="M269.5,741.7l5.7,0.7l5,5l1.4,2.1v8.5l-5,5.7l-2.1,1.4H266l-5-4.3l-2.1-2.8v-8.5l5-5.7l2.1-1.4L269.5,741.7z"/>
<path d="M1036.8,684.8l6.4,0.7l5,5l1.4,2.1v8.5l-5,5.7l-2.8,1.4h-7.8l-5-4.3l-2.1-2.8l-0.7-5l1.4-5l5-5L1036.8,684.8z"/>
<path d="M979.9,684.8l5.7,0.7l5.7,5l1.4,2.8v7.8l-5,5.7l-2.8,1.4h-7.1l-4.3-2.8l-3.6-4.3l-0.7-6.4l2.1-4.3l3.6-3.6L979.9,684.8z"/>
<path d="M923,571l7.1,1.4l5,5.7l0.7,1.4v7.8l-5,5.7l-2.8,1.4h-7.8l-5-4.3l-2.1-2.8l-0.7-5.7l2.1-5l3.6-3.6L923,571z"/>
<path d="M1149.9,571h5l4.3,2.8l3.6,4.3l0.7,1.4v7.1l-4.3,5.7l-3.6,2.1h-7.1l-4.3-2.8l-3.6-4.3l-0.7-6.4l2.1-4.3l5.7-5L1149.9,571z"
	/>
<path d="M809.2,542.6l7.1,1.4l5.7,6.4v8.5l-5,5.7l-2.8,1.4h-7.8l-5-4.3l-2.1-3.6l-0.7-5l2.1-5l3.6-3.6L809.2,542.6z"/>
<path d="M809.2,457.2l6.4,0.7l5.7,5.7l0.7,1.4v8.5l-4.3,5l-3.6,2.1h-7.1l-4.3-2.8l-3.6-5l-0.7-4.3l1.4-5l3.6-3.6l2.8-2.1
	L809.2,457.2z"/>
<path d="M637.2,457.2l7.1,0.7l5.7,5l1.4,2.8v7.8l-5,5.7l-2.1,1.4h-7.8l-4.3-2.8l-2.8-3.6l-0.7-1.4v-7.8l5-5.7L637.2,457.2z"/>
<path d="M923,428.8l7.1,1.4l5,5.7l0.7,1.4v7.8l-5,5.7l-2.8,1.4h-7.8l-5-4.3l-2.1-2.8l-0.7-5.7l2.1-5l3.6-3.6L923,428.8z"/>
<path d="M979.9,428.8l6.4,0.7l5.7,5.7l0.7,1.4v8.5l-4.3,5l-3.6,2.1h-7.1l-4.3-2.8l-3.6-4.3l-0.7-5.7l2.1-5l5.7-5L979.9,428.8z"/>
<path d="M524.8,1111.5l7.1,1.4l5,5.7l0.7,1.4v7.8l-5,5.7l-2.8,1.4h-7.1l-3.6-2.1l-4.3-5l-0.7-5.7l1.4-4.3l3.6-3.6l2.8-2.1
	L524.8,1111.5z"/>
<path d="M1063.8,1111.5l7.1,0.7l5.7,5l1.4,2.8v7.8l-4.3,5l-3.6,2.1h-7.1l-4.3-2.8l-3.6-5l-0.7-5.7l2.1-4.3l5.7-5L1063.8,1111.5z"/>
<path d="M864.7,1083l7.1,0.7l5.7,5l1.4,2.8v7.1l-2.8,4.3l-3.6,2.8l-1.4,0.7H864l-3.6-2.1l-4.3-5l-0.7-5l1.4-5l5-5L864.7,1083z"/>
<path d="M638.6,969.2l5.7,0.7l5.7,5l1.4,2.8v7.8l-5,5.7l-2.8,1.4h-7.1l-4.3-2.8l-3.6-4.3l-0.7-5.7l2.1-5l3.6-3.6L638.6,969.2z"/>
<path d="M1065.2,940.8l7.1,1.4l5,5.7l0.7,1.4v7.8l-4.3,5l-3.6,2.1h-7.1l-4.3-2.8l-3.6-4.3l-0.7-5.7l1.4-4.3l3.6-3.6l2.8-2.1
	L1065.2,940.8z"/>
<path d="M581.7,940.8l6.4,0.7l5.7,5.7l0.7,1.4v8.5l-4.3,5l-3.6,2.1h-7.1l-4.3-2.8l-3.6-5l-0.7-5l2.1-5l5.7-5L581.7,940.8z"/>
<path d="M723.9,855.5l7.1,1.4l5,5.7l0.7,1.4v7.8l-5,5.7l-2.8,1.4h-7.1l-4.3-2.8l-3.6-5l-0.7-5.7l2.1-4.3l3.6-3.6L723.9,855.5z"/>
<path d="M410.3,855.5l7.1,0.7l5,5l1.4,2.1v8.5l-5,5.7l-2.8,1.4h-7.1l-3.6-2.1l-4.3-5.7v-7.8l5-5.7L410.3,855.5z"/>
<path d="M1149.2,827l7.1,0.7l5.7,5l1.4,2.8v7.1l-4.3,5.7l-3.6,2.1h-7.1l-4.3-2.8l-3.6-4.3l-0.7-5.7l1.4-4.3l3.6-3.6L1149.2,827z"/>
<path d="M354.1,770.1l6.4,0.7l5,5l1.4,2.8v7.8l-4.3,5l-3.6,2.1H352l-4.3-2.8l-3.6-5l-0.7-5l2.1-5l3.6-3.6L354.1,770.1z"/>
<path d="M297.2,741.7l6.4,0.7l5,5l1.4,2.1v8.5l-5,5.7l-2.1,1.4h-7.8l-3.6-2.1l-3.6-4.3l-0.7-1.4v-8.5l5.7-5.7L297.2,741.7z"/>
<path d="M467.9,684.8l5.7,0.7l5.7,5l1.4,2.8v7.8l-5,5.7l-2.8,1.4h-7.8l-5-4.3l-2.1-2.8l-0.7-5l1.4-5l3.6-3.6l2.8-2.1L467.9,684.8z"
	/>
<path d="M837.7,627.9l7.1,1.4l5,5.7l0.7,1.4v7.1l-2.8,4.3l-3.6,2.8l-1.4,0.7h-7.8l-5.7-5l-1.4-2.1l-0.7-5.7l1.4-4.3l3.6-3.6l2.8-2.1
	L837.7,627.9z"/>
<path d="M780.8,627.9l6.4,0.7l5.7,5.7l0.7,1.4v8.5l-5,5.7l-2.8,1.4h-7.1l-4.3-2.8l-3.6-5v-7.8l5-5.7L780.8,627.9z"/>
<path d="M183.5,599.5l6.4,0.7l5.7,5.7l0.7,1.4v8.5l-4.3,5l-3.6,2.1h-7.1l-4.3-2.8l-3.6-5l-0.7-5l2.1-5l5.7-5L183.5,599.5z"/>
<path d="M780.1,542.6l6.4,0.7l5.7,5l1.4,2.8v7.8l-5,5.7l-2.8,1.4h-7.1l-3.6-2.1l-4.3-5.7l-0.7-5l2.1-5l5.7-5L780.1,542.6z"/>
<path d="M153.6,542.6l7.1,0.7l5.7,5l1.4,2.1v8.5l-5,5.7L160,566h-7.1l-4.3-2.8l-3.6-5v-8.5l5.7-5.7L153.6,542.6z"/>
<path d="M1036.8,514.1l7.1,1.4l5,5.7l0.7,1.4v7.8l-4.3,5l-3.6,2.1h-7.1l-4.3-2.8l-3.6-4.3l-0.7-5.7l1.4-4.3l3.6-3.6l2.8-2.1
	L1036.8,514.1z"/>
<path d="M383.3,485.7l5.7,0.7l5.7,5.7l0.7,1.4v8.5l-5,5.7l-2.8,1.4h-7.1l-3.6-2.1l-4.3-5.7v-7.8l2.8-4.3l4.3-2.8L383.3,485.7z"/>
<path d="M695.5,457.2l6.4,0.7l5,5l1.4,2.1v8.5l-5,5.7l-2.8,1.4h-7.1l-4.3-2.8l-3.6-5v-8.5l2.8-3.6l4.3-2.8L695.5,457.2z"/>
<path d="M155,457.2l5.7,0.7l5.7,5l1.4,2.1v8.5l-4.3,5l-3.6,2.1h-7.1l-3.6-2.1l-4.3-5.7l-0.7-5l2.1-5l5.7-5L155,457.2z"/>
<path d="M779.4,371.9l7.1,0.7l5.7,5l1.4,2.8v7.1l-2.8,4.3l-3.6,2.8l-1.4,0.7h-7.1l-3.6-2.1l-4.3-5V379l6.4-6.4L779.4,371.9z"/>
<path d="M752.4,343.5l5.7,0.7l5.7,5l1.4,2.8v7.8l-4.3,5l-3.6,2.1h-7.1l-4.3-2.8l-3.6-4.3l-0.7-5.7l2.1-5l3.6-3.6L752.4,343.5z"/>
<path d="M353.4,286.6l6.4,0.7l5.7,5l1.4,2.1v8.5l-5,5.7l-2.8,1.4H352l-3.6-2.1l-4.3-5l-0.7-5.7l2.1-5l5.7-5L353.4,286.6z"/>
<path d="M667,258.1l7.1,1.4l5,5.7l0.7,1.4v7.8l-5,5.7l-2.8,1.4h-7.8l-5.7-5l-1.4-2.1l-0.7-5l1.4-5l3.6-3.6l2.8-2.1L667,258.1z"/>
<path d="M381.9,229.7l6.4,0.7l5.7,5l1.4,2.1v8.5l-4.3,5l-3.6,2.1h-7.1l-4.3-2.8l-3.6-5l-0.7-5.7l2.1-4.3l5.7-5L381.9,229.7z"/>
<path d="M1007.6,1111.5l7.1,0.7l5,5l1.4,2.1v7.8l-2.8,4.3l-3.6,2.8l-1.4,0.7h-7.1l-3.6-2.1l-4.3-5v-8.5l5-5.7L1007.6,1111.5z"/>
<path d="M695.5,1026.1l7.1,1.4l5,5.7l0.7,1.4v7.1l-2.8,4.3l-3.6,2.8l-1.4,0.7h-7.8l-5-4.3l-2.1-2.8l-0.7-5.7l2.1-5l3.6-3.6
	L695.5,1026.1z"/>
<path d="M440.2,912.4l5.7,0.7l5,5l1.4,2.1v8.5l-5,5.7l-2.1,1.4h-7.8l-3.6-2.1l-4.3-5.7v-7.8l5-5.7l2.1-1.4L440.2,912.4z"/>
<path d="M1121.4,912.4l6.4,0.7l5.7,5l1.4,2.8v7.1l-2.8,4.3l-3.6,2.8l-1.4,0.7h-7.1l-3.6-2.1l-4.3-5l-0.7-5.7l2.1-5l5.7-5
	L1121.4,912.4z"/>
<path d="M609.4,912.4l6.4,0.7l5.7,5l1.4,2.8v7.1l-2.8,4.3l-3.6,2.8l-1.4,0.7h-7.8l-5-4.3l-2.1-2.8l-0.7-5.7l2.1-5l5.7-5L609.4,912.4
	z"/>
<path d="M238.9,912.4l7.1,0.7l5.7,5l1.4,2.8v7.1l-2.8,4.3l-3.6,2.8l-1.4,0.7h-7.1l-3.6-2.1l-4.3-5l-0.7-5.7l2.1-5l5.7-5L238.9,912.4
	z"/>
<path d="M155,883.9l5.7,0.7l5.7,5l1.4,2.1v8.5l-4.3,5l-3.6,2.1h-7.1l-5-3.6l-2.8-4.3l-0.7-5.7l2.1-4.3l3.6-3.6L155,883.9z"/>
<path d="M1093.7,883.9l6.4,0.7l5,5l1.4,2.8v7.8l-5,5.7l-2.8,1.4h-7.1l-3.6-2.1l-4.3-5.7v-7.8l2.8-4.3l4.3-2.8L1093.7,883.9z"/>
<path d="M610.1,855.5l5.7,0.7l5.7,5l1.4,2.8v7.8l-4.3,5l-3.6,2.1H608l-4.3-2.8l-3.6-5l-0.7-5l2.1-5l3.6-3.6L610.1,855.5z"/>
<path d="M1149.9,855.5l6.4,0.7l5.7,5l1.4,2.8v7.1l-4.3,5.7l-3.6,2.1h-7.1l-4.3-2.8l-3.6-4.3l-0.7-6.4l2.1-4.3l5.7-5L1149.9,855.5z"
	/>
<path d="M1036.8,798.6l6.4,0.7l5,5l1.4,2.8v7.8l-4.3,5l-3.6,2.1h-7.1l-4.3-2.8l-3.6-5l-0.7-5l2.1-5l5.7-5L1036.8,798.6z"/>
<path d="M979.9,770.1l7.1,1.4l5,5.7l0.7,1.4v7.1l-2.8,4.3l-3.6,2.8l-1.4,0.7h-7.8l-5-4.3l-2.1-2.8l-0.7-5.7l2.1-5l3.6-3.6
	L979.9,770.1z"/>
<path d="M212.6,770.1l5.7,0.7l5,5l1.4,2.1v8.5l-5,5.7l-2.8,1.4h-7.1l-3.6-2.1l-4.3-5l-0.7-5l1.4-5l3.6-3.6l2.8-2.1L212.6,770.1z"/>
<path d="M439.5,711.1l7.1,1.4l5,5.7l0.7,1.4v7.8l-5,5.7l-2.8,1.4h-7.1l-3.6-2.1l-4.3-5l-0.7-5.7l2.1-5l3.6-3.6L439.5,711.1z"/>
<path d="M155,627.9l6.4,0.7l5,5l1.4,2.1v8.5l-5,5.7l-2.8,1.4h-7.1l-4.3-2.8l-3.6-5v-7.8l2.8-4.3l4.3-2.8L155,627.9z"/>
<path d="M411,542.6l5.7,0.7l5.7,5l1.4,2.8v7.8l-5,5.7L416,566h-7.1l-4.3-2.8l-3.6-4.3l-0.7-5l1.4-5l5-5L411,542.6z"/>
<path d="M1149.9,542.6l6.4,0.7l5.7,5l1.4,2.8v7.1l-4.3,5.7l-3.6,2.1h-7.1l-4.3-2.8l-3.6-4.3l-0.7-6.4l2.1-4.3l5.7-5L1149.9,542.6z"
	/>
<path d="M866.1,542.6l5.7,0.7l5.7,5l1.4,2.8v7.8l-4.3,5l-3.6,2.1H864l-4.3-2.8l-3.6-4.3v-9.2l2.8-3.6l4.3-2.8L866.1,542.6z"/>
<path d="M1093,514.1l6.4,0.7l5.7,5l1.4,2.1v7.8l-2.8,4.3l-3.6,2.8l-1.4,0.7h-7.1l-3.6-2.1l-4.3-5l-0.7-5.7l2.1-5l5.7-5L1093,514.1z"
	/>
<path d="M125.9,514.1l6.4,0.7l5.7,5l1.4,2.1v8.5l-4.3,5l-3.6,2.1h-7.1l-4.3-2.8l-3.6-5l-0.7-5l2.1-5l5.7-5L125.9,514.1z"/>
<path d="M1008.4,485.7l7.1,1.4l5,5.7l0.7,1.4v7.8l-5,5.7l-2.8,1.4h-7.1l-4.3-2.8l-3.6-4.3l-0.7-5l1.4-5l3.6-3.6l2.8-2.1
	L1008.4,485.7z"/>
<path d="M610.1,457.2l5.7,0.7l5.7,5l1.4,2.1v8.5l-5,5.7l-2.8,1.4H608l-4.3-2.8l-3.6-5v-7.8l2.8-4.3l4.3-2.8L610.1,457.2z"/>
<path d="M694.8,371.9l6.4,0.7l5.7,5l1.4,2.1v8.5l-5,5.7l-2.8,1.4h-7.1l-5.7-4.3l-2.1-3.6l-0.7-4.3l1.4-5l3.6-3.6l2.8-2.1
	L694.8,371.9z"/>
<path d="M637.9,286.6l6.4,0.7l5.7,5l1.4,2.8v7.1l-2.8,4.3l-3.6,2.8l-1.4,0.7h-7.1l-3.6-2.1l-4.3-5l-0.7-5.7l2.1-5l5.7-5L637.9,286.6
	z"/>
<path d="M354.1,258.1l6.4,0.7l5.7,5.7l0.7,1.4v8.5l-4.3,5l-3.6,2.1H352l-4.3-2.8l-3.6-5l-0.7-4.3l1.4-5l5-5L354.1,258.1z"/>
<path d="M923,229.7l7.1,1.4l5,5.7l0.7,1.4v7.8l-4.3,5l-3.6,2.1h-7.1l-4.3-2.8l-3.6-4.3l-0.7-5.7l1.4-4.3l3.6-3.6l2.8-2.1L923,229.7z
	"/>
<path d="M524.1,144.4l6.4,0.7l5.7,5l1.4,2.8v7.8l-4.3,5l-3.6,2.1h-7.1l-4.3-2.8l-3.6-4.3l-0.7-6.4l2.1-4.3l5.7-5L524.1,144.4z"/>
<path d="M1122.1,1139.9l5.7,0.7l5.7,5l1.4,2.1v8.5l-5,5.7l-2.8,1.4h-7.1l-4.3-2.8l-2.8-3.6l-0.7-1.4v-7.8l5-5.7L1122.1,1139.9z"/>
<path d="M467.9,1139.9l6.4,0.7l5.7,5.7l0.7,1.4v8.5l-5,5.7l-2.8,1.4h-7.1l-5.7-4.3l-2.1-3.6v-8.5l2.8-3.6l4.3-2.8L467.9,1139.9z"/>
<path d="M494.9,1139.9l7.1,0.7l5.7,5l1.4,2.8v7.1l-2.8,4.3l-3.6,2.8l-1.4,0.7h-7.1l-5.7-4.3l-2.1-2.8v-9.2l6.4-6.4L494.9,1139.9z"/>
<path d="M581.7,1111.5l7.1,1.4l5,5.7l0.7,1.4v7.1l-2.8,4.3l-3.6,2.8l-1.4,0.7h-7.8l-5-4.3l-2.1-3.6l-0.7-5l2.1-5l3.6-3.6
	L581.7,1111.5z"/>
<path d="M497.1,1026.1l5.7,0.7l5.7,5.7l0.7,1.4v8.5l-5,5.7l-2.8,1.4h-7.1l-3.6-2.1l-4.3-5v-8.5l5-5.7l2.1-1.4L497.1,1026.1z"/>
<path d="M379.7,998.4h8.5l5.7,5l1.4,2.1v8.5l-5,5.7l-2.8,1.4h-7.8l-5.7-5l-1.4-2.1v-9.2l5.7-5.7L379.7,998.4z"/>
<path d="M723.9,969.2l7.1,1.4l5.7,6.4v8.5l-5,5.7l-2.8,1.4h-7.1l-3.6-2.1l-3.6-4.3l-0.7-1.4v-8.5l5.7-5.7L723.9,969.2z"/>
<path d="M553.2,883.9l7.1,1.4l5,5.7l0.7,1.4v7.1l-2.8,4.3l-3.6,2.8l-1.4,0.7h-7.8l-5.7-5l-1.4-2.1V891l2.8-3.6l4.3-2.8L553.2,883.9z
	"/>
<path d="M439.5,855.5l7.1,1.4l5.7,6.4v8.5l-5,5.7l-2.8,1.4h-7.1l-3.6-2.1l-3.6-4.3l-0.7-1.4v-8.5l5.7-5.7L439.5,855.5z"/>
<path d="M553.2,827l7.1,1.4l5.7,6.4v8.5l-5,5.7l-2.8,1.4h-7.1l-3.6-2.1l-4.3-5.7l-0.7-4.3l1.4-5l3.6-3.6l2.8-2.1L553.2,827z"/>
<path d="M780.1,827l6.4,0.7l5.7,5l1.4,2.8v7.1l-2.8,4.3l-5,3.6h-7.1l-4.3-2.8l-3.6-4.3l-0.7-6.4l2.1-4.3l5.7-5L780.1,827z"/>
<path d="M524.8,798.6l7.1,1.4l5,5.7l0.7,1.4v7.1l-2.8,4.3l-3.6,2.8l-1.4,0.7H522l-5-4.3l-2.1-2.8l-0.7-5.7l2.1-5l5.7-5L524.8,798.6z
	"/>
<path d="M866.8,770.1l5.7,0.7l5,5l1.4,2.1v8.5l-5,5.7l-2.8,1.4H864l-3.6-2.1l-4.3-5.7V778l5-5.7l2.1-1.4L866.8,770.1z"/>
<path d="M496.4,770.1l7.1,1.4l5,5.7l0.7,1.4v7.1l-2.8,4.3l-3.6,2.8l-1.4,0.7h-7.8l-5.7-5l-1.4-2.1l-0.7-5l1.4-5l5-5L496.4,770.1z"/>
<path d="M467.9,741.7l7.1,1.4l5,5.7l0.7,1.4v7.8l-4.3,5l-3.6,2.1h-7.1l-4.3-2.8L458,758l-0.7-6.4l2.1-4.3l3.6-3.6L467.9,741.7z"/>
<path d="M325.7,741.7l7.1,1.4l5,5.7l0.7,1.4v7.8l-5,5.7l-2.8,1.4h-7.8l-5.7-5l-1.4-2.1v-9.2l5.7-5.7L325.7,741.7z"/>
<path d="M1008.4,711.1l7.1,1.4l5,5.7l0.7,1.4v7.1l-2.8,4.3l-3.6,2.8l-1.4,0.7h-7.1l-3.6-2.1l-4.3-5l-0.7-5l1.4-5l3.6-3.6l2.8-2.1
	L1008.4,711.1z"/>
<path d="M240.4,599.5l7.1,1.4l5.7,6.4v7.8l-2.8,4.3l-3.6,2.8l-1.4,0.7h-7.1l-3.6-2.1l-4.3-5l-0.7-5.7l2.1-5l3.6-3.6L240.4,599.5z"/>
<path d="M495.6,599.5l6.4,0.7l5.7,5l1.4,2.8v7.1l-2.8,4.3l-3.6,2.8l-1.4,0.7h-7.1l-3.6-2.1l-4.3-5.7l-0.7-5l2.1-5l5.7-5L495.6,599.5
	z"/>
<path d="M439.5,571l7.1,1.4l5,5.7l0.7,1.4v7.8l-4.3,5l-3.6,2.1h-7.1l-4.3-2.8l-3.6-4.3l-0.7-5l1.4-5l3.6-3.6l2.8-2.1L439.5,571z"/>
<path d="M125.9,542.6l6.4,0.7l5.7,5l1.4,2.1v8.5l-5,5.7l-2.8,1.4h-7.1l-4.3-2.8l-3.6-5v-7.8l5-5.7L125.9,542.6z"/>
<path d="M1093.7,485.7l6.4,0.7l5.7,5.7l0.7,1.4v8.5l-4.3,5l-3.6,2.1h-7.1l-4.3-2.8l-3.6-5v-7.8l5-5.7L1093.7,485.7z"/>
<path d="M126.6,485.7l6.4,0.7l5,5l1.4,2.1v8.5l-4.3,5l-3.6,2.1h-7.1l-4.3-2.8l-3.6-5v-7.8l5-5.7L126.6,485.7z"/>
<path d="M667,457.2l7.1,1.4l5.7,6.4v8.5l-5,5.7l-2.1,1.4h-7.8l-4.3-2.8l-3.6-5v-7.8l2.8-4.3l4.3-2.8L667,457.2z"/>
<path d="M1122.1,457.2l5.7,0.7l5.7,5l1.4,2.8v7.8l-4.3,5l-3.6,2.1h-7.1l-4.3-2.8l-3.6-5l-0.7-5l2.1-5l5.7-5L1122.1,457.2z"/>
<path d="M723.9,428.8l7.1,1.4l5,5.7l0.7,1.4v7.8l-4.3,5l-3.6,2.1h-7.1l-4.3-2.8l-3.6-5l-0.7-5l2.1-5l3.6-3.6L723.9,428.8z"/>
<path d="M553.2,428.8l7.1,1.4l5,5.7l0.7,1.4v7.1l-2.8,4.3l-3.6,2.8l-1.4,0.7h-7.1l-3.6-2.1l-4.3-5l-0.7-5l1.4-5l3.6-3.6l2.8-2.1
	L553.2,428.8z"/>
<path d="M837.7,428.8l6.4,0.7l5,5l1.4,2.8v7.8l-5,5.7l-2.8,1.4h-7.1l-4.3-2.8l-3.6-5v-7.8l5-5.7L837.7,428.8z"/>
<path d="M126.6,400.4l5.7,0.7l5.7,5l1.4,2.1v8.5l-5,5.7l-2.8,1.4h-7.1l-4.3-2.8l-3.6-5v-7.8l5-5.7L126.6,400.4z"/>
<path d="M610.1,343.5l5.7,0.7l5.7,5l1.4,2.8v7.8l-4.3,5l-3.6,2.1H608l-4.3-2.8l-3.6-5l-0.7-5l2.1-5l3.6-3.6L610.1,343.5z"/>
<path d="M553.2,315l7.1,1.4l5.7,6.4v8.5l-4.3,5l-4.3,2.1h-6.4l-4.3-2.8l-3.6-5l-0.7-5.7l2.1-4.3l3.6-3.6L553.2,315z"/>
<path d="M923,172.8l5.7,0.7l5.7,5l1.4,2.8v7.1l-2.8,4.3l-3.6,2.8l-1.4,0.7h-7.8l-5-4.3l-2.1-2.8l-0.7-5.7l2.1-5l3.6-3.6L923,172.8z"
	/>
<path d="M439.5,144.4l7.1,1.4l5,5.7l0.7,1.4v7.8l-4.3,5l-3.6,2.1h-7.1l-4.3-2.8l-3.6-5l-0.7-5l2.1-5l3.6-3.6L439.5,144.4z"/>
<path d="M951.5,1139.9l5.7,0.7l5.7,5l1.4,2.1v8.5l-5,5.7l-2.8,1.4h-7.1l-5.7-4.3l-2.1-3.6v-7.8l5-5.7L951.5,1139.9z"/>
<path d="M836.3,1111.5l7.1,0.7l5.7,5l1.4,2.8v7.1l-2.8,4.3l-5,3.6h-7.1l-5.7-4.3l-2.1-2.8l-0.7-5.7l1.4-4.3l5-5L836.3,1111.5z"/>
<path d="M1149.2,1054.6h5l4.3,2.1l4.3,5l0.7,1.4v7.1l-4.3,5.7l-3.6,2.1h-7.1l-4.3-2.8l-3.6-5l-0.7-5l2.1-5l5.7-5L1149.2,1054.6z"/>
<path d="M866.1,1054.6l5.7,0.7l5.7,5l1.4,2.8v7.8l-4.3,5l-3.6,2.1H864l-4.3-2.8l-3.6-5l-0.7-5l2.1-5l5.7-5L866.1,1054.6z"/>
<path d="M439.5,997.7l7.1,1.4l5,5.7l0.7,1.4v7.8l-5,5.7l-2.8,1.4h-7.8l-5-4.3l-2.1-2.8l-0.7-5l1.4-5l5-5L439.5,997.7z"/>
<path d="M411,969.2l7.1,1.4l5,5.7l0.7,1.4v7.8l-5,5.7l-2.8,1.4h-7.8l-5-4.3l-2.1-2.8l-0.7-5l1.4-5l5-5L411,969.2z"/>
<path d="M354.1,940.8l7.1,1.4l5.7,6.4v8.5l-5,5.7l-2.8,1.4H352l-3.6-2.1l-4.3-5v-8.5l5-5.7L354.1,940.8z"/>
<path d="M694.8,912.4l6.4,0.7l5.7,5l1.4,2.1v8.5l-5,5.7l-2.8,1.4h-7.1l-3.6-2.1l-4.3-5.7v-7.8l5-5.7L694.8,912.4z"/>
<path d="M354.1,855.5l7.1,1.4l5,5.7l0.7,1.4v7.1l-2.8,4.3l-3.6,2.8l-1.4,0.7h-7.8l-5.7-5l-1.4-2.8v-8.5l2.8-3.6l4.3-2.8L354.1,855.5
	z"/>
<path d="M183.5,741.7l7.1,1.4l5,5l0.7,1.4v8.5l-5,5.7l-2.8,1.4h-7.1l-3.6-2.1l-4.3-5.7v-7.8l2.8-4.3l4.3-2.8L183.5,741.7z"/>
<path d="M382.6,711.1l7.1,1.4l5.7,6.4v7.8l-2.8,4.3l-3.6,2.8l-1.4,0.7h-7.1l-3.6-2.1l-4.3-5l-0.7-5l1.4-5l5-5L382.6,711.1z"/>
<path d="M808.5,656.4l6.4,0.7l5.7,5l1.4,2.8v7.8l-5,5.7l-2.8,1.4h-7.1l-3.6-2.1l-4.3-5v-8.5l5-5.7L808.5,656.4z"/>
<path d="M894.6,599.5l7.1,1.4l5,5.7l0.7,1.4v7.8l-5,5.7l-2.8,1.4h-7.1l-3.6-2.1l-4.3-5l-0.7-5l1.4-5l3.6-3.6l2.8-2.1L894.6,599.5z"
	/>
<path d="M780.8,514.1l5.7,0.7l5.7,5l1.4,2.8v7.8l-5,5.7l-2.8,1.4h-7.1l-3.6-2.1l-4.3-5.7l-0.7-5l2.1-5l5.7-5L780.8,514.1z"/>
<path d="M809.2,485.7l7.1,1.4l5,5.7l0.7,1.4v7.8l-5,5.7l-2.8,1.4h-7.8l-5-4.3l-2.1-2.8v-8.5l5-5.7L809.2,485.7z"/>
<path d="M325.7,485.7l7.1,1.4l5,5.7l0.7,1.4v7.8l-4.3,5l-3.6,2.1h-7.1l-4.3-2.8l-3.6-5l-0.7-5l2.1-5l3.6-3.6L325.7,485.7z"/>
<path d="M722.5,457.2l7.1,0.7l5.7,5l1.4,2.8v7.1l-2.8,4.3l-3.6,2.8l-1.4,0.7h-7.1l-4.3-2.8l-2.8-3.6l-0.7-1.4v-7.8l5-5.7
	L722.5,457.2z"/>
<path d="M1149.9,400.4l6.4,0.7l5.7,5l1.4,2.8v7.1l-4.3,5.7l-3.6,2.1h-7.1l-3.6-2.1l-4.3-5l-0.7-5l1.4-5l5-5L1149.9,400.4z"/>
<path d="M951.5,343.5l7.1,1.4l5,5.7l0.7,1.4v7.8l-4.3,5l-3.6,2.1h-7.1l-5.7-4.3l-2.1-2.8l-0.7-5l1.4-5l3.6-3.6l2.8-2.1L951.5,343.5z
	"/>
<path d="M752.4,286.6l7.1,1.4l5,5.7l0.7,1.4v7.1l-2.8,4.3l-3.6,2.8l-1.4,0.7h-7.8l-5-4.3l-2.1-2.8l-0.7-5.7l2.1-5l5.7-5L752.4,286.6
	z"/>
<path d="M667,201.2l7.1,1.4l5,5.7l0.7,1.4v7.1l-2.8,4.3l-3.6,2.8l-1.4,0.7h-7.8l-5.7-5l-1.4-2.1v-9.2l5.7-5.7L667,201.2z"/>
<path d="M894.6,144.4l7.1,1.4l5,5.7l0.7,1.4v7.8l-5,5.7l-2.8,1.4h-7.8l-5.7-5l-1.4-2.1v-8.5l5-5.7L894.6,144.4z"/>
<path d="M496.4,115.9l5.7,0.7l5.7,5l1.4,2.8v7.8l-5,5.7l-2.8,1.4h-7.1l-3.6-2.1l-4.3-5.7v-7.8l5-5.7L496.4,115.9z"/>
<path d="M723.9,1111.5l7.1,1.4l5.7,6.4v8.5l-4.3,5l-3.6,2.1h-7.1l-4.3-2.8l-3.6-5l-0.7-4.3l1.4-5l3.6-3.6l2.8-2.1L723.9,1111.5z"/>
<path d="M1149.9,1083l6.4,0.7l5.7,5l1.4,2.8v7.1l-2.8,4.3l-5,3.6h-7.1l-4.3-2.8l-3.6-5l-0.7-5l2.1-5l5.7-5L1149.9,1083z"/>
<path d="M351.3,998.4h9.2l5,5l1.4,2.1v8.5l-5,5.7l-2.8,1.4H352l-3.6-2.1l-4.3-5v-8.5l5-5.7L351.3,998.4z"/>
<path d="M1150.6,940.8l7.1,1.4l5,5.7l0.7,1.4v7.1l-4.3,5.7l-3.6,2.1h-7.1l-4.3-2.8l-3.6-5l-0.7-5.7l2.1-4.3l3.6-3.6L1150.6,940.8z"
	/>
<path d="M382.6,940.8l7.1,1.4l5,5.7l0.7,1.4v7.1l-2.8,4.3l-3.6,2.8l-1.4,0.7h-7.8l-5.7-5l-1.4-2.8v-8.5l5.7-5.7L382.6,940.8z"/>
<path d="M667,855.5l7.1,1.4l5,5.7l0.7,1.4v7.8l-5,5.7l-2.8,1.4h-7.8l-5.7-5l-1.4-2.8v-7.8l5-5.7L667,855.5z"/>
<path d="M638.6,855.5l5.7,0.7l5.7,5l1.4,2.8v7.8l-4.3,5l-3.6,2.1h-7.1l-4.3-2.8l-3.6-5v-7.8l2.8-4.3l4.3-2.8L638.6,855.5z"/>
<path d="M695.5,827l7.1,1.4l5,5.7l0.7,1.4v7.1l-2.8,4.3l-3.6,2.8l-1.4,0.7h-7.8l-5-4.3l-2.1-2.8v-8.5l5-5.7L695.5,827z"/>
<path d="M240.4,827l7.1,1.4l5,5.7l0.7,1.4v7.8l-4.3,5l-3.6,2.1h-7.1l-4.3-2.8l-3.6-4.3l-0.7-5.7l2.1-5l5.7-5L240.4,827z"/>
<path d="M1150.6,798.6l5.7,0.7l5.7,5l1.4,2.8v7.1l-4.3,5.7l-3.6,2.1h-7.1l-4.3-2.8l-3.6-5l-0.7-5.7l2.1-4.3l5.7-5L1150.6,798.6z"/>
<path d="M753.1,798.6l6.4,1.4l5,5.7l0.7,1.4v7.8l-5,5.7l-2.8,1.4h-7.1l-3.6-2.1l-4.3-5.7v-7.8l5-5.7l2.1-1.4L753.1,798.6z"/>
<path d="M1065.2,711.1l7.1,1.4l5,5.7l0.7,1.4v7.1l-2.8,4.3l-3.6,2.8l-1.4,0.7h-7.1l-3.6-2.1l-4.3-5.7l-0.7-5l2.1-5l3.6-3.6
	L1065.2,711.1z"/>
<path d="M838.4,684.8l6.4,1.4l5.7,6.4v8.5l-5,5.7l-2.8,1.4h-7.1l-3.6-2.1l-4.3-5.7v-7.8l2.8-4.3l4.3-2.8L838.4,684.8z"/>
<path d="M1150.6,457.2l5.7,0.7l5.7,5l1.4,2.8v7.1l-4.3,5.7l-3.6,2.1h-7.1l-4.3-2.8l-3.6-4.3l-0.7-5l1.4-5l5-5L1150.6,457.2z"/>
<path d="M894.6,457.2l7.1,1.4l5,5.7l0.7,1.4v7.1l-2.8,4.3L901,480l-1.4,0.7h-7.1l-3.6-2.1l-3.6-4.3l-0.7-1.4v-8.5l2.8-3.6l4.3-2.8
	L894.6,457.2z"/>
<path d="M581.7,457.2l7.1,1.4l5,5.7l0.7,1.4v7.8l-5,5.7l-2.8,1.4h-7.1l-4.3-2.8l-3.6-5l-0.7-4.3l1.4-5l3.6-3.6l2.8-2.1L581.7,457.2z
	"/>
<path d="M297.2,457.2l7.1,1.4l5,5.7l0.7,1.4v7.1l-2.8,4.3l-3.6,2.8l-1.4,0.7h-7.8l-5-4.3l-2.1-2.8l-0.7-5.7l2.1-5l5.7-5L297.2,457.2
	z"/>
<path d="M638.6,428.8l7.1,1.4l5,5.7l0.7,1.4v7.8l-4.3,5l-3.6,2.1h-7.1l-4.3-2.8l-3.6-5l-0.7-5.7l2.1-4.3l5.7-5L638.6,428.8z"/>
<path d="M1005.5,401.1h8.5l5.7,5l1.4,2.1v8.5l-5,5.7l-2.8,1.4h-7.8l-5-4.3l-2.1-2.8l-0.7-5l1.4-5L1005.5,401.1z"/>
<path d="M240.4,400.4l7.1,1.4l5,5.7l0.7,1.4v7.8l-4.3,5l-3.6,2.1h-7.1L234,421l-3.6-4.3l-0.7-5.7l2.1-5l5.7-5L240.4,400.4z"/>
<path d="M1036.8,371.9l7.1,1.4l5,5.7l0.7,1.4v7.1l-2.8,4.3l-3.6,2.8l-1.4,0.7h-7.8l-5-4.3l-2.1-2.8l-0.7-5l1.4-5l5-5L1036.8,371.9z"
	/>
<path d="M581.7,201.2l5.7,0.7l5.7,5l1.4,2.1v8.5l-5,5.7l-2.8,1.4h-7.1l-3.6-2.1l-4.3-5.7v-7.8l5-5.7L581.7,201.2z"/>
<path d="M837.7,144.4l7.1,1.4l5,5.7l0.7,1.4v7.8l-5,5.7l-2.8,1.4h-7.1l-3.6-2.1l-4.3-5.7v-7.8l5-5.7L837.7,144.4z"/>
<path d="M638.6,144.4l7.1,1.4l5,5.7l0.7,1.4v7.8l-4.3,5l-3.6,2.1h-7.1l-5.7-4.3l-2.1-2.8l-0.7-6.4l2.1-4.3l5.7-5L638.6,144.4z"/>
<path d="M467.9,144.4l5.7,0.7l5.7,5l1.4,2.8v7.8l-4.3,5l-3.6,2.1h-7.1l-4.3-2.8l-3.6-4.3l-0.7-5l1.4-5l5-5L467.9,144.4z"/>
<path d="M723.9,115.9l5.7,0.7l5.7,5l1.4,2.8v7.8l-5,5.7l-2.8,1.4h-7.1l-4.3-2.8l-3.6-5v-7.8l5-5.7L723.9,115.9z"/>
<path d="M581.7,115.9l5.7,0.7l5.7,5l1.4,2.8v7.8l-5,5.7l-2.8,1.4h-7.1l-4.3-2.8l-3.6-5v-7.8l5-5.7L581.7,115.9z"/>
<path d="M553.2,115.9l5.7,0.7l5.7,5l1.4,2.8v7.8l-5,5.7l-2.8,1.4h-7.1l-3.6-2.1l-4.3-5.7v-7.8l5-5.7L553.2,115.9z"/>
<path d="M524.8,115.9l5.7,0.7l5.7,5l1.4,2.8v7.8l-4.3,5l-3.6,2.1h-7.1l-4.3-2.8l-3.6-5l-0.7-4.3l1.4-5l5-5L524.8,115.9z"/>
<path d="M1065.2,1139.9l7.1,1.4l5.7,6.4v8.5l-5,5.7l-2.8,1.4h-7.1l-4.3-2.8l-3.6-5v-7.8l5-5.7L1065.2,1139.9z"/>
<path d="M439.5,1139.9l7.1,1.4l5.7,6.4v8.5l-5,5.7l-2.8,1.4h-7.1l-4.3-2.8l-3.6-5v-7.8l5-5.7L439.5,1139.9z"/>
<path d="M837,1139.9l6.4,0.7l5.7,5l1.4,2.8v7.1l-4.3,5.7l-3.6,2.1h-7.1l-4.3-2.8l-3.6-5l-0.7-5l2.1-5l5.7-5L837,1139.9z"/>
<path d="M695.5,1111.5l7.1,1.4l5,5.7l0.7,1.4v7.8l-5,5.7l-2.8,1.4h-7.1l-4.3-2.8l-3.6-5v-7.8l5-5.7L695.5,1111.5z"/>
<path d="M667,1111.5l7.1,1.4l5.7,6.4v8.5l-5,5.7l-2.8,1.4h-7.1l-4.3-2.8l-3.6-5v-7.8l5-5.7L667,1111.5z"/>
<path d="M153.6,912.4l7.1,0.7l5.7,5l1.4,2.8v7.1l-2.8,4.3l-3.6,2.8l-1.4,0.7h-7.1l-5.7-4.3l-2.1-3.6v-7.8l5-5.7L153.6,912.4z"/>
<path d="M180.6,799.3h8.5l5.7,5l1.4,2.1v8.5l-5,5.7l-2.8,1.4h-7.8l-5-4.3l-2.1-2.8v-8.5l5-5.7L180.6,799.3z"/>
<path d="M237.5,770.8h8.5l5.7,5l1.4,2.1v8.5l-5,5.7l-2.8,1.4h-7.1l-4.3-2.8l-3.6-4.3v-9.2l5.7-5.7L237.5,770.8z"/>
<path d="M155,711.1l7.1,1.4l5,5.7l0.7,1.4v7.8l-5,5.7l-2.8,1.4h-7.8l-5-4.3l-2.1-3.6v-7.8l5-5.7L155,711.1z"/>
<path d="M240.4,656.4l7.1,1.4l5,5.7l0.7,1.4v7.8l-5,5.7l-2.8,1.4h-7.8l-5-4.3l-2.1-2.8v-8.5l5-5.7L240.4,656.4z"/>
<path d="M894.6,542.6l7.1,1.4l5,5.7l0.7,1.4v7.1l-2.8,4.3l-3.6,2.8l-1.4,0.7h-7.8l-5.7-5l-1.4-2.8v-7.8l5-5.7L894.6,542.6z"/>
<path d="M1119.3,401.1h9.2l5.7,5.7l0.7,1.4v8.5l-5,5.7l-2.8,1.4h-7.1l-3.6-2.1l-4.3-5.7v-7.8l5-5.7L1119.3,401.1z"/>
<path d="M183.5,400.4l7.1,1.4l5,5.7l0.7,1.4v7.8l-5,5.7l-2.8,1.4h-7.1l-4.3-2.8l-3.6-5l-0.7-4.3l1.4-5l5-5L183.5,400.4z"/>
<path d="M866.1,343.5l7.1,1.4l5,5.7l0.7,1.4v7.8l-5,5.7l-2.8,1.4H864l-3.6-2.1l-4.3-5v-8.5l5-5.7L866.1,343.5z"/>
<path d="M752.4,201.2l7.1,1.4l5,5.7l0.7,1.4v7.8l-5,5.7l-2.8,1.4h-7.1l-3.6-2.1l-4.3-5.7v-7.8l5-5.7L752.4,201.2z"/>
<path d="M382.6,201.2l5.7,0.7l5.7,5l1.4,2.8v7.8l-4.3,5l-3.6,2.1h-7.1l-5.7-4.3l-2.1-3.6l-0.7-5l2.1-5l5.7-5L382.6,201.2z"/>
<path d="M866.1,144.4l7.1,1.4l5,5.7l0.7,1.4v7.8l-4.3,5l-3.6,2.1H864l-4.3-2.8l-3.6-5l-0.7-4.3l1.4-5l5-5L866.1,144.4z"/>
<path d="M610.1,115.9l5.7,0.7l5.7,5l1.4,2.8v7.1l-2.8,4.3l-3.6,2.8l-1.4,0.7H608l-4.3-2.8l-3.6-4.3v-8.5l5-5.7L610.1,115.9z"/>
<path d="M1093.7,1139.9l7.1,1.4l5,5.7l0.7,1.4v7.8l-5,5.7l-2.8,1.4h-7.1l-4.3-2.8l-3.6-5v-7.8l5-5.7L1093.7,1139.9z"/>
<path d="M723.2,1139.9l6.4,0.7l5.7,5l1.4,2.8v7.1l-2.8,4.3l-5,3.6h-7.1l-4.3-2.8l-3.6-5l-0.7-4.3l1.4-5l5-5L723.2,1139.9z"/>
<path d="M1065.2,798.6l7.1,1.4l5,5.7l0.7,1.4v7.1l-2.8,4.3l-3.6,2.8l-1.4,0.7h-7.1l-3.6-2.1l-4.3-5.7v-8.5l5.7-5.7L1065.2,798.6z"/>
<path d="M1150.6,711.1l5.7,0.7l5.7,5l1.4,2.8v7.1l-4.3,5.7l-3.6,2.1h-7.1l-4.3-2.8l-3.6-4.3l-0.7-5l1.4-5l3.6-3.6l2.8-2.1
	L1150.6,711.1z"/>
<path d="M467.9,627.9l7.1,1.4l5,5.7l0.7,1.4v7.1l-2.8,4.3l-3.6,2.8l-1.4,0.7h-7.1l-4.3-2.8l-2.8-3.6l-0.7-1.4V635l5.7-5.7
	L467.9,627.9z"/>
<path d="M127.3,627.9l6.4,1.4l5,5.7l0.7,1.4v7.8l-5,5.7l-2.8,1.4h-7.1l-4.3-2.8l-3.6-5v-7.8l5-5.7l2.1-1.4L127.3,627.9z"/>
<path d="M1065.2,428.8l7.1,1.4l5,5.7l0.7,1.4v7.1l-2.8,4.3l-3.6,2.8l-1.4,0.7h-7.1l-3.6-2.1l-4.3-5.7v-7.8l5-5.7L1065.2,428.8z"/>
<path d="M752.4,428.8l7.1,1.4l5,5.7l0.7,1.4v7.1l-2.8,4.3l-3.6,2.8l-1.4,0.7h-7.1l-3.6-2.1l-4.3-5.7v-8.5l5.7-5.7L752.4,428.8z"/>
<path d="M126.6,371.9l7.1,1.4l5,5.7l0.7,1.4v7.8l-4.3,5l-3.6,2.1h-7.1l-4.3-2.8l-2.8-3.6l-1.4-5.7l1.4-5l5-5L126.6,371.9z"/>
<path d="M667,343.5l7.1,1.4l5,5.7l0.7,1.4v7.8l-5,5.7l-2.8,1.4h-7.1l-4.3-2.8l-3.6-5l-0.7-4.3l1.4-5l5-5L667,343.5z"/>
<path d="M721.1,258.8h8.5l5.7,5l1.4,2.8v7.8l-5,5.7l-2.8,1.4h-7.8l-5-4.3l-2.1-2.8V266l5-5.7L721.1,258.8z"/>
<path d="M778,230.4h9.2l5,5l1.4,2.1v8.5l-5,5.7l-2.8,1.4h-7.1l-3.6-2.1l-4.3-5.7v-7.8l5-5.7L778,230.4z"/>
<path d="M695.5,144.4l7.1,1.4l5,5.7l0.7,1.4v7.1l-2.8,4.3l-3.6,2.8l-1.4,0.7h-7.1l-3.6-2.1l-4.3-5.7v-7.8l5-5.7L695.5,144.4z"/>
<path d="M923,115.9l5.7,0.7l5.7,5l1.4,2.8v7.1l-2.8,4.3l-3.6,2.8l-1.4,0.7h-7.1l-3.6-2.1l-4.3-5v-8.5l5-5.7L923,115.9z"/>
<path d="M695.5,115.9l5.7,0.7l5.7,5l1.4,2.8v7.8l-4.3,5l-3.6,2.1h-7.1l-4.3-2.8l-3.6-5v-7.8l5-5.7L695.5,115.9z"/>
<path d="M553.2,1139.9l7.1,1.4l5,5.7l0.7,1.4v7.1l-2.8,4.3l-5,3.6h-7.1l-4.3-2.8l-3.6-5l-0.7-4.3l1.4-5l3.6-3.6l2.8-2.1
	L553.2,1139.9z"/>
<path d="M351.3,1140.6h8.5l5.7,5l1.4,2.1v8.5l-4.3,5l-3.6,2.1H352l-4.3-2.8l-3.6-5v-7.8l5-5.7L351.3,1140.6z"/>
<path d="M780.1,1139.9l6.4,0.7l5.7,5l1.4,2.8v7.1l-2.8,4.3l-5,3.6h-7.1l-4.3-2.8l-3.6-5v-7.8l5-5.7L780.1,1139.9z"/>
<path d="M408.2,1112.2h8.5l5.7,5l1.4,2.8v7.1l-2.8,4.3l-3.6,2.8l-1.4,0.7h-7.8l-5-4.3l-2.1-2.8v-8.5l5-5.7L408.2,1112.2z"/>
<path d="M581.7,827l7.1,1.4l5,5.7l0.7,1.4v7.1l-2.8,4.3l-3.6,2.8l-1.4,0.7h-7.1l-4.3-2.8l-2.8-3.6l-0.7-1.4v-7.8l5-5.7L581.7,827z"
	/>
<path d="M152.2,827.7h8.5l5.7,5l1.4,2.8v7.8l-5,5.7l-2.8,1.4h-7.8l-5-4.3l-2.1-2.8v-8.5l5-5.7L152.2,827.7z"/>
<path d="M1122.1,770.1l7.1,1.4l5,5.7l0.7,1.4v7.1l-2.8,4.3l-3.6,2.8l-1.4,0.7h-7.1l-3.6-2.1l-4.3-5.7V778l5-5.7L1122.1,770.1z"/>
<path d="M809.2,741.7l7.1,1.4l5,5.7l0.7,1.4v7.1l-2.8,4.3l-5,3.6h-7.1l-3.6-2.1l-4.3-5.7v-7.8l5-5.7L809.2,741.7z"/>
<path d="M866.1,684.8l7.1,1.4l5,5.7l0.7,1.4v7.1l-2.8,4.3l-3.6,2.8l-1.4,0.7H864l-4.3-2.8l-2.8-3.6l-0.7-1.4v-7.8l5-5.7L866.1,684.8
	z"/>
<path d="M1065.2,400.4l7.1,1.4l5,5.7l0.7,1.4v7.8l-4.3,5l-3.6,2.1h-7.1l-4.3-2.8l-3.6-5l-0.7-4.3l1.4-5l5-5L1065.2,400.4z"/>
<path d="M780.8,343.5l7.1,1.4l5,5.7l0.7,1.4v7.8l-4.3,5l-3.6,2.1h-7.1l-5.7-4.3l-2.1-2.8v-9.2l5.7-5.7L780.8,343.5z"/>
<path d="M297.2,343.5l7.1,1.4l5,5.7l0.7,1.4v7.1l-2.8,4.3l-3.6,2.8l-1.4,0.7h-7.1l-5.7-4.3l-2.1-2.8v-8.5l5-5.7L297.2,343.5z"/>
<path d="M266,344.2h8.5l5.7,5l1.4,2.1v8.5l-5,5.7l-2.8,1.4h-7.1l-3.6-2.1l-4.3-5.7v-7.8l5-5.7L266,344.2z"/>
<path d="M721.1,315.7h8.5l5.7,5l1.4,2.8v7.8l-5,5.7l-2.8,1.4h-7.1l-3.6-2.1l-4.3-5v-8.5l5-5.7L721.1,315.7z"/>
<path d="M806.4,287.3h8.5l5.7,5l1.4,2.8v7.8l-5,5.7l-2.8,1.4h-7.1l-3.6-2.1l-4.3-5v-8.5l5-5.7L806.4,287.3z"/>
<path d="M692.6,287.3h8.5l5.7,5l1.4,2.8v7.1l-2.8,4.3l-3.6,2.8l-1.4,0.7h-7.1l-3.6-2.1l-4.3-5v-8.5l2.8-4.3L692.6,287.3z"/>
<path d="M809.2,229.7l7.1,1.4l5,5.7l0.7,1.4v7.1l-2.8,4.3l-3.6,2.8l-1.4,0.7h-7.1l-4.3-2.8l-2.8-3.6l-0.7-1.4v-7.8l5-5.7
	L809.2,229.7z"/>
<path d="M837.7,115.9l7.1,1.4l5,5.7l0.7,1.4v7.8l-4.3,5l-3.6,2.1h-7.1l-3.6-2.1l-4.3-5.7v-7.8l5-5.7L837.7,115.9z"/>
<path d="M752.4,115.9l5.7,0.7l5.7,5l1.4,2.8v7.1l-2.8,4.3l-3.6,2.8l-1.4,0.7h-7.1l-4.3-2.8l-2.8-3.6l-0.7-1.4v-7.8l5-5.7
	L752.4,115.9z"/>
<path d="M1150.6,1139.9l5.7,0.7l5.7,5l1.4,2.8v7.1l-2.8,4.3l-3.6,2.8l-1.4,0.7h-7.1l-4.3-2.8l-3.6-4.3v-8.5l5-5.7L1150.6,1139.9z"/>
<path d="M979.9,1139.9l7.1,1.4l5,5.7l0.7,1.4v7.1l-2.8,4.3l-3.6,2.8l-1.4,0.7h-7.1l-5.7-4.3l-2.1-3.6v-7.8l5-5.7L979.9,1139.9z"/>
<path d="M408.2,1026.8h8.5l5.7,5l1.4,2.8v7.1l-2.8,4.3l-3.6,2.8l-1.4,0.7h-7.1l-3.6-2.1l-4.3-5v-8.5l5-5.7L408.2,1026.8z"/>
<path d="M979.9,969.2l7.1,1.4l5,5.7l0.7,1.4v7.1l-2.8,4.3l-3.6,2.8l-1.4,0.7h-7.1l-3.6-2.1l-4.3-5.7v-7.8l5-5.7L979.9,969.2z"/>
<path d="M123.7,913.1h8.5l5.7,5l1.4,2.1v8.5l-5,5.7l-2.8,1.4h-7.1l-4.3-2.8l-3.6-5v-7.8l5-5.7L123.7,913.1z"/>
<path d="M294.4,401.1h8.5l5.7,5l1.4,2.8v7.1l-2.8,4.3l-3.6,2.8l-1.4,0.7h-7.1l-3.6-2.1l-4.3-5v-8.5l5-5.7L294.4,401.1z"/>
<path d="M155,371.9l7.1,1.4l5,5.7l0.7,1.4v7.8l-4.3,5l-3.6,2.1h-7.1l-4.3-2.8l-3.6-5v-7.8l5-5.7L155,371.9z"/>
<path d="M1005.5,344.2h8.5l5.7,5l1.4,2.8v7.1l-2.8,4.3l-3.6,2.8l-1.4,0.7h-7.1l-3.6-2.1l-4.3-5v-8.5l5-5.7L1005.5,344.2z"/>
<path d="M834.8,315.7h8.5l5.7,5l1.4,2.8v7.1l-2.8,4.3l-3.6,2.8l-1.4,0.7h-7.1l-3.6-2.1l-4.3-5v-8.5l5-5.7L834.8,315.7z"/>
<path d="M920.2,1140.6h9.2l5,5l1.4,2.1v8.5l-4.3,5l-3.6,2.1h-7.1l-4.3-2.8l-3.6-5v-7.8l5-5.7L920.2,1140.6z"/>
<path d="M379.7,1083.7h8.5l5.7,5l1.4,2.8v7.1l-2.8,4.3l-3.6,2.8l-1.4,0.7h-7.1l-4.3-2.8l-3.6-4.3v-8.5l5-5.7L379.7,1083.7z"/>
<path d="M354.8,912.4l6.4,1.4l5,5.7l0.7,1.4v7.8l-4.3,5l-3.6,2.1H352l-4.3-2.8l-3.6-4.3v-8.5l5-5.7l2.1-1.4L354.8,912.4z"/>
<path d="M294.4,799.3h8.5l5.7,5l1.4,2.8v7.1l-2.8,4.3l-3.6,2.8l-1.4,0.7h-7.1l-3.6-2.1l-4.3-5v-8.5l5-5.7L294.4,799.3z"/>
<path d="M496.4,571l7.1,1.4l5,5.7l0.7,1.4v7.1l-2.8,4.3l-5,3.6h-7.1l-4.3-2.8l-3.6-5l-0.7-4.3l1.4-5l6.4-5.7L496.4,571z"/>
<path d="M610.1,1139.9l5.7,0.7l5.7,5l1.4,2.8v7.1l-2.8,4.3l-5,3.6H608l-4.3-2.8l-3.6-5v-7.8l5-5.7L610.1,1139.9z"/>
<path d="M379.7,1140.6h8.5l5.7,5l1.4,2.8v7.1l-2.8,4.3l-5,3.6h-7.1l-5.7-4.3l-2.1-2.8v-8.5l5-5.7L379.7,1140.6z"/>
<path d="M920.2,1083.7h8.5l5.7,5l1.4,2.8v7.1l-2.8,4.3l-3.6,2.8l-1.4,0.7h-7.1l-3.6-2.1l-4.3-5.7v-7.8l5-5.7L920.2,1083.7z"/>
<path d="M351.3,1055.3h8.5l5.7,5l1.4,2.8v7.8l-4.3,5l-3.6,2.1H352l-4.3-2.8l-3.6-4.3v-8.5l5-5.7L351.3,1055.3z"/>
<path d="M294.4,913.1h8.5l5.7,5l1.4,2.8v7.1l-2.8,4.3l-3.6,2.8l-1.4,0.7h-7.1l-3.6-2.1l-4.3-5.7v-7.8l5-5.7L294.4,913.1z"/>
<path d="M780.8,798.6l7.1,1.4l5,5.7l0.7,1.4v7.1l-4.3,5.7l-3.6,2.1h-7.1l-4.3-2.8l-3.6-5v-7.8l5-5.7L780.8,798.6z"/>
<path d="M1150.6,371.9l5.7,0.7l5.7,5l1.4,2.8v7.1l-4.3,5.7l-3.6,2.1h-7.1l-4.3-2.8l-3.6-5v-7.8l5-5.7L1150.6,371.9z"/>
<path d="M209.1,344.2h8.5l5.7,5l1.4,2.8v7.1l-2.8,4.3l-5,3.6h-7.1l-4.3-2.8l-3.6-4.3v-8.5l5-5.7L209.1,344.2z"/>
<path d="M382.6,172.8l7.1,1.4l5,5.7l0.7,1.4v7.1l-2.8,4.3l-5,3.6h-7.1l-4.3-2.8l-3.6-5v-7.8l5-5.7L382.6,172.8z"/>
<path d="M696.2,798.6l6.4,1.4l5,5.7l0.7,1.4v7.1l-2.8,4.3l-5,3.6h-7.1l-4.3-2.8l-3.6-5v-7.8l5-5.7l2.1-1.4L696.2,798.6z"/>
<path d="M496.4,684.8l5.7,0.7l5.7,5l1.4,2.8v7.1l-2.8,4.3l-3.6,2.8l-1.4,0.7h-7.1l-4.3-2.8l-3.6-5v-7.8l5-5.7L496.4,684.8z"/>
<path d="M123.7,685.5h8.5l5.7,5l1.4,2.8v7.1l-2.8,4.3l-3.6,2.8l-1.4,0.7h-7.1l-4.3-2.8l-3.6-5v-7.8l5-5.7L123.7,685.5z"/>
<path d="M411.7,115.9l5,0.7l5.7,5l1.4,2.8v7.1l-2.8,4.3l-5,3.6h-7.1l-4.3-2.8l-3.6-5v-7.8l5-5.7l2.1-1.4L411.7,115.9z"/>
<path d="M124.4,856.2h7.8l5.7,5l1.4,2.8v7.1l-2.8,4.3l-3.6,2.8l-1.4,0.7h-7.1l-4.3-2.8l-3.6-5v-7.8l5-5.7L124.4,856.2z"/>
<path d="M124.4,742.4h7.8l5.7,5l1.4,2.8v7.1l-2.8,4.3l-5,3.6h-7.1l-4.3-2.8l-3.6-5v-7.8l5-5.7L124.4,742.4z"/>
<path d="M806.4,711.1h8.5l5.7,5l1.4,2.8v7.1l-2.8,4.3l-5,3.6h-7.1l-4.3-2.8l-3.6-5v-7.8l5-5.7L806.4,711.1z"/>
<path d="M493.5,514.8h8.5l5.7,5l1.4,2.8v7.1l-4.3,5.7l-3.6,2.1h-7.1l-3.6-2.1l-4.3-5.7V522l5-5.7L493.5,514.8z"/>
<path d="M123.7,344.2h8.5l5.7,5l1.4,2.8v7.1l-2.8,4.3l-5,3.6h-7.1l-4.3-2.8l-3.6-5v-7.8l5-5.7L123.7,344.2z"/>
<path d="M749.5,173.5h8.5l5.7,5l1.4,2.8v7.1l-4.3,5.7l-3.6,2.1h-7.1l-4.3-2.8l-3.6-5v-7.8l5-5.7L749.5,173.5z"/>
<g>
	<polygon class="st1" points="595.5,566.6 590.4,569.9 586.2,571.8 577.8,573.6 574.1,573.6 573.6,568.5 572.2,564.3 570.4,562.4 
		567.1,562.4 564.9,564.5 564.9,568.3 565.8,570.6 565.8,573.9 564.4,578.5 560.6,584.5 561.1,587.4 562.5,588.8 566.2,589.3 
		566.7,588.8 570.9,584.2 571.3,581.9 581.7,581.9 582.6,587 582.6,592.2 581.2,592.6 565.8,594.5 563.9,596.4 563.9,599.6 
		564.4,600.5 565.8,602 571,602.4 582.6,601 581.7,603.8 578.9,610.8 575.1,617.4 571.9,621.2 570,624 570,626.8 571.9,628.7 
		575.6,628.7 577.5,627.3 582.1,621.7 585.4,616.1 588.2,610 590.5,602.1 590.5,598.4 591.4,598.4 601.2,593.2 608.2,588.6 
		612.9,584.4 612.9,581.1 611,578.8 607.7,578.8 603.5,581.6 598.4,585.4 590.9,589.5 590.9,588.1 589.5,578.8 590.4,578.8 
		596.4,575.9 603.5,570.8 605.3,568.5 604.9,564.7 602.6,563.3 599.7,563.3 	"/>
	<polygon class="st1" points="648.5,540.4 660.6,537.1 672.7,534.2 676.9,534.2 677.8,534.7 680.1,536.6 680.1,542.6 677.8,552 
		677.8,559 678.6,561.8 681.5,566 685.7,568.8 689.9,569.7 699.2,569.7 702.9,569.3 712.3,567.4 721.2,564.1 728.6,560.4 737,555.2 
		743.1,550.1 746.4,546.4 746.4,543.5 744.5,541.2 741.2,541.2 737.9,544 730.4,549.6 725.3,552.9 717.4,556.7 709,559.5 
		700.1,561.4 692.2,561.8 687.5,560.9 685.7,558.1 685.7,553.5 688.5,541.3 688.1,535.3 685.7,530.7 682.9,528.3 678.3,526.5 
		670.8,526.5 658.7,529.2 645.6,532.9 644.2,534.8 643.7,538.1 645.6,539.9 	"/>
	<polygon class="st1" points="545.6,551.7 560.1,550.8 574.6,549 588.1,546.1 597.9,543.3 599.4,541.9 599.8,539.6 597.9,537.2 
		594.6,537.2 592.7,537.8 578.2,541.1 564.7,543.4 551.1,544.9 542.8,545.8 541.9,546.7 541.9,550.4 542.3,550.8 	"/>
	<path class="st1" d="M733,729.2l-0.4,0.4l-3.7,6.6l-3.7,3.7l-4.6,2.3l-5.6,1.4l-8.4,0.4l1.4-2.3l5.2-6.1l4.2-7.5l2.8-7l1.4-8.4
		v-9.3l-1.4-7.5l-2.3-6.1L714,684l-5.2-5.2l-6.1-3.3l-5.6-1.9l-7-0.9h-5.6l-7,0.4l-12.1,1.4l-7,0.4l0.4-5.6l-1.4-2.3l-3.3-0.9
		l-2.8,1.9l-0.9,3.7v5.6h-0.9l-11.2,2.8l-9.3,2.8v-0.9l-2.3-6.1l-3.7-7.5l2.3-0.4l16.4-6.1l10.8-3.7l12.6-3.7l15.8-3.3l10.3-1.9
		l1.9-1.9v-3.3l-0.4-0.9l-2.3-1.4l-4.6,0.4l-14.5,2.3l-14.1,3.3l-8.9,2.8l-15.8,6.1l-14.5,5.2l-10.3,2.8l-18.2,3.3l-2.3,2.3v2.8
		l1.9,2.3h6.1l6.1-0.9l8.9-1.9l4.6-0.4l1.9,1.9l3.3,6.6l1.9,5.6h-0.9l-5.2,2.3l-7.5,3.7l-8.4,4.6l-7,4.6l-6.1,4.6l-5.2,4.2l-6.1,6.1
		l-3.7,4.6l-4.2,6.6l-3.3,7.9l-1.4,7.9l0.4,7.5l1.9,6.6l2.3,5.2l4.6,6.6l6.1,5.6l5.2,3.3l7.5,3.7l7,2.3l8.4,1.4h4.2l2.8-2.3v-3.3
		l-2.3-2.3l-10.3-1.4l-7.5-2.3l-6.6-3.3l-4.6-3.3l-4.2-4.2l-3.3-5.2l-2.3-5.6l-0.9-4.6v-5.2l1.9-7.5l2.3-5.2l4.2-6.1l5.2-5.2
		l4.6-4.2l5.2-4.2l7.9-5.6l7.9-4.6l12.1-5.6l-1.4,7.9l-2.3,7.9l-2.8,6.1l-4.2,7l-3.7,4.2l-5.6,5.2l-8.9,5.6l-2.3,2.3l0.4,2.8
		l1.4,1.9h3.7l5.6-2.8l7.9-5.6l5.2-5.2l5.6-7.5l4.2-7.9l2.8-7.9l1.9-8.4v-8.9l4.2-1.4l11.7-3.3l3.7-0.4l0.4,6.1l0.9,6.1l1.9,5.2
		l2.8,4.2l4.6,4.2l3.7,1.9l5.2,1.4h5.6l2.8-0.4l5.2-1.9l5.2-3.7l3.3-4.2l2.3-5.6v-3.3l-1.4-1.9l-3.3-0.4l-1.9,1.4l-3.3,6.6l-3.7,3.3
		l-4.6,1.9h-5.6l-4.6-1.9l-3.3-2.8l-1.9-3.7l-1.4-5.2l-0.4-8.9l0.4-0.4l8.9-1.4l14.9-1.4h9.3l3.7,0.4l3.3,0.9l4.6,2.3l3.3,3.3
		l3.3,4.6l2.3,6.1l1.4,7.5v4.6L713,715l-1.9,6.6l-2.3,5.6l-4.6,7l-3.3,3.7l-5.6,5.2h-10.8l-8.9-0.4h-12.1l-7.5,0.9l-7.9,2.3
		l-7.5,3.3l-4.6,3.3l-4.2,4.6l-1.4,4.2v3.3l0.9,2.8l2.8,3.3l3.7,1.9h8.4l7.5-1.4l9.8-2.8l11.2-4.2l12.6-6.1l9.3-5.6h19.1l7-1.4
		l4.6-2.3l4.2-3.3l4.2-4.6l2.8-5.6v-4.2l-1-1.3L733,729.2z M680.6,752.5l-13.1,5.6l-14.5,4.6l-9.3,1.9H639l-0.9-0.9v-2.8l2.3-2.8
		l6.1-3.7l8.4-2.8l4.6-0.9l4.6-0.4h11.7l6.6,0.4L680.6,752.5z"/>
	<polygon class="st1" points="633.1,580.6 634,580.1 640,575.9 643.7,571.8 647,567.1 649.4,561.5 650.8,554.5 650.8,548.9 
		650.3,547 648.9,545.2 646.1,544.7 643.2,546.4 642.8,550.6 641.9,558.1 639.6,563.7 635.8,568.3 631.2,572.1 627.9,574.9 
		627.5,577.7 629.3,580.6 	"/>
	<polygon class="st1" points="605.9,600.8 600.3,597.5 597.5,597 595.6,598 594.2,600.3 595.1,603.2 597.9,605.5 604.5,610.1 
		607.4,613.4 611.1,618.5 614.4,626 616.7,628.3 620,627.9 621.4,627 621.8,625.6 621.4,621.8 618.6,615.3 614.8,609.7 611.5,605.9 
			"/>
	<path class="st1" d="M740.4,577.8l-4.6,6.1l-5.6,5.2l-7.9,5.6l-7.5,3.7l-7,2.3l-7.9,1.4h-7l-5.6-0.9l-8.9-2.8v-0.9l1.9-2.8l3.7-6.6
		l1.9-6.1v-3.3l-0.9-2.8l-1.9-2.3l-2.8-1.9l-5.6-1.4h-11.2l-5.6,0.9l-7.5,2.3l-2.3,2.3v3.3l1.4,1.9l2.8,0.4l3.3-0.9l7.5-1.9h12.1
		l2.8,0.9v1.9l-2.8,5.6l-3.3,5.2l-0.9,2.3l-7-2.3l-6.6-1.4h-4.2l-5.6,1.4l-4.2,2.8l-3.3,4.2l-1.4,4.2v4.6l0.4,1.9l1.9,3.7l4.2,3.7
		l3.7,1.4h4.6l2.3-0.4l5.6-2.8l5.2-4.2l5.2-5.6l2.3-0.4l6.6,2.3l10.3,2.3h11.7l2.8-0.4l6.1-1.4l8.9-3.3l8.4-4.6l7-5.2l3.3-3.3
		l5.2-5.6l4.6-6.1l2.8-5.2V572l-1.5-2.1l-3.3-0.4l-1.9,0.9L740.4,577.8z M664.8,602.6L664.8,602.6l-7.5,6.6l-4.2,1.9h-3.7l-2.3-2.3
		l-0.4-0.9v-3.3l1.4-2.8l3.7-2.3l1.4-0.4h4.2l5.6,1.4l1.9,0.9V602.6z"/>
	<polygon class="st1" points="766.7,619.9 756.4,618 745.2,617.1 735.8,617.1 717.6,618 698.9,619.9 682.1,622.7 668.6,626 
		655.5,630.2 637.2,636.8 618.6,642.8 605.5,646.1 596.1,647.5 584.4,647.5 580.7,647.1 573.6,645.2 565.7,641.5 560.1,637.3 
		555.5,631.7 552.2,625.6 549.4,617.3 547.5,605.6 546.6,592.1 545.7,565.9 545.2,564.1 543.8,563.2 541.5,562.7 539.2,563.6 
		537.8,565 537.8,571.1 538.7,597.7 539.6,608.9 541,617.8 542.9,624.8 546.1,632.3 550.8,639.3 555.4,644 560,647.7 566.6,651.4 
		575.5,654.7 583.9,656.1 597.4,656.1 600.7,655.7 610.5,653.8 623.6,650.1 640.4,644.5 656.7,638.9 673.6,633.3 685.7,630.4 
		696.9,628.6 713.7,626.7 730.5,625.8 748.3,625.8 754.4,626.2 761.4,626.7 764.8,625.6 767.9,623.2 	"/>
</g>
</svg>
